<svg width="89" height="89" viewBox="0 0 89 89" fill="none" xmlns="http://www.w3.org/2000/svg">
<g clip-path="url(#clip0_1_1520)">
<path d="M83.6338 77.3327C83.3852 77.1894 83.1367 77.0549 82.8882 76.9266C91.3569 64.688 90.8476 30.4045 82.4591 17.8726C82.8502 17.6845 83.2426 17.4774 83.6338 17.252C87.8437 14.8265 88.7732 12.0745 87.5904 10.0218C86.4075 7.96912 83.5611 7.39332 79.3505 9.81944C77.8723 10.6709 76.6121 11.6718 75.6479 12.6998C66.4635 9.33191 49.4161 9.33191 40.2317 12.6998C39.2675 11.6718 38.0073 10.6716 36.529 9.81944C32.3191 7.39332 29.472 7.96912 28.2892 10.0218C27.1063 12.0745 28.0359 14.8265 32.2465 17.252C32.6369 17.4774 33.0294 17.6845 33.4205 17.8726C25.0326 30.4045 24.5227 64.688 32.9914 76.9266C32.7429 77.0549 32.4943 77.1894 32.2465 77.3327C28.0359 79.7588 27.1063 82.5102 28.2892 84.5628C29.472 86.6155 32.3191 87.1913 36.529 84.7652C37.9543 83.9442 39.1779 82.9841 40.1272 81.9948C49.5213 85.2154 66.3582 85.2154 75.7517 81.9948C76.7017 82.9841 77.9253 83.9442 79.3505 84.7652C83.5604 87.1913 86.4075 86.6155 87.5904 84.5628C88.7732 82.5102 87.8437 79.7588 83.6338 77.3327Z" fill="#EAB875"/>
<path d="M83.6337 77.3326C83.3852 77.1894 83.1367 77.0549 82.8882 76.9266C91.3569 64.688 90.8476 30.4045 82.459 17.8725C82.8502 17.6845 83.2426 17.4774 83.6337 17.2519C87.8436 14.8265 88.7732 12.0744 87.5904 10.0218C86.6397 8.37242 84.6136 7.67847 81.67 8.72755C82.2146 9.03582 82.6478 9.47582 82.9622 10.0218C84.145 12.0744 83.2155 14.8265 79.0056 17.2519C78.6145 17.4774 78.222 17.6845 77.8309 17.8725C86.2194 30.4045 86.7287 64.688 78.26 76.9266C78.5085 77.0549 78.757 77.1894 79.0056 77.3326C83.2155 79.7588 84.145 82.5101 82.9622 84.5628C82.6478 85.1087 82.2146 85.5487 81.67 85.857C84.6136 86.9068 86.6397 86.2121 87.5904 84.5628C88.7732 82.5101 87.8436 79.7588 83.6337 77.3326Z" fill="#C68D4E"/>
<path d="M18.2295 15.5303L31.3705 51.6336L24.0555 54.296L10.9152 18.1927C12.2094 18.2185 13.5301 18.01 14.8195 17.5408C16.109 17.0716 17.2551 16.3824 18.2295 15.5303Z" fill="#EA6789"/>
<path d="M31.3706 51.6336L18.2296 15.5303C17.2803 16.36 16.1681 17.0336 14.9194 17.5021L27.8139 52.9285L24.0555 54.296L31.3706 51.6336Z" fill="#C7416A"/>
<path d="M11.1304 19.4995C11.0503 19.4995 10.9702 19.4981 10.8894 19.4967C6.7603 19.4132 2.87972 17.1643 0.762546 13.628C0.296062 12.8499 0.203716 11.9135 0.506557 11.0579C0.810756 10.2017 1.47483 9.53286 2.32768 9.22187L19.041 3.13856C19.8945 2.82825 20.8336 2.91449 21.6165 3.37486C22.3987 3.83456 22.9297 4.61203 23.073 5.50765C23.7242 9.57767 22.1971 13.795 19.0878 16.5125C17.9647 17.4943 16.6787 18.2521 15.265 18.7668C13.9287 19.253 12.5387 19.4995 11.1304 19.4995ZM19.9332 5.58913L3.21991 11.6718C3.05558 11.7315 2.98904 11.8592 2.96392 11.9298C2.93879 12.0004 2.91027 12.1403 2.99923 12.289C4.65942 15.0614 7.70277 16.8241 10.9417 16.89C12.1089 16.9124 13.2639 16.7202 14.3741 16.3162C15.4836 15.9122 16.4926 15.3181 17.372 14.5494C19.811 12.4173 21.0088 9.11051 20.4988 5.91914C20.471 5.7487 20.359 5.65975 20.2951 5.62173C20.2299 5.58438 20.0969 5.52938 19.9332 5.58913Z" fill="#1B223A"/>
<path d="M41.7683 34.1208V41.9831C41.7683 44.6577 43.9364 46.8265 46.6111 46.8265H69.2678C71.9424 46.8265 74.1112 44.6577 74.1112 41.9831V34.1208C74.1112 31.4461 71.9424 29.2773 69.2678 29.2773H46.6111C43.9364 29.2773 41.7683 31.4461 41.7683 34.1208Z" fill="#F0F2DC"/>
<path d="M58.7037 77.1727C58.7037 70.369 53.8575 64.7006 47.4286 63.4254C47.0769 54.4006 39.5989 47.205 30.4627 47.3157C21.6565 47.4223 14.3415 54.4624 13.9151 63.259C13.8302 65.0129 14.0163 66.7111 14.4332 68.3163C10.541 69.3817 7.67831 72.9425 7.67764 77.1721H5.12929C2.29643 77.1727 0 79.4692 0 82.302V85.7623C0 86.0903 0.265495 86.3558 0.592781 86.3558H66.7195C67.0467 86.3558 67.3122 86.0903 67.3122 85.7623V82.302C67.3122 79.4692 65.0158 77.1727 62.1829 77.1727H58.7037Z" fill="#AABFD5"/>
<path d="M62.1829 77.1727H58.7036C58.7036 70.369 53.8575 64.7006 47.4286 63.4254C47.0768 54.4006 39.5988 47.205 30.4627 47.3157C29.7728 47.3245 29.0938 47.3802 28.4249 47.4705C36.3871 48.5617 42.5668 55.2412 42.8866 63.4254C49.3149 64.7006 54.161 70.369 54.161 77.1727H57.6403C60.4731 77.1727 62.7696 79.4692 62.7696 82.302V85.7623C62.7696 86.0903 62.5041 86.3558 62.1768 86.3558H66.7194C67.0467 86.3558 67.3122 86.0903 67.3122 85.7623V82.302C67.3122 79.4692 65.0158 77.1727 62.1829 77.1727Z" fill="#7D8EB0"/>
<path d="M47.9365 76.2403C47.2167 76.2403 46.6328 75.657 46.6328 74.9366C46.6328 73.0578 45.1043 71.5293 43.2255 71.5293C42.5424 71.5293 41.8838 71.7303 41.3215 72.1105C40.7247 72.5139 39.9139 72.3563 39.5113 71.7602C39.1079 71.1633 39.2648 70.3526 39.861 69.9499C40.8564 69.277 42.0196 68.9219 43.2255 68.9219C46.5418 68.9219 49.2402 71.6196 49.2402 74.9366C49.2402 75.657 48.6563 76.2403 47.9365 76.2403Z" fill="#7D8EB0"/>
<path d="M18.2608 77.1077C17.9864 77.1077 17.7101 77.0222 17.4745 76.8436C16.9007 76.4084 16.788 75.5908 17.2225 75.0171C18.3062 73.5864 19.9569 72.7661 21.7495 72.7661C23.1368 72.7661 24.4717 73.272 25.5099 74.19C26.0491 74.6667 26.1 75.491 25.6226 76.0301C25.1453 76.57 24.3217 76.6202 23.7825 76.1429C23.2216 75.6465 22.4992 75.3735 21.7495 75.3735C20.7799 75.3735 19.8877 75.8176 19.301 76.5917C19.0443 76.9298 18.6546 77.1077 18.2608 77.1077Z" fill="#7D8EB0"/>
<path d="M26.028 61.3192C25.8474 61.3192 25.6641 61.2819 25.4896 61.2024C24.8337 60.9043 24.5437 60.1316 24.8411 59.4764C25.1406 58.817 25.5643 58.2324 26.1 57.7388C28.2899 55.7214 31.7128 55.862 33.7308 58.0518C34.2183 58.5814 34.1851 59.4057 33.6554 59.8939C33.1258 60.3815 32.3008 60.3475 31.8133 59.8186C30.7696 58.686 28.9987 58.6126 27.8661 59.657C27.5891 59.9123 27.3698 60.2144 27.2156 60.554C26.9977 61.0347 26.5237 61.3192 26.028 61.3192Z" fill="#7D8EB0"/>
</g>
<defs>
<clipPath id="clip0_1_1520">
<rect width="89" height="89" fill="white"/>
</clipPath>
</defs>
</svg>
