<svg width="440" height="956" viewBox="0 0 440 956" fill="none" xmlns="http://www.w3.org/2000/svg">
<g clip-path="url(#clip0_1_2)">
<rect width="440" height="956" fill="#F7FAFF"/>
<circle cx="430.5" cy="922.5" r="18" stroke="#F15324" stroke-opacity="0.6"/>
<circle cx="155.5" cy="86.5" r="14" stroke="#F15324" stroke-opacity="0.6"/>
<g opacity="0.44">
<rect x="-71" y="166.578" width="212.358" height="83.9474" rx="41.9737" transform="rotate(-36.5881 -71 166.578)" fill="#F15324"/>
<rect x="-70.3005" y="166.681" width="211.358" height="82.9474" rx="41.4737" transform="rotate(-36.5881 -70.3005 166.681)" stroke="#F15324" stroke-opacity="0.6"/>
</g>
<g opacity="0.44">
<rect width="195.654" height="72.96" rx="36.48" transform="matrix(-0.744099 0.668069 0.668069 0.744099 439.93 771)" fill="#F15324"/>
<rect x="-0.0380152" y="0.706084" width="194.654" height="71.96" rx="35.98" transform="matrix(-0.744099 0.668069 0.668069 0.744099 439.392 771.206)" stroke="#F15324" stroke-opacity="0.6"/>
</g>
<g opacity="0.5">
<rect x="-67.4468" y="215.574" width="212.358" height="63.193" rx="31.5965" transform="rotate(-36.5881 -67.4468 215.574)" fill="#F15324"/>
<rect x="-66.7473" y="215.677" width="211.358" height="62.193" rx="31.0965" transform="rotate(-36.5881 -66.7473 215.677)" stroke="#F15324" stroke-opacity="0.6"/>
</g>
<g opacity="0.5">
<rect width="195.654" height="58.2224" rx="29.1112" transform="matrix(-0.744099 0.668069 0.668069 0.744099 480.586 779.941)" fill="#F15324"/>
<rect x="-0.0380152" y="0.706084" width="194.654" height="57.2224" rx="28.6112" transform="matrix(-0.744099 0.668069 0.668069 0.744099 480.048 780.147)" stroke="#F15324" stroke-opacity="0.6"/>
</g>
<circle cx="168" cy="199" r="13.5" stroke="#F15324" stroke-opacity="0.6"/>
<circle cx="327" cy="836" r="13.5" stroke="#F15324" stroke-opacity="0.6"/>
<circle cx="149" cy="117" r="7" fill="#F15324" fill-opacity="0.6"/>
<circle cx="149" cy="117" r="6.5" stroke="#F15324" stroke-opacity="0.6"/>
<circle cx="306" cy="873" r="7" fill="#F15324" fill-opacity="0.6"/>
<circle cx="306" cy="873" r="6.5" stroke="#F15324" stroke-opacity="0.6"/>
</g>
<defs>
<clipPath id="clip0_1_2">
<rect width="440" height="956" fill="white"/>
</clipPath>
</defs>
</svg>
