<svg width="440" height="356" viewBox="0 0 440 356" fill="none" xmlns="http://www.w3.org/2000/svg">
<g clip-path="url(#clip0_3_177)">
<rect width="440" height="356" fill="white"/>
<path d="M0 0H440V344C440 350.627 434.627 356 428 356H12C5.37257 356 0 350.627 0 344V0Z" fill="#F15324"/>
<g opacity="0.17" clip-path="url(#clip1_3_177)">
<path fill-rule="evenodd" clip-rule="evenodd" d="M323.679 -19.9945C322.408 -19.8122 321.144 -19.6448 319.888 -19.4917L319.883 -19.4909C318.629 -19.338 317.382 -19.1997 316.143 -19.075L316.14 -19.0746C315.651 -19.0259 315.168 -18.989 314.682 -18.944C313.931 -18.8753 313.18 -18.8017 312.435 -18.7428C312.005 -18.7092 311.582 -18.687 311.154 -18.6566C310.362 -18.6003 309.568 -18.5408 308.783 -18.4959C308.251 -18.4657 307.725 -18.4489 307.196 -18.424C306.521 -18.3924 305.843 -18.3551 305.173 -18.3328C304.62 -18.3136 304.074 -18.3082 303.524 -18.2951C302.886 -18.2799 302.245 -18.2585 301.611 -18.2518C301.061 -18.2453 300.516 -18.252 299.969 -18.2516C299.343 -18.2513 298.714 -18.2447 298.092 -18.2519C297.546 -18.2581 297.008 -18.2782 296.466 -18.2898C295.85 -18.3037 295.231 -18.3124 294.619 -18.3333C294.078 -18.3527 293.543 -18.3843 293.005 -18.409C292.4 -18.4374 291.791 -18.4598 291.19 -18.4949C290.676 -18.5255 290.17 -18.5676 289.66 -18.6036C289.041 -18.647 288.42 -18.6843 287.806 -18.7355C287.281 -18.7797 286.764 -18.835 286.243 -18.8845C285.652 -18.9406 285.056 -18.9909 284.469 -19.0539C283.932 -19.1119 283.403 -19.1819 282.87 -19.246C282.304 -19.3135 281.735 -19.3757 281.173 -19.4501C280.654 -19.5191 280.142 -19.6 279.626 -19.6748C279.058 -19.7571 278.485 -19.8335 277.921 -19.9227C277.407 -20.0042 276.901 -20.0977 276.391 -20.1842C275.831 -20.2796 275.269 -20.3687 274.714 -20.4708C274.184 -20.5688 273.66 -20.6782 273.131 -20.7818C272.605 -20.8856 272.075 -20.9836 271.552 -21.0935C270.994 -21.2104 270.444 -21.34 269.89 -21.4637C269.405 -21.5728 268.915 -21.6755 268.433 -21.7899C267.884 -21.9192 267.341 -22.0615 266.796 -22.1984C266.315 -22.3198 265.831 -22.434 265.354 -22.5596C264.852 -22.6924 264.358 -22.8356 263.86 -22.9735C263.345 -23.1165 262.826 -23.2542 262.314 -23.403C261.83 -23.5441 261.353 -23.6963 260.871 -23.8427C260.355 -23.9996 259.837 -24.152 259.324 -24.315C258.831 -24.4725 258.343 -24.6415 257.853 -24.8051C257.36 -24.9697 256.863 -25.1284 256.373 -25.2994C255.896 -25.4655 255.424 -25.6422 254.95 -25.8143C254.454 -25.9929 253.955 -26.1681 253.464 -26.3524C252.981 -26.5342 252.507 -26.7268 252.027 -26.9138C251.552 -27.1002 251.072 -27.2819 250.6 -27.4735C250.118 -27.6689 249.643 -27.8756 249.164 -28.0771C248.701 -28.2727 248.233 -28.4633 247.773 -28.6631C247.297 -28.871 246.828 -29.0891 246.356 -29.3028C245.901 -29.5081 245.443 -29.7081 244.992 -29.9192C244.524 -30.1368 244.064 -30.3651 243.6 -30.5893C243.149 -30.8069 242.694 -31.0196 242.246 -31.2425C241.796 -31.4669 241.352 -31.701 240.906 -31.9307C240.452 -32.1631 239.995 -32.3922 239.545 -32.6304C239.101 -32.8654 238.665 -33.1095 238.225 -33.3495C237.777 -33.5934 237.327 -33.8327 236.883 -34.0826C236.442 -34.3303 236.008 -34.5874 235.571 -34.84C235.135 -35.0923 234.696 -35.3401 234.263 -35.5974C233.818 -35.8615 233.38 -36.136 232.939 -36.4067C232.52 -36.6623 232.098 -36.9137 231.683 -37.1746C231.257 -37.4422 230.837 -37.7196 230.415 -37.9925C229.989 -38.2667 229.56 -38.5371 229.139 -38.8171C228.728 -39.0889 228.324 -39.3694 227.918 -39.6462C227.491 -39.9354 227.062 -40.2219 226.638 -40.5163C226.23 -40.8011 225.828 -41.0954 225.424 -41.3843C225.008 -41.6814 224.589 -41.9748 224.176 -42.2772C223.766 -42.5773 223.362 -42.8871 222.956 -43.1925C222.556 -43.4935 222.153 -43.7892 221.756 -44.0955C221.353 -44.405 220.957 -44.7238 220.557 -45.0384C220.161 -45.3501 219.762 -45.6578 219.37 -45.9753C218.98 -46.2889 218.596 -46.6123 218.209 -46.9312C217.814 -47.257 217.417 -47.5791 217.025 -47.909C216.64 -48.2347 216.262 -48.5679 215.88 -48.8969C215.493 -49.2316 215.102 -49.562 214.718 -49.9012C214.338 -50.2366 213.964 -50.5811 213.588 -50.9199C213.208 -51.2626 212.826 -51.6009 212.45 -51.9479C212.067 -52.3014 211.69 -52.6625 211.31 -53.0211C210.947 -53.3631 210.582 -53.7015 210.221 -54.048C209.84 -54.4153 209.465 -54.7905 209.087 -55.1623C208.734 -55.5096 208.379 -55.8532 208.028 -56.2042C207.659 -56.5753 207.295 -56.9543 206.929 -57.3297C206.577 -57.6916 206.221 -58.0491 205.872 -58.4145C205.513 -58.7897 205.16 -59.1729 204.804 -59.5527C204.454 -59.9265 204.101 -60.2977 203.754 -60.6761C203.402 -61.0589 203.056 -61.4494 202.708 -61.8364C202.363 -62.2204 202.015 -62.6006 201.673 -62.9879C201.333 -63.3735 200.998 -63.7662 200.661 -64.1563C200.316 -64.5549 199.969 -64.9506 199.626 -65.3537C199.297 -65.7416 198.975 -66.1362 198.648 -66.5277C198.305 -66.9393 197.959 -67.3482 197.619 -67.7651C197.297 -68.1594 196.981 -68.5608 196.662 -68.9596C196.323 -69.3816 195.982 -69.8015 195.647 -70.2276C195.324 -70.6377 195.007 -71.0561 194.687 -71.4699C194.363 -71.8898 194.037 -72.3069 193.716 -72.731C193.391 -73.1608 193.07 -73.5978 192.748 -74.0307C192.437 -74.4503 192.123 -74.8663 191.815 -75.2886C191.502 -75.7173 191.195 -76.1528 190.885 -76.5858C190.573 -77.0204 190.26 -77.4526 189.951 -77.8907C189.643 -78.3273 189.342 -78.7707 189.038 -79.2108C188.733 -79.6527 188.425 -80.0912 188.123 -80.5369C187.817 -80.9876 187.517 -81.4453 187.214 -81.8994C186.92 -82.3412 186.623 -82.78 186.331 -83.2252C186.032 -83.6827 185.738 -84.1461 185.443 -84.6067C185.152 -85.0589 184.859 -85.5085 184.571 -85.9633C184.282 -86.4203 183.999 -86.8833 183.714 -87.3426C183.425 -87.808 183.134 -88.2716 182.847 -88.7405C182.566 -89.2029 182.289 -89.671 182.01 -90.1363C181.726 -90.6108 181.439 -91.0826 181.158 -91.56C180.877 -92.037 180.602 -92.5201 180.324 -93.0005C180.05 -93.4718 179.776 -93.9409 179.506 -94.4156C179.228 -94.9022 178.956 -95.3952 178.682 -95.8861C178.416 -96.363 178.147 -96.8382 177.882 -97.318C177.613 -97.8081 177.349 -98.3043 177.083 -98.7978C176.821 -99.2833 176.555 -99.7661 176.296 -100.255C176.028 -100.761 175.764 -101.273 175.497 -101.783C175.246 -102.265 174.993 -102.745 174.744 -103.229C174.478 -103.747 174.217 -104.271 173.954 -104.792C173.711 -105.276 173.465 -105.758 173.223 -106.244C172.969 -106.755 172.721 -107.273 172.469 -107.788C172.224 -108.292 171.976 -108.794 171.733 -109.3C171.487 -109.812 171.247 -110.331 171.003 -110.846C170.762 -111.357 170.519 -111.867 170.28 -112.382C170.033 -112.915 169.791 -113.454 169.547 -113.991C169.317 -114.494 169.086 -114.996 168.859 -115.502C168.621 -116.031 168.39 -116.564 168.155 -117.096C167.925 -117.618 167.694 -118.138 167.466 -118.662C167.234 -119.197 167.008 -119.736 166.779 -120.273C166.556 -120.797 166.332 -121.319 166.111 -121.844C165.883 -122.387 165.661 -122.935 165.436 -123.48C165.238 -123.961 165.037 -124.44 164.841 -124.923L122.247 -14.7135C155.492 40.406 190.331 97.7274 305.915 61.8677C421.5 26.0075 580.083 130.736 535.841 339.089C537.013 336.042 538.132 333.015 539.236 329.993C539.859 328.28 540.473 326.559 541.081 324.835C541.415 323.891 541.745 322.948 542.073 322.007C548.396 303.753 553.83 284.935 558.144 265.941C600.086 76.6834 497.758 -44.8948 323.679 -19.9945Z" fill="#F7FAFF"/>
</g>
<g opacity="0.17" clip-path="url(#clip2_3_177)">
<path fill-rule="evenodd" clip-rule="evenodd" d="M227.679 -2.99451C226.408 -2.8122 225.144 -2.64481 223.888 -2.49175L223.883 -2.49088C222.629 -2.338 221.382 -2.19974 220.143 -2.07499L220.14 -2.07462C219.651 -2.02594 219.168 -1.98898 218.682 -1.944C217.931 -1.87527 217.18 -1.80173 216.435 -1.74281C216.005 -1.70921 215.582 -1.68702 215.154 -1.65663C214.362 -1.60033 213.568 -1.54083 212.783 -1.49594C212.251 -1.46574 211.725 -1.44887 211.196 -1.42397C210.521 -1.39241 209.843 -1.35505 209.173 -1.3328C208.62 -1.3136 208.074 -1.3082 207.524 -1.2951C206.886 -1.27988 206.245 -1.25855 205.611 -1.25183C205.061 -1.24527 204.516 -1.25202 203.969 -1.25156C203.343 -1.25134 202.714 -1.24469 202.092 -1.25187C201.546 -1.25813 201.008 -1.27821 200.466 -1.28977C199.85 -1.30374 199.231 -1.3124 198.619 -1.33327C198.078 -1.35267 197.543 -1.38428 197.005 -1.40898C196.4 -1.43745 195.791 -1.45981 195.19 -1.49488C194.676 -1.52554 194.17 -1.56762 193.66 -1.60358C193.041 -1.64701 192.42 -1.68432 191.806 -1.73545C191.281 -1.77965 190.764 -1.83497 190.243 -1.88447C189.652 -1.94058 189.056 -1.99088 188.469 -2.05389C187.932 -2.11194 187.403 -2.18189 186.87 -2.24605C186.304 -2.31354 185.735 -2.37572 185.173 -2.45012C184.654 -2.51911 184.142 -2.6 183.626 -2.67479C183.058 -2.75707 182.485 -2.83355 181.921 -2.92273C181.407 -3.00424 180.901 -3.09765 180.391 -3.18416C179.831 -3.27964 179.269 -3.36871 178.714 -3.4708C178.184 -3.56879 177.66 -3.6782 177.131 -3.78181C176.605 -3.88561 176.075 -3.98361 175.552 -4.09351C174.994 -4.21039 174.444 -4.33996 173.89 -4.46374C173.405 -4.57279 172.915 -4.67554 172.433 -4.7899C171.884 -4.91917 171.341 -5.06146 170.796 -5.19844C170.315 -5.31982 169.831 -5.43399 169.354 -5.55957C168.852 -5.69244 168.358 -5.83562 167.86 -5.97348C167.345 -6.1165 166.826 -6.2542 166.314 -6.40302C165.83 -6.54412 165.353 -6.69632 164.871 -6.84273C164.355 -6.99961 163.837 -7.15199 163.324 -7.31498C162.831 -7.47252 162.343 -7.64147 161.853 -7.80511C161.36 -7.96968 160.863 -8.12844 160.373 -8.29942C159.896 -8.46549 159.424 -8.64217 158.95 -8.81435C158.454 -8.9929 157.955 -9.16805 157.464 -9.3524C156.981 -9.53418 156.507 -9.72677 156.027 -9.91385C155.552 -10.1002 155.072 -10.2819 154.6 -10.4735C154.118 -10.6689 153.643 -10.8756 153.164 -11.0771C152.701 -11.2727 152.233 -11.4633 151.773 -11.6631C151.297 -11.871 150.828 -12.0891 150.356 -12.3028C149.901 -12.5081 149.443 -12.7081 148.992 -12.9192C148.524 -13.1368 148.064 -13.3651 147.6 -13.5893C147.149 -13.8069 146.694 -14.0196 146.246 -14.2425C145.796 -14.4669 145.352 -14.701 144.906 -14.9307C144.452 -15.1631 143.995 -15.3922 143.545 -15.6304C143.101 -15.8654 142.665 -16.1095 142.225 -16.3495C141.777 -16.5934 141.327 -16.8327 140.883 -17.0826C140.442 -17.3303 140.008 -17.5874 139.571 -17.84C139.135 -18.0923 138.696 -18.3401 138.263 -18.5974C137.818 -18.8615 137.38 -19.136 136.939 -19.4067C136.52 -19.6623 136.098 -19.9137 135.683 -20.1746C135.257 -20.4422 134.837 -20.7196 134.415 -20.9925C133.989 -21.2667 133.56 -21.5371 133.139 -21.8171C132.728 -22.0889 132.324 -22.3694 131.918 -22.6462C131.491 -22.9354 131.062 -23.2219 130.638 -23.5163C130.23 -23.8011 129.828 -24.0954 129.424 -24.3843C129.008 -24.6814 128.589 -24.9748 128.176 -25.2772C127.766 -25.5773 127.362 -25.8871 126.956 -26.1925C126.556 -26.4935 126.153 -26.7892 125.756 -27.0955C125.353 -27.405 124.957 -27.7238 124.557 -28.0384C124.161 -28.3501 123.762 -28.6578 123.37 -28.9753C122.98 -29.2889 122.596 -29.6123 122.209 -29.9312C121.814 -30.257 121.417 -30.5791 121.025 -30.909C120.64 -31.2347 120.262 -31.5679 119.88 -31.8969C119.493 -32.2316 119.102 -32.562 118.718 -32.9012C118.338 -33.2366 117.964 -33.5811 117.588 -33.9199C117.208 -34.2626 116.826 -34.6009 116.45 -34.9479C116.067 -35.3014 115.69 -35.6625 115.31 -36.0211C114.947 -36.3631 114.582 -36.7015 114.221 -37.048C113.84 -37.4153 113.465 -37.7905 113.087 -38.1623C112.734 -38.5096 112.379 -38.8532 112.028 -39.2042C111.659 -39.5753 111.295 -39.9543 110.929 -40.3297C110.577 -40.6916 110.221 -41.0491 109.872 -41.4145C109.513 -41.7897 109.16 -42.1729 108.804 -42.5527C108.454 -42.9265 108.101 -43.2977 107.754 -43.6761C107.402 -44.0589 107.056 -44.4494 106.708 -44.8364C106.363 -45.2204 106.015 -45.6006 105.673 -45.9879C105.333 -46.3735 104.998 -46.7662 104.661 -47.1563C104.316 -47.5549 103.969 -47.9506 103.626 -48.3537C103.297 -48.7416 102.975 -49.1362 102.648 -49.5277C102.305 -49.9393 101.959 -50.3482 101.619 -50.7651C101.297 -51.1594 100.981 -51.5608 100.662 -51.9596C100.323 -52.3816 99.9821 -52.8015 99.6467 -53.2276C99.3244 -53.6377 99.007 -54.0561 98.687 -54.4699C98.363 -54.8898 98.0369 -55.3069 97.7163 -55.731C97.3905 -56.1608 97.0703 -56.5978 96.7485 -57.0307C96.4371 -57.4503 96.1235 -57.8663 95.815 -58.2886C95.5016 -58.7173 95.1945 -59.1528 94.8846 -59.5858C94.5726 -60.0204 94.2597 -60.4526 93.9509 -60.8907C93.6433 -61.3273 93.342 -61.7707 93.0376 -62.2108C92.733 -62.6527 92.4253 -63.0912 92.123 -63.5369C91.8172 -63.9876 91.5168 -64.4453 91.2141 -64.8994C90.9196 -65.3412 90.6229 -65.78 90.3315 -66.2252C90.0319 -66.6827 89.7383 -67.1461 89.4427 -67.6067C89.1521 -68.0589 88.8587 -68.5085 88.571 -68.9633C88.2822 -69.4203 87.9995 -69.8833 87.7143 -70.3426C87.4252 -70.808 87.1335 -71.2716 86.8475 -71.7405C86.5663 -72.2029 86.2892 -72.671 86.01 -73.1363C85.7262 -73.6108 85.4395 -74.0826 85.1577 -74.56C84.8766 -75.037 84.6016 -75.5201 84.3237 -76.0005C84.0505 -76.4718 83.7756 -76.9409 83.5055 -77.4156C83.2282 -77.9022 82.956 -78.3952 82.6822 -78.8861C82.4157 -79.363 82.1468 -79.8382 81.8824 -80.318C81.6128 -80.8081 81.3492 -81.3043 81.0827 -81.7978C80.8205 -82.2833 80.5555 -82.7661 80.2964 -83.255C80.0275 -83.7614 79.7636 -84.2733 79.4971 -84.7834C79.2463 -85.2653 78.9928 -85.7447 78.7437 -86.2288C78.4784 -86.7467 78.2175 -87.2713 77.9542 -87.7921C77.7106 -88.2759 77.4652 -88.7576 77.2233 -89.2436C76.9694 -89.7553 76.7206 -90.2733 76.4694 -90.7877C76.2235 -91.2917 75.9759 -91.7936 75.7328 -92.3003C75.4872 -92.8124 75.2469 -93.3309 75.0033 -93.846C74.7621 -94.3574 74.5191 -94.8668 74.2802 -95.3819C74.0327 -95.9151 73.7911 -96.4543 73.5467 -96.9909C73.317 -97.4942 73.0859 -97.9962 72.859 -98.5022C72.6215 -99.0306 72.3897 -99.5641 72.1553 -100.096C71.9254 -100.618 71.6941 -101.138 71.4658 -101.662C71.2343 -102.197 71.0077 -102.736 70.779 -103.273C70.5562 -103.797 70.3317 -104.319 70.1106 -104.844C69.883 -105.387 69.6613 -105.935 69.436 -106.48C69.238 -106.961 69.0372 -107.44 68.8409 -107.923L26.2468 2.28649C59.4918 57.406 94.3307 114.727 209.915 78.8677C325.5 43.0075 484.083 147.736 439.841 356.089C441.013 353.042 442.132 350.015 443.236 346.993C443.859 345.28 444.473 343.559 445.081 341.835C445.415 340.891 445.745 339.948 446.073 339.007C452.396 320.753 457.83 301.935 462.144 282.941C504.086 93.6834 401.758 -27.8948 227.679 -2.99451Z" fill="#F7FAFF"/>
</g>
</g>
<defs>
<clipPath id="clip0_3_177">
<rect width="440" height="356" fill="white"/>
</clipPath>
<clipPath id="clip1_3_177">
<rect width="513" height="300" fill="white" transform="translate(164.641 -125) rotate(21.0266)"/>
</clipPath>
<clipPath id="clip2_3_177">
<rect width="513" height="300" fill="white" transform="translate(68.6406 -108) rotate(21.0266)"/>
</clipPath>
</defs>
</svg>
