<svg width="38" height="38" viewBox="0 0 38 38" fill="none" xmlns="http://www.w3.org/2000/svg">
<path fill-rule="evenodd" clip-rule="evenodd" d="M14.0161 19.7486C13.6026 19.3351 13.6026 18.6647 14.0161 18.2512L20.369 11.8982C20.7825 11.4847 21.4529 11.4847 21.8664 11.8982C22.2799 12.3117 22.2799 12.9822 21.8664 13.3956L16.2622 18.9999L21.8664 24.6041C22.2799 25.0176 22.2799 25.688 21.8664 26.1015C21.4529 26.515 20.7825 26.515 20.369 26.1015L14.0161 19.7486Z" fill="#00040D"/>
<path d="M37 19C37 9.05887 28.941 1 19 1C9.05887 1 1 9.05887 1 19C1 28.941 9.05887 37 19 37C28.941 37 37 28.941 37 19Z" stroke="#00040D" stroke-width="1.5"/>
</svg>
