<svg width="31" height="30" viewBox="0 0 31 30" fill="none" xmlns="http://www.w3.org/2000/svg">
<path d="M6.75 9.6875C6.57741 9.6875 6.4375 9.82741 6.4375 10V26.25C6.4375 26.4226 6.57741 26.5625 6.75 26.5625H24.25C24.4226 26.5625 24.5625 26.4226 24.5625 26.25V10C24.5625 9.82741 24.4226 9.6875 24.25 9.6875H6.75ZM4.5625 10C4.5625 8.79188 5.54188 7.8125 6.75 7.8125H24.25C25.4581 7.8125 26.4375 8.79188 26.4375 10V26.25C26.4375 27.4581 25.4581 28.4375 24.25 28.4375H6.75C5.54188 28.4375 4.5625 27.4581 4.5625 26.25V10Z" fill="#F15324"/>
<path d="M15.5 3.4375C13.6015 3.4375 12.0625 4.97653 12.0625 6.875V11.25C12.0625 11.7678 11.6428 12.1875 11.125 12.1875C10.6072 12.1875 10.1875 11.7678 10.1875 11.25V6.875C10.1875 3.94099 12.566 1.5625 15.5 1.5625C18.434 1.5625 20.8125 3.94099 20.8125 6.875V11.25C20.8125 11.7678 20.3928 12.1875 19.875 12.1875C19.3572 12.1875 18.9375 11.7678 18.9375 11.25V6.875C18.9375 4.97653 17.3985 3.4375 15.5 3.4375Z" fill="#F15324"/>
</svg>
