<svg width="15" height="16" viewBox="0 0 15 16" fill="none" xmlns="http://www.w3.org/2000/svg">
<g clip-path="url(#clip0_1_1261)">
<path d="M11.8547 9.79201C11.5476 9.47226 11.1772 9.3013 10.7847 9.3013C10.3953 9.3013 10.0217 9.46909 9.70195 9.78884L8.70154 10.7861C8.61923 10.7418 8.53691 10.7006 8.45777 10.6595C8.3438 10.6025 8.23616 10.5486 8.14435 10.4917C7.20726 9.89648 6.35564 9.12085 5.53885 8.11727C5.14312 7.61707 4.87719 7.19601 4.68407 6.76862C4.94367 6.53118 5.18428 6.28424 5.41855 6.04681C5.50719 5.95816 5.59584 5.86635 5.68448 5.77771C6.34931 5.11288 6.34931 4.25177 5.68448 3.58694L4.8202 2.72266C4.72206 2.62452 4.62075 2.52321 4.52578 2.4219C4.33583 2.22562 4.13638 2.02301 3.9306 1.83306C3.62351 1.52913 3.25627 1.36768 2.87004 1.36768C2.4838 1.36768 2.11023 1.52913 1.79365 1.83306C1.79048 1.83622 1.79048 1.83622 1.78732 1.83939L0.710927 2.92528C0.305698 3.3305 0.0745907 3.82438 0.0239371 4.3974C-0.0520434 5.32183 0.22022 6.18294 0.429166 6.74646C0.942034 8.12994 1.70817 9.41211 2.85104 10.7861C4.23769 12.4418 5.90609 13.7493 7.81193 14.6706C8.54008 15.0157 9.512 15.4241 10.5979 15.4937C10.6644 15.4969 10.734 15.5 10.7973 15.5C11.5286 15.5 12.1428 15.2373 12.624 14.7149C12.6272 14.7086 12.6335 14.7054 12.6367 14.6991C12.8013 14.4996 12.9913 14.3192 13.1907 14.1261C13.3268 13.9963 13.4661 13.8601 13.6023 13.7177C13.9157 13.3916 14.0803 13.0117 14.0803 12.6223C14.0803 12.2297 13.9125 11.853 13.5928 11.5364L11.8547 9.79201ZM12.9881 13.1257C12.9849 13.1257 12.9849 13.1288 12.9881 13.1257C12.8646 13.2586 12.738 13.3789 12.6019 13.5119C12.3961 13.7082 12.1871 13.9139 11.9909 14.1451C11.6711 14.487 11.2944 14.6484 10.8005 14.6484C10.753 14.6484 10.7024 14.6484 10.6549 14.6453C9.71461 14.5851 8.84084 14.2179 8.1855 13.9045C6.39363 13.037 4.8202 11.8055 3.51271 10.2447C2.43315 8.94356 1.71134 7.74054 1.23329 6.44887C0.938869 5.66057 0.83123 5.0464 0.878717 4.46705C0.910376 4.09664 1.05284 3.78955 1.3156 3.52679L2.39516 2.44723C2.55029 2.3016 2.71491 2.22246 2.87637 2.22246C3.07582 2.22246 3.23728 2.34276 3.33858 2.44407C3.34175 2.44723 3.34492 2.4504 3.34808 2.45356C3.5412 2.63402 3.72482 2.8208 3.91794 3.02025C4.01608 3.12156 4.11738 3.22287 4.21869 3.32734L5.08297 4.19162C5.41855 4.5272 5.41855 4.83745 5.08297 5.17303C4.99116 5.26484 4.90252 5.35665 4.81071 5.44529C4.54477 5.71756 4.29151 5.97083 4.01608 6.21776C4.00975 6.22409 4.00341 6.22726 4.00025 6.23359C3.72798 6.50585 3.77864 6.77179 3.83562 6.95224C3.83879 6.96174 3.84196 6.97123 3.84512 6.98073C4.0699 7.52526 4.38648 8.03813 4.86769 8.64914L4.87086 8.6523C5.74463 9.72869 6.6659 10.5676 7.68213 11.2103C7.81193 11.2926 7.9449 11.3591 8.07153 11.4224C8.1855 11.4794 8.29314 11.5332 8.38495 11.5902C8.39762 11.5965 8.41028 11.606 8.42294 11.6124C8.53058 11.6662 8.63189 11.6915 8.73636 11.6915C8.99913 11.6915 9.16375 11.5269 9.21757 11.4731L10.3003 10.3904C10.4079 10.2827 10.5789 10.1529 10.7783 10.1529C10.9746 10.1529 11.1361 10.2764 11.2342 10.384C11.2374 10.3872 11.2374 10.3872 11.2406 10.3904L12.9849 12.1347C13.311 12.4577 13.311 12.7901 12.9881 13.1257Z" fill="#8E8E8E"/>
<path d="M8.10636 4.06805C8.93581 4.20735 9.68929 4.59992 10.2908 5.20143C10.8923 5.80294 11.2817 6.55641 11.4242 7.38587C11.459 7.59481 11.6395 7.74044 11.8452 7.74044C11.8706 7.74044 11.8927 7.73728 11.918 7.73411C12.1523 7.69612 12.3074 7.47451 12.2695 7.24024C12.0985 6.23666 11.6236 5.32173 10.8986 4.59675C10.1737 3.87177 9.25873 3.39689 8.25515 3.22594C8.02088 3.18795 7.80244 3.34307 7.76128 3.57418C7.72013 3.80529 7.87209 4.03006 8.10636 4.06805Z" fill="#8E8E8E"/>
<path d="M14.9826 7.11706C14.7008 5.46449 13.922 3.96071 12.7253 2.76401C11.5287 1.56732 10.0249 0.788521 8.3723 0.50676C8.14119 0.465604 7.92274 0.623896 7.88159 0.855004C7.8436 1.08928 7.99873 1.30772 8.233 1.34888C9.70829 1.59898 11.0538 2.29863 12.1238 3.36552C13.1939 4.43558 13.8904 5.78107 14.1405 7.25636C14.1753 7.4653 14.3558 7.61093 14.5615 7.61093C14.5869 7.61093 14.609 7.60777 14.6344 7.6046C14.8655 7.56978 15.0238 7.34817 14.9826 7.11706Z" fill="#8E8E8E"/>
</g>
<defs>
<clipPath id="clip0_1_1261">
<rect width="15" height="15" fill="white" transform="translate(0 0.5)"/>
</clipPath>
</defs>
</svg>
