<svg width="30" height="30" viewBox="0 0 30 30" fill="none" xmlns="http://www.w3.org/2000/svg">
<path d="M24.9459 0.882324H6.81883C5.94671 0.883258 5.11058 1.23012 4.49389 1.8468C3.87721 2.46348 3.53035 3.29962 3.52942 4.17174V6.17644H2.64706C2.41305 6.17644 2.18862 6.2694 2.02314 6.43488C1.85767 6.60035 1.76471 6.82478 1.76471 7.05879C1.76471 7.29281 1.85767 7.51724 2.02314 7.68271C2.18862 7.84819 2.41305 7.94115 2.64706 7.94115H3.52942V11.4706H2.64706C2.41305 11.4706 2.18862 11.5635 2.02314 11.729C1.85767 11.8945 1.76471 12.1189 1.76471 12.3529C1.76471 12.5869 1.85767 12.8114 2.02314 12.9768C2.18862 13.1423 2.41305 13.2353 2.64706 13.2353H3.52942V16.7647H2.64706C2.41305 16.7647 2.18862 16.8576 2.02314 17.0231C1.85767 17.1886 1.76471 17.413 1.76471 17.647C1.76471 17.881 1.85767 18.1055 2.02314 18.2709C2.18862 18.4364 2.41305 18.5294 2.64706 18.5294H3.52942V22.0588H2.64706C2.41305 22.0588 2.18862 22.1518 2.02314 22.3172C1.85767 22.4827 1.76471 22.7071 1.76471 22.9411C1.76471 23.1752 1.85767 23.3996 2.02314 23.5651C2.18862 23.7305 2.41305 23.8235 2.64706 23.8235H3.52942V25.8282C3.53035 26.7003 3.87721 27.5365 4.49389 28.1531C5.11058 28.7698 5.94671 29.1167 6.81883 29.1176H24.9459C25.818 29.1167 26.6541 28.7698 27.2708 28.1531C27.8875 27.5365 28.2344 26.7003 28.2353 25.8282V4.17174C28.2344 3.29962 27.8875 2.46348 27.2708 1.8468C26.6541 1.23012 25.818 0.883258 24.9459 0.882324ZM26.4706 25.8282C26.4701 26.2324 26.3093 26.62 26.0235 26.9058C25.7377 27.1917 25.3501 27.3524 24.9459 27.3529H6.81883C6.41459 27.3524 6.02705 27.1917 5.74121 26.9058C5.45538 26.62 5.29459 26.2324 5.29412 25.8282V23.8235H6.17647C6.41049 23.8235 6.63492 23.7305 6.80039 23.5651C6.96587 23.3996 7.05883 23.1752 7.05883 22.9411C7.05883 22.7071 6.96587 22.4827 6.80039 22.3172C6.63492 22.1518 6.41049 22.0588 6.17647 22.0588H5.29412V18.5294H6.17647C6.41049 18.5294 6.63492 18.4364 6.80039 18.2709C6.96587 18.1055 7.05883 17.881 7.05883 17.647C7.05883 17.413 6.96587 17.1886 6.80039 17.0231C6.63492 16.8576 6.41049 16.7647 6.17647 16.7647H5.29412V13.2353H6.17647C6.41049 13.2353 6.63492 13.1423 6.80039 12.9768C6.96587 12.8114 7.05883 12.5869 7.05883 12.3529C7.05883 12.1189 6.96587 11.8945 6.80039 11.729C6.63492 11.5635 6.41049 11.4706 6.17647 11.4706H5.29412V7.94115H6.17647C6.41049 7.94115 6.63492 7.84819 6.80039 7.68271C6.96587 7.51724 7.05883 7.29281 7.05883 7.05879C7.05883 6.82478 6.96587 6.60035 6.80039 6.43488C6.63492 6.2694 6.41049 6.17644 6.17647 6.17644H5.29412V4.17174C5.29459 3.7675 5.45538 3.37996 5.74121 3.09412C6.02705 2.80829 6.41459 2.6475 6.81883 2.64703H24.9459C25.3501 2.6475 25.7377 2.80829 26.0235 3.09412C26.3093 3.37996 26.4701 3.7675 26.4706 4.17174V25.8282Z" fill="#F15324"/>
<path d="M16.7647 14.9998C17.6373 14.9998 18.4903 14.7411 19.2158 14.2563C19.9413 13.7715 20.5068 13.0825 20.8407 12.2763C21.1746 11.4702 21.262 10.5831 21.0917 9.72734C20.9215 8.87155 20.5013 8.08544 19.8843 7.46845C19.2673 6.85145 18.4812 6.43127 17.6254 6.26104C16.7696 6.09081 15.8826 6.17818 15.0764 6.5121C14.2703 6.84601 13.5813 7.41148 13.0965 8.13699C12.6117 8.8625 12.353 9.71547 12.353 10.588C12.3544 11.7577 12.8196 12.879 13.6467 13.7061C14.4738 14.5331 15.5951 14.9984 16.7647 14.9998ZM16.7647 7.94098C17.2883 7.94098 17.8001 8.09622 18.2354 8.38709C18.6707 8.67795 19.0099 9.09136 19.2103 9.57505C19.4106 10.0587 19.4631 10.591 19.3609 11.1045C19.2588 11.6179 19.0067 12.0896 18.6365 12.4598C18.2663 12.83 17.7946 13.0821 17.2811 13.1842C16.7677 13.2864 16.2354 13.2339 15.7517 13.0336C15.2681 12.8333 14.8546 12.494 14.5638 12.0587C14.2729 11.6234 14.1177 11.1116 14.1177 10.588C14.1177 9.88599 14.3966 9.2127 14.893 8.71628C15.3894 8.21986 16.0627 7.94098 16.7647 7.94098Z" fill="#F15324"/>
<path d="M16.7647 15.8823C14.8932 15.8844 13.099 16.6288 11.7757 17.9521C10.4523 19.2755 9.70797 21.0697 9.70587 22.9411C9.70587 23.1752 9.79883 23.3996 9.96431 23.5651C10.1298 23.7305 10.3542 23.8235 10.5882 23.8235H22.9412C23.1752 23.8235 23.3996 23.7305 23.5651 23.5651C23.7306 23.3996 23.8235 23.1752 23.8235 22.9411C23.8214 21.0697 23.077 19.2755 21.7537 17.9521C20.4304 16.6288 18.6362 15.8844 16.7647 15.8823ZM11.5438 22.0588C11.7513 20.8242 12.3897 19.703 13.3455 18.8945C14.3013 18.0859 15.5127 17.6422 16.7647 17.6422C18.0166 17.6422 19.2281 18.0859 20.1839 18.8945C21.1397 19.703 21.7781 20.8242 21.9856 22.0588H11.5438Z" fill="#F15324"/>
</svg>
