<svg width="20" height="20" viewBox="0 0 20 20" fill="none" xmlns="http://www.w3.org/2000/svg">
<g clip-path="url(#clip0_1_1108)">
<path d="M18.6874 1.3125C18.1874 0.875 17.5624 0.625 16.8749 0.625H11.4999C10.7499 0.625 9.99992 0.9375 9.43742 1.5L1.49992 9.4375C0.999917 10 0.687417 10.6875 0.624917 11.375C0.562417 12.125 0.812417 12.8125 1.31242 13.3125L6.68742 18.6875C7.12492 19.125 7.74992 19.375 8.43742 19.375C9.18742 19.375 9.93742 19.0625 10.4999 18.5L18.4374 10.5625C18.9999 10 19.3124 9.25 19.3124 8.5L19.3749 3.125C19.3749 2.4375 19.1249 1.8125 18.6874 1.3125ZM18.1249 8.5C18.1249 8.9375 17.9374 9.375 17.6249 9.6875L9.68742 17.625C9.37492 17.9375 8.93742 18.125 8.49992 18.125C8.12492 18.125 7.81242 18 7.62492 17.75L2.24992 12.375C1.99992 12.1875 1.87492 11.8125 1.87492 11.4375C1.87492 11 2.06242 10.625 2.37492 10.3125L10.3124 2.4375C10.6249 2.0625 11.0624 1.875 11.4999 1.875H16.8749C17.2499 1.875 17.5624 2 17.7499 2.25C17.9999 2.4375 18.1249 2.75 18.1249 3.125V8.5Z" fill="#00040D"/>
<path d="M13.1875 3.875C12.375 4.6875 12.375 6 13.1875 6.8125C13.5625 7.1875 14.125 7.4375 14.625 7.4375C15.125 7.4375 15.6875 7.25 16.0625 6.8125C16.875 6 16.875 4.6875 16.0625 3.875C15.375 3.125 14 3.125 13.1875 3.875ZM15.25 5.9375C14.9375 6.25 14.375 6.25 14.125 5.9375C13.75 5.625 13.75 5.0625 14.0625 4.75C14.1875 4.625 14.4375 4.5 14.625 4.5C14.8125 4.5 15.0625 4.5625 15.1875 4.75C15.5625 5.0625 15.5625 5.625 15.25 5.9375Z" fill="#00040D"/>
</g>
<defs>
<clipPath id="clip0_1_1108">
<rect width="20" height="20" fill="white"/>
</clipPath>
</defs>
</svg>
