<svg width="25" height="25" viewBox="0 0 25 25" fill="none" xmlns="http://www.w3.org/2000/svg">
<g clip-path="url(#clip0_1_621)">
<path d="M21.6016 24.2188H16.2891C14.8438 24.2188 13.6719 23.0469 13.6719 21.6016V14.4531C13.6719 14.0234 14.0234 13.6719 14.4531 13.6719H21.6016C23.0469 13.6719 24.2188 14.8438 24.2188 16.2891V21.6016C24.2188 23.0469 23.0469 24.2188 21.6016 24.2188ZM15.2344 15.2344V21.6016C15.2344 22.1875 15.7031 22.6562 16.2891 22.6562H21.6016C22.1875 22.6562 22.6562 22.1875 22.6562 21.6016V16.2891C22.6562 15.7031 22.1875 15.2344 21.6016 15.2344H15.2344Z" fill="#8E8E8E"/>
<path d="M8.71094 24.2188H3.39844C1.95312 24.2188 0.78125 23.0469 0.78125 21.6016V16.2891C0.78125 14.8438 1.95312 13.6719 3.39844 13.6719H10.5469C10.9766 13.6719 11.3281 14.0234 11.3281 14.4531V21.6016C11.3281 23.0469 10.1562 24.2188 8.71094 24.2188ZM3.39844 15.2344C2.8125 15.2344 2.34375 15.7031 2.34375 16.2891V21.6016C2.34375 22.1875 2.8125 22.6562 3.39844 22.6562H8.71094C9.29688 22.6562 9.76562 22.1875 9.76562 21.6016V15.2344H3.39844Z" fill="#8E8E8E"/>
<path d="M21.6016 11.3281H14.4531C14.0234 11.3281 13.6719 10.9766 13.6719 10.5469V3.39844C13.6719 1.95312 14.8438 0.78125 16.2891 0.78125H21.6016C23.0469 0.78125 24.2188 1.95312 24.2188 3.39844V8.71094C24.2188 10.1562 23.0469 11.3281 21.6016 11.3281ZM15.2344 9.76562H21.6016C22.1875 9.76562 22.6562 9.29688 22.6562 8.71094V3.39844C22.6562 2.8125 22.1875 2.34375 21.6016 2.34375H16.2891C15.7031 2.34375 15.2344 2.8125 15.2344 3.39844V9.76562Z" fill="#8E8E8E"/>
<path d="M10.5469 11.3281H3.39844C1.95312 11.3281 0.78125 10.1562 0.78125 8.71094V3.39844C0.78125 1.95312 1.95312 0.78125 3.39844 0.78125H8.71094C10.1562 0.78125 11.3281 1.95312 11.3281 3.39844V10.5469C11.3281 10.9766 10.9766 11.3281 10.5469 11.3281ZM3.39844 2.34375C2.8125 2.34375 2.34375 2.8125 2.34375 3.39844V8.71094C2.34375 9.29688 2.8125 9.76562 3.39844 9.76562H9.76562V3.39844C9.76562 2.8125 9.29688 2.34375 8.71094 2.34375H3.39844Z" fill="#8E8E8E"/>
</g>
<defs>
<clipPath id="clip0_1_621">
<rect width="25" height="25" fill="white"/>
</clipPath>
</defs>
</svg>
