<svg width="25" height="25" viewBox="0 0 25 25" fill="none" xmlns="http://www.w3.org/2000/svg">
<g clip-path="url(#clip0_1_682)">
<path d="M4.65304 16.9362L4.65306 16.9362C4.76451 16.8247 4.82708 16.6736 4.82708 16.516V9.11299C4.82708 4.87538 8.26238 1.44008 12.5 1.44008C16.7376 1.44008 20.1729 4.87538 20.1729 9.11299V16.516C20.1729 16.6736 20.2355 16.8247 20.347 16.9362C20.4584 17.0476 20.6096 17.1103 20.7672 17.1103H22.1406C22.919 17.1103 23.6655 16.801 24.216 16.2506C24.7664 15.7002 25.0756 14.9536 25.0756 14.1752V11.9724C25.0756 11.194 24.7664 10.4474 24.216 9.89701C23.6655 9.34657 22.919 9.03735 22.1406 9.03735H21.2498C21.2091 4.23961 17.3073 0.362891 12.5 0.362891C7.6927 0.362891 3.79083 4.23961 3.75021 9.03735H2.85939C2.08097 9.03735 1.33443 9.34657 0.784003 9.897C0.233573 10.4474 -0.075647 11.194 -0.075647 11.9724V14.1752C-0.075647 14.9536 0.233573 15.7002 0.784003 16.2506C1.33443 16.801 2.08097 17.1103 2.85939 17.1103H2.86214C2.93719 20.3782 5.60999 23.0044 8.89619 23.0044H9.66521C9.90485 23.943 10.7558 24.637 11.769 24.637H13.231C14.4301 24.637 15.4021 23.6649 15.4021 22.4658C15.4021 21.2667 14.4301 20.2947 13.231 20.2947H11.769C11.1932 20.2947 10.6409 20.5234 10.2338 20.9306C9.95615 21.2082 9.76146 21.5533 9.66571 21.9272H8.89619C6.20516 21.9272 4.01477 19.7835 3.93972 17.1103H4.23283C4.39047 17.1103 4.54157 17.0476 4.65304 16.9362ZM13.231 21.3719C13.8352 21.3719 14.3249 21.8616 14.3249 22.4658C14.3249 23.07 13.8352 23.5598 13.231 23.5598H11.769C11.1648 23.5598 10.675 23.07 10.675 22.4658C10.675 22.1757 10.7903 21.8975 10.9955 21.6923C11.2006 21.4871 11.4788 21.3719 11.769 21.3719H13.231ZM2.85939 10.1145H3.74989V16.0331H2.85939C2.36666 16.0331 1.8941 15.8373 1.5457 15.4889C1.1973 15.1405 1.00155 14.6679 1.00155 14.1752V11.9724C1.00155 11.4797 1.1973 11.0071 1.5457 10.6587C1.8941 10.3103 2.36666 10.1145 2.85939 10.1145ZM21.2501 16.0331V10.1145H22.1406C22.6333 10.1145 23.1059 10.3103 23.4543 10.6587L23.525 10.588L23.4543 10.6587C23.8027 11.0071 23.9984 11.4797 23.9984 11.9724V14.1752C23.9984 14.668 23.8027 15.1405 23.4543 15.4889L23.525 15.5596L23.4543 15.4889C23.1059 15.8373 22.6333 16.0331 22.1406 16.0331H21.2501Z" fill="#8E8E8E" stroke="#8E8E8E" stroke-width="0.2"/>
</g>
<defs>
<clipPath id="clip0_1_682">
<rect width="25" height="25" fill="white"/>
</clipPath>
</defs>
</svg>
