<svg width="25" height="25" viewBox="0 0 25 25" fill="none" xmlns="http://www.w3.org/2000/svg">
<path d="M14.1705 17.6137C13.9149 17.6375 13.6583 17.5798 13.4375 17.4489C13.2762 17.2832 13.1988 17.0533 13.2273 16.8239C13.2333 16.6329 13.2561 16.4427 13.2955 16.2557C13.3336 16.0412 13.3829 15.8288 13.4432 15.6193L14.1136 13.3125C14.1828 13.0848 14.2285 12.8506 14.25 12.6136C14.25 12.358 14.2841 12.1818 14.2841 12.0795C14.2983 11.6238 14.1038 11.1865 13.7557 10.892C13.3275 10.5633 12.7943 10.4018 12.2557 10.4375C11.8697 10.4433 11.4867 10.5065 11.1193 10.625C10.7178 10.75 10.2954 10.8996 9.85225 11.0739L9.65909 11.8239C9.78975 11.7784 9.94888 11.7273 10.1307 11.6705C10.3041 11.6191 10.4839 11.5923 10.6648 11.5909C10.9185 11.5634 11.1738 11.6257 11.3863 11.767C11.5307 11.9393 11.5984 12.163 11.5738 12.3864C11.5732 12.5774 11.5523 12.7679 11.5113 12.9545C11.4715 13.1534 11.4204 13.3636 11.3579 13.5852L10.6818 15.9034C10.6273 16.1188 10.5837 16.3369 10.5511 16.5568C10.5246 16.745 10.5113 16.9349 10.5113 17.1249C10.5086 17.5838 10.7184 18.0181 11.0795 18.3011C11.5143 18.6349 12.0551 18.8004 12.6022 18.767C12.9875 18.7749 13.3714 18.7192 13.7386 18.6022C14.0606 18.4923 14.4905 18.3352 15.0284 18.1306L15.2102 17.4147C15.0645 17.4751 14.9145 17.5245 14.7613 17.5624C14.5677 17.6066 14.3689 17.6238 14.1705 17.6137Z" fill="#8E8E8E" stroke="#8E8E8E" stroke-width="0.2"/>
<path d="M14.8807 6.67616C14.5714 6.39217 14.164 6.23939 13.7443 6.25003C13.3248 6.24056 12.9178 6.3932 12.6079 6.67616C12.0399 7.1659 11.9765 8.02337 12.4663 8.59139C12.51 8.64203 12.5573 8.68934 12.6079 8.73299C13.255 9.31175 14.2336 9.31175 14.8806 8.73299C15.4486 8.23841 15.5081 7.37708 15.0135 6.80911C14.9724 6.7618 14.928 6.71737 14.8807 6.67616Z" fill="#8E8E8E" stroke="#8E8E8E" stroke-width="0.2"/>
<path d="M12.5 0C5.59644 0 0 5.59644 0 12.5C0 19.4036 5.59644 25 12.5 25C19.4036 25 25 19.4036 25 12.5C25 5.59644 19.4036 0 12.5 0ZM12.5 23.8636C6.22402 23.8636 1.13638 18.776 1.13638 12.5C1.13638 6.22402 6.22402 1.13638 12.5 1.13638C18.776 1.13638 23.8636 6.22402 23.8636 12.5C23.8636 18.776 18.776 23.8636 12.5 23.8636Z" fill="#8E8E8E" stroke="#8E8E8E" stroke-width="0.2"/>
</svg>
