<svg width="25" height="25" viewBox="0 0 25 25" fill="none" xmlns="http://www.w3.org/2000/svg">
<path d="M3.396 18.8477H1.75781C1.48813 18.8477 1.26953 19.0663 1.26953 19.3359V22.5586C1.26953 22.8283 1.48813 23.0469 1.75781 23.0469H2.73438V24.5117C2.73438 24.7814 2.95298 25 3.22266 25H23.2422C23.5118 25 23.7305 24.7814 23.7305 24.5117V0.488281C23.7305 0.218604 23.5118 0 23.2422 0H17.627C17.3573 0 17.1387 0.218604 17.1387 0.488281C17.1387 0.757959 17.3573 0.976562 17.627 0.976562H22.7539V24.0234H11.5234V23.0469H12.5C12.7696 23.0469 12.9883 22.8283 12.9883 22.5586V19.3359C12.9883 19.0663 12.7696 18.8477 12.5 18.8477H10.6689C9.89556 18.8477 9.48359 18.0866 9.34238 17.7594C8.89702 16.7274 9.0168 15.466 9.62075 14.8253C10.218 14.1925 10.5469 13.3667 10.5469 12.5C10.5469 10.7812 9.27134 9.35518 7.61719 9.11748V0.976562H13.2324C13.5021 0.976562 13.7207 0.757959 13.7207 0.488281C13.7207 0.218604 13.5021 0 13.2324 0H7.12891C6.85923 0 6.64062 0.218604 6.64062 0.488281V9.11728C5.18037 9.3209 4.07329 10.4377 3.79111 11.7526C3.55205 12.8677 3.85303 13.9799 4.61704 14.8042C5.32573 15.5686 5.27676 16.7495 4.91387 17.5808C4.64648 18.1932 4.10732 18.8477 3.396 18.8477ZM10.5469 24.0234H3.71094V23.0469H10.5469V24.0234ZM12.0117 22.0703H2.24609V19.8242H12.0117V22.0703ZM4.74595 11.9574C4.96133 10.9538 5.89619 10.0586 7.12891 10.0586C8.4751 10.0586 9.57031 11.1538 9.57031 12.5C9.57031 13.1165 9.33599 13.7042 8.9103 14.1553C7.92539 15.2 7.93105 16.9538 8.4457 18.1463C8.55879 18.4084 8.69316 18.6429 8.84551 18.8477H5.27749C5.48438 18.5962 5.6645 18.302 5.80884 17.9714C6.40708 16.6011 6.22036 15.0972 5.3332 14.1403C4.78857 13.5526 4.57451 12.757 4.74595 11.9574Z" fill="#8E8E8E"/>
<path d="M17.3828 15.2344C15.4981 15.2344 13.9648 16.7677 13.9648 18.6523C13.9648 20.537 15.4981 22.0703 17.3828 22.0703C19.2675 22.0703 20.8008 20.537 20.8008 18.6523C20.8008 16.7677 19.2675 15.2344 17.3828 15.2344ZM17.3828 21.0938C16.0366 21.0938 14.9414 19.9985 14.9414 18.6523C14.9414 17.3062 16.0366 16.2109 17.3828 16.2109C18.729 16.2109 19.8242 17.3062 19.8242 18.6523C19.8242 19.9985 18.729 21.0938 17.3828 21.0938Z" fill="#8E8E8E"/>
<path d="M14.4531 3.22266H10.0586C9.78892 3.22266 9.57031 3.44126 9.57031 3.71094C9.57031 3.98062 9.78892 4.19922 10.0586 4.19922H14.4531C14.7228 4.19922 14.9414 3.98062 14.9414 3.71094C14.9414 3.44126 14.7228 3.22266 14.4531 3.22266Z" fill="#8E8E8E"/>
<path d="M9.57031 6.64062C9.57031 6.9103 9.78892 7.12891 10.0586 7.12891H20.3125C20.5821 7.12891 20.8008 6.9103 20.8008 6.64062C20.8008 6.37095 20.5821 6.15234 20.3125 6.15234H10.0586C9.78892 6.15234 9.57031 6.37095 9.57031 6.64062Z" fill="#8E8E8E"/>
<path d="M20.3125 9.08203H12.9883C12.7187 9.08203 12.5 9.30063 12.5 9.57031C12.5 9.83999 12.7187 10.0586 12.9883 10.0586H20.3125C20.5821 10.0586 20.8008 9.83999 20.8008 9.57031C20.8008 9.30063 20.5821 9.08203 20.3125 9.08203Z" fill="#8E8E8E"/>
<path d="M20.3125 12.0117H12.9883C12.7187 12.0117 12.5 12.2303 12.5 12.5C12.5 12.7697 12.7187 12.9883 12.9883 12.9883H20.3125C20.5821 12.9883 20.8008 12.7697 20.8008 12.5C20.8008 12.2303 20.5821 12.0117 20.3125 12.0117Z" fill="#8E8E8E"/>
<path d="M15.4297 0.976562C15.6994 0.976562 15.918 0.757952 15.918 0.488281C15.918 0.218611 15.6994 0 15.4297 0C15.16 0 14.9414 0.218611 14.9414 0.488281C14.9414 0.757952 15.16 0.976562 15.4297 0.976562Z" fill="#8E8E8E"/>
</svg>
