<svg width="25" height="25" viewBox="0 0 25 25" fill="none" xmlns="http://www.w3.org/2000/svg">
<g clip-path="url(#clip0_1_633)">
<path d="M21.4531 11.3468H20.1726L19.8649 9.02654C19.8097 8.61233 19.453 8.29993 19.0353 8.29993H18.5325V7.59421C18.5325 6.74026 17.8376 6.04539 16.9836 6.04539C16.1297 6.04539 15.4348 6.74026 15.4348 7.59421V8.29998H15.2707L15.1655 7.63249C15.1103 7.28157 14.8125 7.02693 14.4575 7.02693H14.1504V6.71545C14.1504 5.8615 13.4555 5.16663 12.6016 5.16663C12.416 5.16663 12.2387 5.20115 12.0737 5.26125C11.9086 5.20115 11.7314 5.16663 11.5458 5.16663C10.6918 5.16663 9.99697 5.8615 9.99697 6.71545V7.02693H9.73095C9.35663 7.02693 9.0498 7.30803 9.01684 7.68098L8.69384 11.3468H7.34345L7.26992 10.7057C7.1892 10.0021 6.59409 9.47141 5.88603 9.47141H4.71489V9.32576C4.71489 9.02634 4.47138 8.78284 4.17197 8.78284H1.377C1.07758 8.78284 0.834076 9.02634 0.834076 9.32576V10.0921C0.834076 10.3915 1.07758 10.6352 1.377 10.6352H4.17197C4.47138 10.6352 4.71489 10.3915 4.71489 10.0921V9.94641H5.88613C6.35278 9.94641 6.74496 10.2962 6.79829 10.76C6.81909 10.9416 6.75336 10.3686 7.87651 20.1624C7.9579 20.8739 8.55654 21.4072 9.27133 21.4072H9.2829C11.4584 21.3898 16.702 21.3531 18.4109 21.3867C18.5523 21.39 18.6502 21.2849 18.653 21.1539C18.6556 21.0228 18.5515 20.9143 18.4202 20.9117C16.7053 20.8779 11.4563 20.9148 9.27919 20.9322C9.27641 20.9322 9.27387 20.9322 9.27133 20.9322C8.84677 20.9322 8.48637 20.6467 8.37753 20.2477L19.4146 19.3757C19.6637 19.3559 19.872 19.1889 19.9451 18.9498L22.031 12.1279C22.1499 11.7391 21.8598 11.3468 21.4531 11.3468ZM4.23994 10.0921C4.23994 10.1296 4.20956 10.1602 4.17197 10.1602H1.377C1.33945 10.1602 1.30903 10.1296 1.30903 10.0921V9.32576C1.30903 9.28821 1.3394 9.25779 1.377 9.25779H4.17197C4.20952 9.25779 4.23994 9.28816 4.23994 9.32576V10.0921ZM15.9098 7.59421C15.9098 7.00212 16.3915 6.52039 16.9836 6.52039C17.5757 6.52039 18.0575 7.00207 18.0575 7.59421V8.29998H15.9098V7.59421ZM14.932 8.77493H15.4348V9.1509C15.4348 9.28215 15.541 9.3884 15.6723 9.3884C15.8036 9.3884 15.9098 9.2822 15.9098 9.1509V8.77493H18.0575V9.1509C18.0575 9.28215 18.1637 9.3884 18.295 9.3884C18.4262 9.3884 18.5325 9.2822 18.5325 9.1509V8.77493H19.0353C19.216 8.77493 19.3702 8.91013 19.3941 9.08918L19.6935 11.3468H14.2741L14.5734 9.08918V9.08894C14.5971 8.90994 14.7513 8.77493 14.932 8.77493ZM13.6754 6.7154V7.02688H13.0947V6.7154C13.0947 6.30164 12.9306 5.92615 12.6653 5.64802C13.2273 5.68171 13.6754 6.14509 13.6754 6.7154ZM11.5278 6.7154C11.5278 6.31609 11.7495 5.97102 12.0737 5.78606C12.398 5.97102 12.6197 6.31609 12.6197 6.7154V7.02688H11.5278V6.7154ZM10.472 6.7154C10.472 6.14509 10.9202 5.68171 11.4822 5.64802C11.2168 5.92615 11.0528 6.30164 11.0528 6.7154V7.02688H10.472V6.7154ZM11.0528 7.50188V8.27209C11.0528 8.40334 11.159 8.50959 11.2903 8.50959C11.4215 8.50959 11.5278 8.40339 11.5278 8.27209V7.50188H13.6754V8.27209C13.6754 8.40334 13.7816 8.50959 13.9129 8.50959C14.0442 8.50959 14.1504 8.40339 14.1504 8.27209V7.50188H14.4575C14.5772 7.50188 14.6776 7.58792 14.6962 7.70623L14.7918 8.31296C14.4368 8.3738 14.1512 8.65974 14.1027 9.02683V9.02659L13.795 11.3468H10.8169L10.3715 7.50193L11.0528 7.50188ZM9.49003 7.72268C9.50117 7.59675 9.60483 7.50188 9.731 7.50188H9.89335L10.3388 11.3468H9.1707L9.49003 7.72268ZM21.5769 11.9892L19.491 18.8109C19.4752 18.8622 19.4307 18.8979 19.3774 18.9021L8.3103 19.7764C8.07792 17.7499 7.631 13.8526 7.39814 11.8218H21.4531C21.5397 11.8218 21.6024 11.9049 21.5769 11.9892Z" fill="#8E8E8E" stroke="#8E8E8E" stroke-width="0.4"/>
<path d="M10.4707 21.8542C9.71108 21.8542 9.09326 22.4721 9.09326 23.2314C9.09326 23.991 9.71113 24.6089 10.4707 24.6089C11.23 24.6089 11.8479 23.991 11.8479 23.2314C11.8479 22.4721 11.23 21.8542 10.4707 21.8542ZM10.4707 24.1339C9.97295 24.1339 9.56821 23.7291 9.56821 23.2314C9.56821 22.734 9.97295 22.3292 10.4707 22.3292C10.9681 22.3292 11.3729 22.734 11.3729 23.2314C11.3729 23.7291 10.9681 24.1339 10.4707 24.1339Z" fill="#8E8E8E" stroke="#8E8E8E" stroke-width="0.4"/>
<path d="M16.4637 21.8542C15.7041 21.8542 15.0862 22.4721 15.0862 23.2314C15.0862 23.991 15.7041 24.6089 16.4637 24.6089C17.223 24.6089 17.8409 23.991 17.8409 23.2314C17.8408 22.4721 17.223 21.8542 16.4637 21.8542ZM16.4637 24.1339C15.9659 24.1339 15.5612 23.7291 15.5612 23.2314C15.5612 22.734 15.9659 22.3292 16.4637 22.3292C16.9611 22.3292 17.3659 22.734 17.3659 23.2314C17.3659 23.7291 16.9611 24.1339 16.4637 24.1339Z" fill="#8E8E8E" stroke="#8E8E8E" stroke-width="0.4"/>
<path d="M18.2681 13.8708H10.684C10.2552 13.8708 9.90616 14.2197 9.90616 14.6485C9.90616 15.0773 10.2552 15.4264 10.684 15.4264H18.2681C18.6969 15.4264 19.046 15.0773 19.046 14.6485C19.046 14.2197 18.6969 13.8708 18.2681 13.8708ZM18.2681 14.9514H10.684C10.517 14.9514 10.3812 14.8155 10.3812 14.6485C10.3812 14.4815 10.517 14.3458 10.684 14.3458H18.2681C18.4351 14.3458 18.571 14.4815 18.571 14.6485C18.571 14.8155 18.435 14.9514 18.2681 14.9514Z" fill="#8E8E8E" stroke="#8E8E8E" stroke-width="0.4"/>
<path d="M17.206 16.1892H11.746C11.3171 16.1892 10.9681 16.5383 10.9681 16.9671C10.9681 17.3959 11.3172 17.745 11.746 17.745H17.206C17.6349 17.745 17.9839 17.3959 17.9839 16.9671C17.9839 16.5383 17.6349 16.1892 17.206 16.1892ZM17.206 17.27H11.746C11.579 17.27 11.4431 17.1341 11.4431 16.9671C11.4431 16.8001 11.579 16.6642 11.746 16.6642H17.206C17.373 16.6642 17.5089 16.8001 17.5089 16.9671C17.5089 17.1341 17.373 17.27 17.206 17.27Z" fill="#8E8E8E" stroke="#8E8E8E" stroke-width="0.4"/>
<path d="M22.0137 0.48468C21.9241 0.359924 21.7163 0.359924 21.6268 0.48468L19.5188 3.43942C19.4674 3.51178 19.4604 3.60709 19.5012 3.68619C19.5418 3.7653 19.6234 3.8149 19.7122 3.8149H20.4326V9.15084C20.4326 9.28209 20.5388 9.38834 20.6701 9.38834H22.9706C23.1018 9.38834 23.2081 9.28214 23.2081 9.15084V3.8149H23.9284C24.0173 3.8149 24.0989 3.7653 24.1395 3.68619C24.1803 3.60709 24.1733 3.51178 24.1219 3.43942L22.0137 0.48468ZM22.9706 3.33995C22.8393 3.33995 22.7331 3.44615 22.7331 3.57745V8.91339H20.9076V3.5774C20.9076 3.44615 20.8014 3.3399 20.6701 3.3399H20.1733L21.8202 1.03156L23.4672 3.3399L22.9706 3.33995Z" fill="#8E8E8E" stroke="#8E8E8E" stroke-width="0.4"/>
</g>
<defs>
<clipPath id="clip0_1_633">
<rect width="25" height="25" fill="white"/>
</clipPath>
</defs>
</svg>
