<svg width="25" height="25" viewBox="0 0 25 25" fill="none" xmlns="http://www.w3.org/2000/svg">
<g clip-path="url(#clip0_1_644)">
<path d="M24.6094 12.5C24.6094 12.4219 24.5859 12.3456 24.5422 12.281C24.4984 12.2163 24.4363 12.1662 24.3638 12.1372L16.9697 9.17969L24.3638 6.22217C24.4363 6.19321 24.4985 6.14316 24.5423 6.07849C24.5862 6.01382 24.6096 5.93749 24.6096 5.85937C24.6096 5.78125 24.5862 5.70493 24.5423 5.64026C24.4985 5.57559 24.4363 5.52554 24.3638 5.49658L12.645 0.809081C12.5519 0.771973 12.4481 0.771973 12.355 0.809081L0.636229 5.49658C0.563676 5.52554 0.501473 5.57559 0.457653 5.64026C0.413834 5.70493 0.390411 5.78125 0.390411 5.85937C0.390411 5.93749 0.413834 6.01382 0.457653 6.07849C0.501473 6.14316 0.563676 6.19321 0.636229 6.22217L8.03027 9.17969L0.636229 12.1372C0.563676 12.1662 0.501473 12.2162 0.457653 12.2809C0.413834 12.3456 0.390411 12.4219 0.390411 12.5C0.390411 12.5781 0.413834 12.6544 0.457653 12.7191C0.501473 12.7838 0.563676 12.8338 0.636229 12.8628L8.03027 15.8203L0.636229 18.7778C0.563676 18.8068 0.501473 18.8568 0.457653 18.9215C0.413834 18.9862 0.390411 19.0625 0.390411 19.1406C0.390411 19.2187 0.413834 19.2951 0.457653 19.3597C0.501473 19.4244 0.563676 19.4745 0.636229 19.5034L12.355 24.1909C12.4481 24.228 12.5519 24.228 12.645 24.1909L24.3638 19.5034C24.4363 19.4745 24.4985 19.4244 24.5423 19.3597C24.5862 19.2951 24.6096 19.2187 24.6096 19.1406C24.6096 19.0625 24.5862 18.9862 24.5423 18.9215C24.4985 18.8568 24.4363 18.8068 24.3638 18.7778L16.9697 15.8203L24.3638 12.8628C24.4363 12.8338 24.4984 12.7837 24.5422 12.719C24.5859 12.6544 24.6094 12.5781 24.6094 12.5ZM1.83301 5.85937L12.5 1.59277L23.167 5.85937L12.5 10.126L1.83301 5.85937ZM23.167 19.1406L12.5 23.4072L1.83301 19.1406L9.08203 16.2412L12.355 17.5503C12.4481 17.5874 12.5519 17.5874 12.645 17.5503L15.918 16.2412L23.167 19.1406ZM12.5 16.7666L1.83301 12.5L9.08203 9.60058L12.355 10.9097C12.4481 10.9468 12.5519 10.9468 12.645 10.9097L15.918 9.60058L23.167 12.5L12.5 16.7666Z" fill="#8E8E8E" stroke="#8E8E8E" stroke-width="0.5"/>
</g>
<defs>
<clipPath id="clip0_1_644">
<rect width="25" height="25" fill="white"/>
</clipPath>
</defs>
</svg>
