<svg width="25" height="25" viewBox="0 0 25 25" fill="none" xmlns="http://www.w3.org/2000/svg">
<path d="M20.2884 12.6114V6.42603C20.2884 6.26494 20.1895 6.12036 20.0393 6.06196L10.2979 2.27427C10.2068 2.23882 10.1058 2.23882 10.0147 2.27427L0.273486 6.06196C0.12334 6.12036 0.0244141 6.26494 0.0244141 6.42603V17.6744C0.0244141 17.8354 0.123291 17.98 0.273486 18.0384L10.0148 21.8261C10.0604 21.8438 10.1083 21.8527 10.1563 21.8527C10.2043 21.8527 10.2524 21.8438 10.2979 21.8261L15.321 19.873C16.1419 21.575 17.885 22.7522 19.8977 22.7522C22.6977 22.7522 24.9755 20.4743 24.9755 17.6744C24.9756 15.0058 22.9065 12.8115 20.2884 12.6114ZM10.1563 9.79463L8.00942 8.95986C10.8974 7.83711 13.7851 6.71421 16.6729 5.59126L18.8199 6.42603L10.1563 9.79463ZM4.71763 7.67988L13.3809 4.31118L15.5951 5.17212C12.7072 6.29507 9.81943 7.41802 6.93159 8.54072L4.71763 7.67988ZM4.03042 8.25088L6.54097 9.22705V11.099L5.46753 10.1847C5.36548 10.0978 5.22622 10.0693 5.09824 10.109L4.03047 10.4411L4.03042 8.25088ZM10.1563 3.05742L12.303 3.89209L3.63979 7.26079L1.49292 6.42603L10.1563 3.05742ZM0.805664 6.99702L3.24917 7.94712V10.796C3.24917 10.9609 3.32832 11.1176 3.46084 11.2151C3.59346 11.3126 3.76646 11.3415 3.92363 11.2925L5.1248 10.919L6.46494 12.0604C6.56074 12.142 6.6813 12.1845 6.80298 12.1845C6.87676 12.1845 6.95093 12.1689 7.02017 12.137C7.20366 12.0522 7.32227 11.8669 7.32227 11.6646V9.53086L9.76577 10.481V20.8911L0.805664 17.4072V6.99702ZM10.547 20.8911V10.481L19.5071 6.99702V12.6114C16.889 12.8115 14.8199 15.0059 14.8199 17.6744C14.8199 18.1856 14.8962 18.6793 15.0374 19.1451L10.547 20.8911ZM19.8978 21.9709C17.5286 21.9709 15.6012 20.0435 15.6012 17.6744C15.6012 15.3052 17.5286 13.3777 19.8978 13.3777C22.2669 13.3777 24.1943 15.3052 24.1943 17.6744C24.1943 20.0435 22.2669 21.9709 19.8978 21.9709ZM22.9096 15.2606C22.7074 15.0585 22.4387 14.9473 22.1529 14.9473C21.8671 14.9473 21.5984 15.0585 21.3962 15.2606L18.9294 17.7276L18.2542 16.8779C18.0502 16.6214 17.7451 16.4742 17.4171 16.4742C17.1768 16.4742 16.9408 16.5567 16.7524 16.7064C16.529 16.884 16.388 17.1381 16.3557 17.4217C16.3232 17.7054 16.4033 17.9847 16.5809 18.2081L17.9686 19.9543C18.1694 20.2346 18.4942 20.4015 18.8399 20.4015C19.125 20.4015 19.3933 20.2902 19.5954 20.0881L22.9096 16.7739C23.3268 16.3567 23.3268 15.6778 22.9096 15.2606ZM22.3571 16.2215L19.0429 19.5357C18.973 19.6056 18.8939 19.6203 18.8398 19.6203C18.7433 19.6203 18.6564 19.575 18.6014 19.4962C18.5967 19.4895 18.5919 19.4831 18.5869 19.4768L17.1924 17.722C17.1446 17.6619 17.1231 17.5867 17.1318 17.5104C17.1405 17.4341 17.1785 17.3658 17.2386 17.318C17.3036 17.2663 17.3715 17.2555 17.4171 17.2555C17.5056 17.2555 17.5877 17.2951 17.6426 17.364L18.5901 18.5564C18.6594 18.6436 18.7625 18.6971 18.8737 18.7034C18.9853 18.71 19.0935 18.6684 19.1722 18.5896L21.9486 15.8131C22.0032 15.7585 22.0758 15.7285 22.1529 15.7285C22.2301 15.7285 22.3026 15.7585 22.3571 15.8131C22.4698 15.9257 22.4698 16.1089 22.3571 16.2215Z" fill="#8E8E8E"/>
</svg>
