<svg width="25" height="25" viewBox="0 0 25 25" fill="none" xmlns="http://www.w3.org/2000/svg">
<path d="M23.9191 4.93657C23.2187 3.8259 22.1929 2.95819 20.9814 2.45171C19.6088 1.87553 18.067 1.77182 16.523 2.15254C15.108 2.50146 13.7298 3.25825 12.5 4.3561C11.2701 3.25815 9.89169 2.50131 8.47655 2.15244C6.93246 1.77158 5.39061 1.87539 4.01796 2.45195C2.80648 2.95859 1.7807 3.82647 1.08041 4.9373C0.347009 6.09668 -0.0260872 7.50659 0.00145191 9.01445C0.123718 15.7178 10.1092 21.8134 12.1097 22.9673C12.2284 23.0358 12.363 23.0718 12.5 23.0718C12.637 23.0718 12.7717 23.0358 12.8904 22.9673C14.8911 21.8132 24.8774 15.7166 24.9986 9.01328C25.0258 7.50551 24.6526 6.09575 23.9191 4.93657ZM23.4364 8.9852C23.3973 11.1526 21.9525 13.6795 19.2585 16.2926C16.7636 18.7124 13.9258 20.5363 12.5 21.385C11.0742 20.5365 8.2368 18.7128 5.74217 16.2929C3.04803 13.68 1.60321 11.1533 1.56366 8.98593C1.52049 6.61938 2.6642 4.71533 4.62303 3.89253C5.26501 3.62438 5.95422 3.48761 6.64994 3.49028C8.44657 3.49028 10.3471 4.36001 11.9429 5.98276C12.0156 6.05669 12.1023 6.1154 12.1979 6.15548C12.2936 6.19556 12.3962 6.2162 12.4999 6.2162C12.6036 6.2162 12.7063 6.19556 12.8019 6.15548C12.8975 6.1154 12.9842 6.05669 13.0569 5.98276C15.274 3.72837 18.0789 2.92744 20.3763 3.89238C22.3353 4.71489 23.4791 6.61865 23.4364 8.98505V8.9852Z" fill="#8E8E8E"/>
</svg>
