<svg width="25" height="25" viewBox="0 0 25 25" fill="none" xmlns="http://www.w3.org/2000/svg">
<path d="M5.20832 8.073C5.0645 8.073 4.94791 8.18959 4.94791 8.33341V21.8751C4.94791 22.0189 5.0645 22.1355 5.20832 22.1355H19.7917C19.9355 22.1355 20.0521 22.0189 20.0521 21.8751V8.33341C20.0521 8.18959 19.9355 8.073 19.7917 8.073H5.20832ZM3.38541 8.33341C3.38541 7.32664 4.20155 6.5105 5.20832 6.5105H19.7917C20.7984 6.5105 21.6146 7.32664 21.6146 8.33341V21.8751C21.6146 22.8819 20.7984 23.698 19.7917 23.698H5.20832C4.20155 23.698 3.38541 22.8819 3.38541 21.8751V8.33341Z" fill="#8E8E8E"/>
<path d="M12.5 2.86462C10.9179 2.86462 9.63541 4.14715 9.63541 5.72921V9.37504C9.63541 9.80651 9.28563 10.1563 8.85416 10.1563C8.42269 10.1563 8.07291 9.80651 8.07291 9.37504V5.72921C8.07291 3.2842 10.055 1.30212 12.5 1.30212C14.945 1.30212 16.9271 3.2842 16.9271 5.72921V9.37504C16.9271 9.80651 16.5773 10.1563 16.1458 10.1563C15.7144 10.1563 15.3646 9.80651 15.3646 9.37504V5.72921C15.3646 4.14715 14.0821 2.86462 12.5 2.86462Z" fill="#8E8E8E"/>
</svg>
