<svg width="25" height="25" viewBox="0 0 25 25" fill="none" xmlns="http://www.w3.org/2000/svg">
<g clip-path="url(#clip0_1_662)">
<path fill-rule="evenodd" clip-rule="evenodd" d="M7.63035 4.43761C7.49854 4.43761 7.36673 4.37903 7.2935 4.26186L6.10721 2.19684C5.85823 1.75747 6.51728 1.37669 6.76626 1.81605L7.95255 3.88108C8.09901 4.13005 7.92326 4.43761 7.63035 4.43761ZM15.246 17.106C15.0264 17.106 12.5952 16.0662 12.4927 16.0662L9.88577 17.0767C9.62215 17.1793 9.35853 16.9889 9.37317 16.7106L9.53427 13.9133L7.74751 11.7458C7.58641 11.5261 7.68893 11.2039 7.95255 11.1306L10.662 10.4277L12.1851 8.05507C12.3316 7.83539 12.6684 7.83539 12.8149 8.05507L14.338 10.4277L17.0475 11.1306C17.3111 11.2039 17.4136 11.5261 17.2378 11.7458L15.4657 13.9133L15.6268 16.7106C15.6415 16.9303 15.4657 17.106 15.246 17.106ZM12.4927 15.2753C12.6538 15.2753 14.5284 16.0369 14.836 16.1541L14.7042 13.8108C14.6895 13.7083 14.7188 13.6204 14.7774 13.5472L16.2859 11.7165L14.0012 11.116C13.8987 11.0867 13.8254 11.0428 13.7668 10.9549L12.4927 8.96309L11.2185 10.9549C11.1746 11.0428 11.0867 11.0867 10.9988 11.116L8.71412 11.7165L10.208 13.5472C10.2666 13.6204 10.2958 13.7083 10.2958 13.8108L10.164 16.1541C10.4716 16.0369 12.3316 15.2753 12.4927 15.2753ZM12.4927 20.621C8.01113 20.621 4.36438 16.9742 4.36438 12.4927C4.36438 8.01113 8.01113 4.36438 12.4927 4.36438C16.9742 4.36438 20.621 8.01113 20.621 12.4927C20.621 16.9742 16.9742 20.621 12.4927 20.621ZM12.4927 5.12595C8.43585 5.12595 5.12595 8.43585 5.12595 12.4927C5.12595 16.5641 8.43585 19.8741 12.4927 19.8741C16.5641 19.8741 19.8741 16.5641 19.8741 12.4927C19.8741 8.43585 16.5641 5.12595 12.4927 5.12595ZM12.4927 3.13416C12.2876 3.13416 12.1119 2.97305 12.1119 2.75337V0.380786C12.1119 -0.117163 12.8735 -0.117163 12.8735 0.380786V2.75337C12.8735 2.97305 12.7124 3.13416 12.4927 3.13416ZM17.3697 4.43761C17.0767 4.43761 16.8864 4.13005 17.0328 3.88108L18.2337 1.81605C18.4827 1.37669 19.1418 1.75747 18.8782 2.19684L17.6919 4.24722C17.6186 4.37903 17.5015 4.43761 17.3697 4.43761ZM20.9285 8.01113C20.5477 8.01113 20.4013 7.49854 20.7381 7.2935L22.8032 6.10721C23.2425 5.85823 23.6087 6.51728 23.184 6.76626L21.1189 7.95255C21.0603 7.99649 21.0018 8.01113 20.9285 8.01113ZM24.6192 12.8735H22.232C21.734 12.8735 21.734 12.1119 22.232 12.1119H24.6192C25.1172 12.1119 25.1172 12.8735 24.6192 12.8735ZM22.9936 18.9367C22.9203 18.9367 22.8617 18.9221 22.8032 18.8782L20.7381 17.6919C20.5624 17.5893 20.5038 17.355 20.6063 17.1793C20.7088 16.9889 20.9432 16.9303 21.1189 17.0328L23.184 18.2337C23.5208 18.4241 23.3743 18.9367 22.9936 18.9367ZM18.5559 23.3743C18.4241 23.3743 18.2923 23.3011 18.2337 23.184L17.0328 21.1189C16.7838 20.6942 17.4429 20.3134 17.6919 20.7381L18.8782 22.8032C19.0393 23.0521 18.8489 23.3743 18.5559 23.3743ZM12.4927 25C12.2876 25 12.1119 24.8243 12.1119 24.6192V22.232C12.1119 21.734 12.8735 21.734 12.8735 22.232V24.6192C12.8735 24.8243 12.7124 25 12.4927 25ZM6.44406 23.3743C6.15114 23.3743 5.96075 23.0521 6.10721 22.8032L7.2935 20.7381C7.55712 20.3134 8.20152 20.6942 7.95255 21.1189L6.76626 23.184C6.69303 23.3011 6.57587 23.3743 6.44406 23.3743ZM2.00645 18.9367C1.61101 18.9367 1.4792 18.4241 1.81605 18.2337L3.88108 17.0328C4.3058 16.7838 4.68659 17.4429 4.26186 17.6919L2.19684 18.8782C2.13826 18.9221 2.06503 18.9367 2.00645 18.9367ZM2.75337 12.8735H0.380786C-0.117163 12.8735 -0.117163 12.1119 0.380786 12.1119H2.75337C3.26597 12.1119 3.26597 12.8735 2.75337 12.8735ZM4.07147 8.01113C3.99824 8.01113 3.93966 7.99649 3.88108 7.95255L1.81605 6.76626C1.37669 6.51728 1.75747 5.85823 2.19684 6.10721L4.26186 7.2935C4.58407 7.49854 4.45226 8.01113 4.07147 8.01113Z" fill="#8E8E8E" stroke="#8E8E8E" stroke-width="0.6"/>
</g>
<defs>
<clipPath id="clip0_1_662">
<rect width="25" height="25" fill="white"/>
</clipPath>
</defs>
</svg>
