<svg width="25" height="25" viewBox="0 0 25 25" fill="none" xmlns="http://www.w3.org/2000/svg">
<g clip-path="url(#clip0_1_667)">
<path d="M24.4767 11.2119L22.7721 9.44697C22.6405 9.31118 22.5777 9.11861 22.6043 8.9315L22.9465 6.50259C23.0872 5.50664 22.4208 4.59097 21.4309 4.41773L19.0147 3.994C18.8282 3.96138 18.664 3.8419 18.5759 3.67407L17.4278 1.50835C16.9564 0.618655 15.8784 0.268557 14.9742 0.711575L12.7716 1.7896C12.6014 1.8729 12.3986 1.8729 12.2284 1.7896L10.0258 0.711575C9.12104 0.268508 8.04418 0.618606 7.57216 1.50835L6.42411 3.67407C6.33476 3.84429 6.17421 3.96021 5.9853 3.994L3.56967 4.41773C2.57914 4.59033 1.91337 5.50664 2.054 6.50196L2.39565 8.93145C2.42221 9.121 2.36186 9.30928 2.22787 9.44693L0.523285 11.2119C-0.174469 11.9338 -0.174469 13.0661 0.523285 13.788L2.22787 15.553C2.35947 15.6888 2.42221 15.8813 2.39565 16.0685L2.05341 18.4974C1.91279 19.4933 2.57914 20.409 3.56904 20.5822L5.98525 21.006C6.17177 21.0386 6.33593 21.1581 6.42407 21.3259L7.57211 23.4916C8.04413 24.3813 9.12158 24.7314 10.0258 24.2884L12.2283 23.2104C12.3985 23.1271 12.6014 23.1271 12.7716 23.2104L14.9741 24.2884C15.2391 24.4182 15.5185 24.4797 15.7938 24.4797C16.4578 24.4797 17.0946 24.1206 17.4277 23.4917L18.5758 21.3259C18.6651 21.1557 18.8257 21.0398 19.0146 21.006L21.4302 20.5823C22.4207 20.4097 23.0865 19.4934 22.9458 18.498L22.6042 16.0686C22.5776 15.879 22.638 15.6907 22.772 15.5531L24.4766 13.7881C25.1745 13.0662 25.1745 11.9338 24.4767 11.2119ZM23.5875 12.9297L21.883 14.6935C21.4828 15.1075 21.2999 15.6713 21.3802 16.2411L21.7218 18.67C21.7689 19.002 21.5468 19.3074 21.2172 19.3654L18.8004 19.7891C18.233 19.8887 17.7531 20.2382 17.4833 20.747L16.3353 22.9122C16.1784 23.2091 15.8198 23.3262 15.5174 23.1784L13.3149 22.0997C13.0601 21.9754 12.7801 21.9126 12.5 21.9126C12.22 21.9126 11.9399 21.9754 11.6852 22.1003L9.48266 23.1777C9.18144 23.3262 8.82172 23.2091 8.66479 22.9122L7.51674 20.7464C7.24692 20.237 6.76645 19.8881 6.19848 19.7891L3.78286 19.3648C3.45331 19.3068 3.23115 19.0021 3.27763 18.67L3.61987 16.2411C3.70014 15.6713 3.51723 15.1076 3.11767 14.6941L1.41249 12.9297C1.18012 12.6883 1.18012 12.3117 1.41249 12.0702L3.11708 10.3065C3.51728 9.89243 3.70014 9.32866 3.61987 8.75884L3.27822 6.32993C3.23115 5.99795 3.45327 5.69253 3.78281 5.63457L6.19965 5.21084C6.76704 5.11123 7.24692 4.76177 7.51669 4.25293L8.66474 2.0878C8.82167 1.79082 9.18144 1.67495 9.48261 1.82158L11.6852 2.90025C12.1946 3.14893 12.8054 3.14951 13.3149 2.89966L15.5174 1.82227C15.8192 1.67378 16.1784 1.79087 16.3353 2.08784L17.4833 4.25357C17.7532 4.76299 18.2336 5.11192 18.8016 5.21089L21.2172 5.63521C21.5468 5.69317 21.7689 5.99795 21.7225 6.32998L21.3802 8.75889C21.2999 9.32871 21.4829 9.89243 21.8824 10.3059L23.5876 12.0702C23.82 12.3117 23.82 12.6883 23.5875 12.9297Z" fill="#8E8E8E"/>
<path d="M16.6455 8.35443C16.4041 8.11298 16.013 8.11298 15.7715 8.35443L8.35443 15.7715C8.11298 16.013 8.11298 16.4041 8.35443 16.6455C8.47513 16.7662 8.63329 16.8266 8.79144 16.8266C8.9496 16.8266 9.10775 16.7663 9.22845 16.6455L16.6455 9.22845C16.887 8.987 16.887 8.59589 16.6455 8.35443Z" fill="#8E8E8E"/>
<path d="M11.8843 9.41084C11.8843 8.04668 10.7749 6.93726 9.41075 6.93726C8.04659 6.93726 6.93716 8.04668 6.93716 9.41084C6.93716 10.775 8.04659 11.8844 9.41075 11.8844C10.7749 11.8844 11.8843 10.775 11.8843 9.41084ZM8.1734 9.41084C8.1734 8.72876 8.72872 8.17344 9.4108 8.17344C10.0929 8.17344 10.6482 8.72876 10.6482 9.41084C10.6482 10.0929 10.0929 10.6482 9.4108 10.6482C8.72867 10.6482 8.1734 10.0929 8.1734 9.41084Z" fill="#8E8E8E"/>
<path d="M15.5892 13.1157C14.2251 13.1157 13.1156 14.2251 13.1156 15.5893C13.1156 16.9535 14.2251 18.0629 15.5892 18.0629C16.9534 18.0629 18.0628 16.9535 18.0628 15.5893C18.0628 14.2251 16.9534 13.1157 15.5892 13.1157ZM15.5892 16.8267C14.9071 16.8267 14.3518 16.2713 14.3518 15.5893C14.3518 14.9072 14.9071 14.3519 15.5892 14.3519C16.2713 14.3519 16.8266 14.9072 16.8266 15.5893C16.8266 16.2713 16.2713 16.8267 15.5892 16.8267Z" fill="#8E8E8E"/>
</g>
<defs>
<clipPath id="clip0_1_667">
<rect width="25" height="25" fill="white"/>
</clipPath>
</defs>
</svg>
