<svg width="25" height="25" viewBox="0 0 25 25" fill="none" xmlns="http://www.w3.org/2000/svg">
<path d="M21.007 20.8335H3.99296C3.59213 20.8335 3.20147 20.7073 2.87632 20.473C2.55117 20.2386 2.30801 19.9078 2.1813 19.5276C2.05459 19.1473 2.05075 18.7368 2.17033 18.3542C2.2899 17.9716 2.52683 17.6364 2.84754 17.396L3.70535 16.7526C4.02818 16.5113 4.24478 16.1542 4.30952 15.7564L5.38577 9.22311C5.64854 7.52429 6.51054 5.97559 7.81589 4.85707C9.12124 3.73856 10.7838 3.12408 12.5028 3.12476C14.2218 3.12544 15.8838 3.74123 17.1883 4.86078C18.4927 5.98033 19.3535 7.52971 19.6149 9.22873L20.6905 15.7564C20.7552 16.1542 20.9718 16.5113 21.2946 16.7526L22.1527 17.396C22.4735 17.6364 22.7104 17.9717 22.83 18.3543C22.9496 18.7369 22.9457 19.1475 22.819 19.5278C22.6922 19.9081 22.449 20.2389 22.1237 20.4732C21.7985 20.7075 21.4079 20.8336 21.007 20.8335ZM12.5008 4.1668C11.0282 4.15966 9.60228 4.68344 8.48447 5.64217C7.36666 6.60089 6.63178 7.93034 6.41452 9.38686L5.33749 15.9257C5.22943 16.5886 4.86842 17.1836 4.33046 17.5857L3.47238 18.2293C3.32658 18.3386 3.21887 18.491 3.16451 18.6649C3.11015 18.8388 3.11191 19.0254 3.16953 19.1983C3.22715 19.3712 3.33772 19.5215 3.48555 19.628C3.63339 19.7346 3.811 19.7919 3.99322 19.7918H21.0073C21.1894 19.7918 21.367 19.7345 21.5148 19.628C21.6626 19.5215 21.7731 19.3712 21.8307 19.1984C21.8883 19.0256 21.8901 18.839 21.8358 18.6651C21.7815 18.4913 21.6738 18.3389 21.5281 18.2296L20.6698 17.5857C20.1318 17.1836 19.7708 16.5886 19.6627 15.9257L18.5862 9.39243C18.37 7.93511 17.6357 6.60455 16.518 5.64475C15.4003 4.68495 13.974 4.16023 12.5008 4.1668Z" fill="#8E8E8E" stroke="#8E8E8E" stroke-width="0.6"/>
<path d="M14.0625 4.35425C13.9244 4.35425 13.7919 4.29937 13.6942 4.2017C13.5965 4.10402 13.5417 3.97155 13.5417 3.83341V3.12508C13.5417 2.84881 13.4319 2.58386 13.2366 2.38851C13.0412 2.19316 12.7763 2.08341 12.5 2.08341C12.2237 2.08341 11.9588 2.19316 11.7634 2.38851C11.5681 2.58386 11.4583 2.84881 11.4583 3.12508V3.83341C11.4583 3.97155 11.4035 4.10402 11.3058 4.2017C11.2081 4.29937 11.0756 4.35425 10.9375 4.35425C10.7994 4.35425 10.6669 4.29937 10.5692 4.2017C10.4715 4.10402 10.4167 3.97155 10.4167 3.83341V3.12508C10.4167 2.57255 10.6362 2.04264 11.0269 1.65194C11.4176 1.26124 11.9475 1.04175 12.5 1.04175C13.0525 1.04175 13.5824 1.26124 13.9731 1.65194C14.3638 2.04264 14.5833 2.57255 14.5833 3.12508V3.83341C14.5833 3.97155 14.5285 4.10402 14.4308 4.2017C14.3331 4.29937 14.2006 4.35425 14.0625 4.35425Z" fill="#8E8E8E" stroke="#8E8E8E" stroke-width="0.6"/>
<path d="M12.5 23.9584C11.5334 23.9573 10.6067 23.5729 9.92318 22.8894C9.23969 22.2059 8.85523 21.2792 8.85416 20.3126C8.85416 20.1744 8.90903 20.042 9.0067 19.9443C9.10438 19.8466 9.23686 19.7917 9.37499 19.7917C9.51312 19.7917 9.6456 19.8466 9.74328 19.9443C9.84095 20.042 9.89582 20.1744 9.89582 20.3126C9.89582 21.0032 10.1702 21.6656 10.6586 22.154C11.1469 22.6424 11.8093 22.9167 12.5 22.9167C13.1907 22.9167 13.853 22.6424 14.3414 22.154C14.8298 21.6656 15.1042 21.0032 15.1042 20.3126C15.1042 20.1744 15.159 20.042 15.2567 19.9443C15.3544 19.8466 15.4869 19.7917 15.625 19.7917C15.7631 19.7917 15.8956 19.8466 15.9933 19.9443C16.091 20.042 16.1458 20.1744 16.1458 20.3126C16.1447 21.2792 15.7603 22.2059 15.0768 22.8894C14.3933 23.5729 13.4666 23.9573 12.5 23.9584Z" fill="#8E8E8E"/>
</svg>
