<svg width="25" height="25" viewBox="0 0 25 25" fill="none" xmlns="http://www.w3.org/2000/svg">
<g clip-path="url(#clip0_1_1077)">
<path d="M20.5828 4.5567L16.9575 3.72369L17.0428 3.35226C17.2954 2.25294 16.6065 1.15309 15.5073 0.900547L11.8135 0.051865C11.2827 -0.0701565 10.7348 0.0227634 10.2706 0.313437C9.8065 0.604111 9.48374 1.05655 9.36177 1.58741L9.27642 1.95885L5.65108 1.12584C4.54419 0.871396 3.43746 1.56495 3.18326 2.67149L2.8315 4.2024C2.80249 4.32862 2.82481 4.46119 2.89356 4.57091C2.96226 4.68067 3.07178 4.75865 3.198 4.78761L16.2519 7.78702H3.62046C3.48291 7.78702 3.35171 7.84503 3.25923 7.94679C3.16665 8.04859 3.12134 8.18463 3.13438 8.32159L4.55767 23.2595C4.6522 24.2517 5.47505 25 6.47173 25H9.21416H14.9638H17.7063C18.7029 25 19.5258 24.2518 19.6204 23.2595L20.9909 8.87589L21.1915 8.92198C21.2283 8.93043 21.265 8.93448 21.3012 8.93448C21.5237 8.93448 21.7248 8.78146 21.7767 8.55543L22.1284 7.02452C22.2512 6.4902 22.1577 5.93863 21.8651 5.47145C21.5726 5.00435 21.1171 4.6795 20.5828 4.5567ZM18.6482 23.1669C18.6017 23.6552 18.1968 24.0234 17.7063 24.0234H14.9639H9.21421H6.47178C5.9813 24.0234 5.57637 23.6552 5.52989 23.167L4.15752 8.76363H20.0207L18.6482 23.1669ZM10.3136 1.80606C10.3772 1.52945 10.546 1.29327 10.789 1.14107C11.032 0.988877 11.318 0.94 11.5949 1.00362L15.2886 1.85235C15.8631 1.98434 16.2231 2.55914 16.0911 3.1336L16.0057 3.50504L10.2282 2.17755L10.3136 1.80606ZM21.1767 6.80592L20.9343 7.8609L3.89263 3.94522L4.13506 2.89024C4.26871 2.30851 4.85088 1.94415 5.43243 2.07765L16.2628 4.56612C16.2628 4.56612 16.2629 4.56617 16.2629 4.56617C16.263 4.56617 16.263 4.56617 16.2631 4.56617L20.3642 5.50846C20.9459 5.64215 21.3104 6.22418 21.1767 6.80592ZM15.2413 22.4863L15.8379 10.2532C15.851 9.9838 16.0796 9.77691 16.3494 9.78927C16.6188 9.80245 16.8265 10.0314 16.8133 10.3008L16.2167 22.5338C16.204 22.7951 15.9881 22.9983 15.7294 22.9983C15.7214 22.9983 15.7133 22.9982 15.7052 22.9978C15.4358 22.9846 15.2282 22.7556 15.2413 22.4863ZM7.96138 22.5338L7.36485 10.3007C7.35171 10.0314 7.55938 9.8024 7.82876 9.78922C8.0981 9.77682 8.32715 9.98375 8.34029 10.2531L8.93682 22.4862C8.94995 22.7556 8.74224 22.9846 8.4729 22.9978C8.4648 22.9982 8.45674 22.9983 8.44873 22.9983C8.1899 22.9983 7.97412 22.7951 7.96138 22.5338ZM11.6008 22.5101V10.277C11.6008 10.0073 11.8194 9.78868 12.0891 9.78868C12.3587 9.78868 12.5773 10.0073 12.5773 10.277V22.5101C12.5773 22.7797 12.3587 22.9983 12.0891 22.9983C11.8194 22.9983 11.6008 22.7797 11.6008 22.5101Z" fill="#AFAFB6"/>
</g>
<defs>
<clipPath id="clip0_1_1077">
<rect width="25" height="25" fill="white"/>
</clipPath>
</defs>
</svg>
