<svg width="20" height="20" viewBox="0 0 20 20" fill="none" xmlns="http://www.w3.org/2000/svg">
<g clip-path="url(#clip0_323_1739)">
<path d="M17.2778 0.901693C17.128 0.838522 16.9554 0.908712 16.8922 1.0581C16.8286 1.20794 16.8988 1.38051 17.0483 1.44369C18.4094 2.01818 19.4182 3.37865 19.4182 5.02126C19.4182 8.58053 14.9863 10.2767 12.6263 7.59512C11.2921 6.09151 11.3074 3.75616 12.7882 2.27529C13.6633 1.39974 14.8467 1.02865 15.9947 1.16475C16.156 1.18322 16.3023 1.06878 16.3216 0.907186C16.3408 0.745901 16.2254 0.599569 16.0642 0.580343C12.2096 0.122274 9.66111 4.46447 11.8767 7.59512C11.6406 7.59512 5.96894 7.59512 5.71121 7.59512C5.43625 7.59512 5.21317 7.81866 5.21317 8.09316V11.8993L4.66049 12.9854C4.55582 13.1914 4.38126 13.3451 4.1742 13.4237C4.1742 12.9697 3.81821 12.6548 3.42026 12.6548H2.28546C1.89407 12.6548 1.53122 12.9584 1.53122 13.4389H0.801697C0.35965 13.4389 0 13.7986 0 14.2409V14.5972C0 14.7596 0.131378 14.8913 0.29419 14.8913C0.456543 14.8913 0.588379 14.7596 0.588379 14.5972V14.2409C0.588379 14.123 0.684052 14.0273 0.801697 14.0273H1.53122V18.0997H0.801697C0.684052 18.0997 0.588379 18.0041 0.588379 17.8864V15.7738C0.588379 15.611 0.456543 15.4796 0.29419 15.4796C0.131378 15.4796 0 15.611 0 15.7738V17.8864C0 18.3285 0.35965 18.6881 0.801697 18.6881H1.53122C1.53122 19.1689 1.89468 19.4726 2.28546 19.4726H3.42026C3.76587 19.4726 4.05762 19.2388 4.14627 18.9211C4.50806 19.0178 3.51151 18.9795 16.6792 18.9795C16.9824 18.9795 17.2292 18.7328 17.2292 18.4296V9.16204C20.8878 7.6647 20.9428 2.45382 17.2778 0.901693ZM3.58582 16.0465C3.58582 16.3595 3.58582 16.4615 3.58582 16.4589V18.7183C3.58582 18.8082 3.51013 18.8843 3.42026 18.8843H2.28546C2.19574 18.8843 2.1196 18.8082 2.1196 18.7183C2.1196 18.4676 2.1196 13.6564 2.1196 13.4092C2.1196 13.3188 2.19574 13.2432 2.28546 13.2432H3.42026C3.51013 13.2432 3.58582 13.3188 3.58582 13.4092V16.0465ZM8.96149 8.18334H11.2048V10.4917L10.3328 9.80947C10.1859 9.69457 9.97925 9.69518 9.83338 9.80947L8.96149 10.4917V8.18334ZM8.89389 18.3896C4.22318 18.3913 4.45053 18.4206 4.1742 18.312V14.0366C4.60861 13.9408 4.96857 13.6757 5.21317 13.1965C5.27817 13.0688 5.76294 12.1161 5.88074 11.8848C5.97824 11.69 6.52909 12.1825 6.26938 12.6925L5.98541 13.2506C5.79407 13.6269 6.0669 14.072 6.48911 14.072L10.1744 14.0708C10.3568 14.0708 10.5125 14.2203 10.5106 14.3944C10.5086 14.5672 10.3661 14.7083 10.1927 14.7092H7.89307C7.73056 14.7092 7.59888 14.8409 7.59888 15.0034C7.59888 15.1659 7.73056 15.2976 7.89307 15.2976C7.89459 15.2976 11.3261 15.2973 11.3269 15.2973C11.4751 15.2973 11.6296 15.4334 11.6536 15.5655C11.6963 15.7789 11.5712 15.9351 11.3509 15.9351C11.3499 15.9351 10.8946 15.9354 7.86835 15.9354C7.70584 15.9354 7.57416 16.0671 7.57416 16.2296C7.57416 16.392 7.70584 16.5236 7.86835 16.5236C7.87003 16.5236 10.8165 16.5236 10.8182 16.5238C11.1006 16.5342 11.2254 16.8755 11.0312 17.0685C10.9711 17.129 10.8911 17.1619 10.806 17.1619C8.55088 17.1633 9.17649 17.1631 7.58576 17.1631C7.42325 17.1631 7.29157 17.2948 7.29157 17.4573C7.29157 17.6198 7.42325 17.7515 7.58576 17.7515C8.98667 17.7515 8.99445 17.7202 9.11972 17.8448C9.319 18.0446 9.1774 18.3896 8.89389 18.3896ZM16.6408 18.3912H14.9535V12.7352C14.9535 12.5728 14.8216 12.441 14.6593 12.441C14.4965 12.441 14.3651 12.5728 14.3651 12.7352V18.3912H9.74152C9.823 18.1774 9.82178 17.9526 9.74533 17.7511L10.806 17.7503C11.4592 17.7503 11.8977 17.08 11.6379 16.4811C12.2917 16.2787 12.4507 15.4632 11.9783 14.9889C11.6606 14.6712 11.3437 14.7089 11.0405 14.7089C11.2679 14.11 10.809 13.4824 10.1744 13.4824L6.5271 13.4836L6.79383 12.9596C7.24121 12.0798 6.4682 11.1097 5.80155 11.2682V8.18334H8.37311V10.8674C8.37311 11.0909 8.55515 11.2728 8.77884 11.2728C8.96012 11.2728 8.92334 11.2684 10.0832 10.3612C11.2271 11.2562 11.2021 11.2728 11.3873 11.2728C11.6112 11.2728 11.7932 11.0909 11.7932 10.8674V8.18334H12.3729C12.9343 8.74471 13.6186 9.13854 14.3651 9.33889V11.5586C14.3651 11.7209 14.4965 11.8528 14.6593 11.8528C14.8216 11.8528 14.9535 11.7209 14.9535 11.5586V9.45577C15.5133 9.52825 16.0904 9.49529 16.6408 9.35583V18.3912Z" fill="#F15324"/>
<path d="M13.5927 4.96786C13.485 4.8461 13.299 4.83496 13.1775 4.94269C13.0557 5.05041 13.0446 5.23626 13.1523 5.35788L14.3372 6.69562C14.5654 6.95318 14.9672 6.95273 15.1952 6.69684L17.9161 3.64309C18.0243 3.52194 18.0135 3.33593 17.8922 3.2279C17.7708 3.11987 17.585 3.1304 17.4768 3.25171L14.7667 6.29309L13.5927 4.96786Z" fill="#F15324"/>
</g>
<defs>
<clipPath id="clip0_323_1739">
<rect width="20" height="20" fill="white"/>
</clipPath>
</defs>
</svg>
