<svg width="15" height="16" viewBox="0 0 15 16" fill="none" xmlns="http://www.w3.org/2000/svg">
<g clip-path="url(#clip0_1_1160)">
<path d="M9.26331 3.01941L1.0101 11.2732C0.968576 11.3149 0.938595 11.3674 0.924318 11.424L0.00952848 15.0957C-0.0178355 15.2063 0.0146444 15.3238 0.0953086 15.4045C0.156342 15.4655 0.239505 15.4993 0.324571 15.4993C0.350626 15.4993 0.377277 15.4961 0.403213 15.4895L4.07498 14.5746C4.13221 14.5603 4.1842 14.5305 4.22572 14.489L12.4796 6.23575L9.26331 3.01941Z" fill="#F15324"/>
<path d="M14.5242 1.89403L13.6055 0.975309C12.9915 0.361286 11.9213 0.361881 11.308 0.975309L10.1826 2.10068L13.3988 5.3169L14.5242 4.19153C14.8309 3.88493 14.9999 3.47685 14.9999 3.04284C14.9999 2.60882 14.8309 2.20074 14.5242 1.89403Z" fill="#F15324"/>
</g>
<defs>
<clipPath id="clip0_1_1160">
<rect width="15" height="15" fill="white" transform="translate(0 0.5)"/>
</clipPath>
</defs>
</svg>
