<svg width="31" height="30" viewBox="0 0 31 30" fill="none" xmlns="http://www.w3.org/2000/svg">
<path fill-rule="evenodd" clip-rule="evenodd" d="M20.1875 5.63647C17.9308 5.63647 16.0329 7.25405 15.5952 9.38647H3.3125C2.79474 9.38647 2.375 9.80621 2.375 10.324C2.375 10.8417 2.79474 11.2615 3.3125 11.2615H15.5952C16.0329 13.3939 17.9308 15.0115 20.1875 15.0115C22.4442 15.0115 24.3421 13.3939 24.7798 11.2615H27.6875C28.2053 11.2615 28.625 10.8417 28.625 10.324C28.625 9.80621 28.2053 9.38647 27.6875 9.38647H24.7798C24.3421 7.25405 22.4442 5.63647 20.1875 5.63647ZM20.1875 7.51147C21.7519 7.51147 23 8.7596 23 10.324C23 11.8884 21.7519 13.1365 20.1875 13.1365C18.6231 13.1365 17.375 11.8884 17.375 10.324C17.375 8.7596 18.6231 7.51147 20.1875 7.51147Z" fill="#F15324"/>
<path fill-rule="evenodd" clip-rule="evenodd" d="M10.8125 15.0115C8.55576 15.0115 6.65792 16.629 6.22021 18.7615H3.3125C2.79474 18.7615 2.375 19.1812 2.375 19.699C2.375 20.2167 2.79474 20.6365 3.3125 20.6365H6.22021C6.65792 22.7689 8.55576 24.3865 10.8125 24.3865C13.0692 24.3865 14.9671 22.7689 15.4048 20.6365H27.6875C28.2053 20.6365 28.625 20.2167 28.625 19.699C28.625 19.1812 28.2053 18.7615 27.6875 18.7615H15.4048C14.9671 16.629 13.0692 15.0115 10.8125 15.0115ZM10.8125 16.8865C12.3769 16.8865 13.625 18.1346 13.625 19.699C13.625 21.2634 12.3769 22.5115 10.8125 22.5115C9.24812 22.5115 8 21.2634 8 19.699C8 18.1346 9.24812 16.8865 10.8125 16.8865Z" fill="#F15324"/>
</svg>
