<svg width="30" height="31" viewBox="0 0 30 31" fill="none" xmlns="http://www.w3.org/2000/svg">
<rect x="0.31" y="0.81" width="29.38" height="29.38" rx="8.37" fill="white"/>
<rect x="0.31" y="0.81" width="29.38" height="29.38" rx="8.37" stroke="#F15324" stroke-width="0.62"/>
<g clip-path="url(#clip0_323_1688)">
<path d="M23.2 17.8818C23.2 15.2582 21.4322 12.9659 18.9392 12.2751C18.7825 8.62311 15.7629 5.7002 12.073 5.7002C8.28317 5.7002 5.2 8.78337 5.2 12.5732C5.2 13.8084 5.52876 15.011 6.15306 16.0668L5.22527 19.4209L8.57953 18.4932C9.55003 19.0671 10.6448 19.3904 11.7748 19.4391C12.4654 21.9322 14.7578 23.7002 17.3816 23.7002C18.4289 23.7002 19.4473 23.4213 20.3422 22.8913L23.1746 23.6748L22.3911 20.8424C22.9211 19.9475 23.2 18.9291 23.2 17.8818ZM8.74597 17.3528L6.73795 17.9083L7.29344 15.9003L7.16682 15.7023C6.57013 14.7687 6.25468 13.6867 6.25468 12.5732C6.25468 9.36496 8.86476 6.75488 12.073 6.75488C15.2813 6.75488 17.8914 9.36496 17.8914 12.5732C17.8914 15.7815 15.2813 18.3916 12.073 18.3916C10.9596 18.3916 9.8777 18.0762 8.944 17.4795L8.74597 17.3528ZM21.662 22.1622L20.172 21.75L19.973 21.8795C19.2017 22.3806 18.3055 22.6455 17.3816 22.6455C15.3195 22.6455 13.5074 21.3122 12.8654 19.4003C16.0232 19.0362 18.536 16.5234 18.9002 13.3655C20.812 14.0076 22.1453 15.8197 22.1453 17.8818C22.1453 18.8056 21.8804 19.7019 21.3793 20.4732L21.2498 20.6722L21.662 22.1622Z" fill="#F15324"/>
<path d="M11.5457 15.2275H12.6004V16.2822H11.5457V15.2275Z" fill="#F15324"/>
<path d="M13.1278 10.9736C13.1278 11.2731 13.0058 11.5496 12.7845 11.7522L11.5457 12.8859V14.1729H12.6004V13.3504L13.4965 12.5303C13.9324 12.1313 14.1825 11.564 14.1825 10.9736C14.1825 9.81046 13.2363 8.86426 12.0731 8.86426C10.9099 8.86426 9.96371 9.81046 9.96371 10.9736H11.0184C11.0184 10.392 11.4915 9.91895 12.0731 9.91895C12.6547 9.91895 13.1278 10.392 13.1278 10.9736Z" fill="#F15324"/>
</g>
<defs>
<clipPath id="clip0_323_1688">
<rect width="18" height="18" fill="white" transform="translate(5.2 5.7002)"/>
</clipPath>
</defs>
</svg>
