<svg width="35" height="36" viewBox="0 0 35 36" fill="none" xmlns="http://www.w3.org/2000/svg">
<path d="M33.1001 15.9274L20.2956 3.80213C18.7272 2.31791 16.2717 2.31791 14.7044 3.80213L1.93046 15.9001C1.15608 16.576 0.890299 17.6359 1.25233 18.6017C1.61436 19.5653 2.51124 20.1876 3.53827 20.1876H4.37499V32.2188C4.37499 32.8226 4.86499 33.3126 5.46874 33.3126H29.5312C30.135 33.3126 30.625 32.8226 30.625 32.2188V20.1876H31.4606C32.4876 20.1876 33.3856 19.5642 33.7466 18.5995C34.1086 17.6348 33.8417 16.5738 33.1001 15.9274ZM14.2187 31.1251V25.6563C14.2187 23.8473 15.6909 22.3751 17.5 22.3751C19.309 22.3751 20.7812 23.8473 20.7812 25.6563V31.1251H14.2187ZM31.4606 18.0001H29.5312C28.9275 18.0001 28.4375 18.4901 28.4375 19.0938V31.1251H22.9687V25.6563C22.9687 22.6409 20.5155 20.1876 17.5 20.1876C14.4845 20.1876 12.0312 22.6409 12.0312 25.6563V31.1251H6.56249V19.0938C6.56249 18.4901 6.07249 18.0001 5.46874 18.0001H3.53827C3.32061 18.0001 3.16311 17.7278 3.40155 17.5178L16.2083 5.39025C16.9323 4.70447 18.0676 4.70447 18.7917 5.39025L31.629 17.5462C31.8084 17.7015 31.698 18.0001 31.4606 18.0001Z" fill="#F15324"/>
</svg>
