<svg width="15" height="15" viewBox="0 0 15 15" fill="none" xmlns="http://www.w3.org/2000/svg">
<g clip-path="url(#clip0_1_752)">
<path d="M7.5 0C6.01664 0 4.5666 0.439867 3.33323 1.26398C2.09986 2.08809 1.13856 3.25943 0.570907 4.62987C0.00324961 6.00032 -0.145275 7.50832 0.144114 8.96318C0.433503 10.418 1.14781 11.7544 2.1967 12.8033C3.2456 13.8522 4.58197 14.5665 6.03683 14.8559C7.49168 15.1453 8.99968 14.9968 10.3701 14.4291C11.7406 13.8614 12.9119 12.9001 13.736 11.6668C14.5601 10.4334 15 8.98336 15 7.5C15 5.51088 14.2098 3.60322 12.8033 2.1967C11.3968 0.790176 9.48913 0 7.5 0ZM5.58257 10.9283C5.58153 11.0552 5.53047 11.1765 5.44048 11.2659C5.35049 11.3554 5.22885 11.4057 5.10198 11.4059H3.78553C3.65875 11.4057 3.53721 11.3553 3.44738 11.2659C3.35755 11.1764 3.30671 11.0551 3.30592 10.9283V7.17829C3.3067 7.05142 3.35751 6.92999 3.44732 6.84037C3.53712 6.75075 3.65866 6.70019 3.78553 6.69967H5.10198C5.22902 6.69993 5.35081 6.75038 5.44083 6.84002C5.53084 6.92967 5.58179 7.05125 5.58257 7.17829V10.9283ZM11.1868 7.98651C11.2826 8.06342 11.3548 8.16574 11.3952 8.28176C11.4355 8.39779 11.4424 8.52282 11.415 8.64257C11.3876 8.76232 11.3271 8.87194 11.2403 8.95888C11.1535 9.04583 11.044 9.10659 10.9243 9.13421C11.0205 9.21078 11.0931 9.31293 11.1338 9.42891C11.1745 9.54489 11.1817 9.67 11.1544 9.78986C11.1272 9.90973 11.0668 10.0195 10.98 10.1065C10.8932 10.1936 10.7836 10.2544 10.6638 10.2819C10.7691 10.3668 10.8456 10.4822 10.8828 10.6123C10.9199 10.7423 10.9158 10.8807 10.8712 11.0084C10.8265 11.1361 10.7435 11.2469 10.6334 11.3254C10.5233 11.404 10.3915 11.4466 10.2563 11.4474L6.54375 11.4059C6.41724 11.4054 6.29605 11.3549 6.20659 11.2655C6.11713 11.176 6.06664 11.0548 6.06612 10.9283V7.17829C6.06612 6.58618 7.95987 5.49276 8.06152 4.90855C8.12467 4.52171 8.04079 3.55263 8.30132 3.55263C8.74342 3.55263 9.31086 3.72237 9.31086 4.70428C9.31086 5.57072 8.74342 6.69474 8.74342 6.69474H11.0398C11.2005 6.69478 11.3555 6.75395 11.4754 6.86097C11.5953 6.96798 11.6715 7.11537 11.6897 7.27502C11.7079 7.43467 11.6667 7.59543 11.5739 7.72664C11.4812 7.85786 11.3434 7.95036 11.1868 7.98651Z" fill="#449D00"/>
</g>
<defs>
<clipPath id="clip0_1_752">
<rect width="15" height="15" fill="white"/>
</clipPath>
</defs>
</svg>
