<svg width="30" height="30" viewBox="0 0 30 30" fill="none" xmlns="http://www.w3.org/2000/svg">
<path d="M16.9889 13.9491C16.7489 13.9491 16.5089 13.8577 16.3261 13.6744C14.8641 12.2123 12.4852 12.2119 11.0227 13.6744C10.657 14.0405 10.0627 14.0405 9.69704 13.6744C9.33095 13.3083 9.33095 12.7148 9.69704 12.3487C11.8903 10.155 15.4589 10.1555 17.6517 12.3487C18.0178 12.7148 18.0178 13.3083 17.6517 13.6744C17.4689 13.8577 17.2284 13.9491 16.9889 13.9491Z" fill="#F15324"/>
<path d="M16.3261 19.2968C14.8856 19.2968 13.4452 18.7484 12.3488 17.652C11.9827 17.2859 11.9827 16.6924 12.3488 16.3263C12.7144 15.9602 13.3088 15.9602 13.6744 16.3263C15.1364 17.7884 17.5153 17.7888 18.9778 16.3263C19.3434 15.9602 19.9378 15.9602 20.3034 16.3263C20.6695 16.6924 20.6695 17.2859 20.3034 17.652C19.2066 18.7484 17.7661 19.2968 16.3261 19.2968Z" fill="#F15324"/>
<path d="M19.6402 17.9262C19.4002 17.9262 19.1602 17.8348 18.9773 17.6515C18.6113 17.2854 18.6113 16.692 18.9773 16.3259L24.2142 11.089C24.5798 10.7229 25.1742 10.7229 25.5398 11.089C25.9059 11.4551 25.9059 12.0486 25.5398 12.4146L20.303 17.6515C20.1202 17.8348 19.8802 17.9262 19.6402 17.9262Z" fill="#F15324"/>
<path d="M11.752 25.8144C11.512 25.8144 11.272 25.723 11.0892 25.5397C10.7231 25.1737 10.7231 24.5802 11.0892 24.2141L14.0166 21.2868C14.3822 20.9207 14.9766 20.9207 15.3422 21.2868C15.7083 21.6529 15.7083 22.2463 15.3422 22.6124L12.4148 25.5397C12.232 25.723 11.992 25.8144 11.752 25.8144Z" fill="#F15324"/>
<path d="M5.12298 19.1855C4.88298 19.1855 4.64298 19.0941 4.46016 18.9108C4.09407 18.5447 4.09407 17.9513 4.46016 17.5852L9.69704 12.3488C10.0631 11.9827 10.657 11.9827 11.0227 12.3488C11.3888 12.7149 11.3888 13.3083 11.0227 13.6744L5.78579 18.9108C5.60251 19.0936 5.36251 19.1855 5.12298 19.1855Z" fill="#F15324"/>
<path d="M15.3206 8.98824C15.0806 8.98824 14.8411 8.89684 14.6578 8.71402C14.2917 8.34793 14.2917 7.75449 14.6578 7.38793L17.5852 4.46012C17.9512 4.09402 18.5447 4.09402 18.9112 4.46012C19.2773 4.82621 19.2773 5.41965 18.9112 5.78621L15.9839 8.71402C15.8006 8.89637 15.5602 8.98824 15.3206 8.98824Z" fill="#F15324"/>
<path d="M8.4375 27.157C6.98766 27.157 5.53782 26.6179 4.46016 25.5398C2.30391 23.3835 2.30391 19.7409 4.46016 17.5846C4.82578 17.2185 5.42016 17.2185 5.78578 17.5846C6.15188 17.9507 6.15188 18.5442 5.78578 18.9103C4.3486 20.3474 4.3486 22.7765 5.78578 24.2137C7.22297 25.6509 9.65203 25.6509 11.0892 24.2137C11.4548 23.8476 12.0492 23.8476 12.4148 24.2137C12.7809 24.5798 12.7809 25.1732 12.4148 25.5393C11.3372 26.6179 9.88735 27.157 8.4375 27.157Z" fill="#F15324"/>
<path d="M24.877 12.6893C24.637 12.6893 24.397 12.5979 24.2142 12.4146C23.8481 12.0486 23.8481 11.4551 24.2142 11.089C25.6514 9.65183 25.6514 7.22277 24.2142 5.78559C22.777 4.3484 20.348 4.3484 18.9108 5.78559C18.5452 6.15168 17.9508 6.15168 17.5852 5.78559C17.2191 5.41949 17.2191 4.82605 17.5852 4.45996C19.7414 2.30371 23.3841 2.30371 25.5403 4.45996C27.6966 6.61621 27.6966 10.2589 25.5403 12.4151C25.357 12.5979 25.117 12.6893 24.877 12.6893Z" fill="#F15324"/>
</svg>
