<svg width="31" height="30" viewBox="0 0 31 30" fill="none" xmlns="http://www.w3.org/2000/svg">
<mask id="mask0_1_389" style="mask-type:luminance" maskUnits="userSpaceOnUse" x="0" y="0" width="31" height="30">
<path d="M0.5 0H30.5V30H0.5V0Z" fill="white"/>
</mask>
<g mask="url(#mask0_1_389)">
<path d="M9.7048 5.06351L9.45567 5.31263C6.7458 8.02251 6.43692 12.3111 8.73045 15.3814L14.6451 23.0876C15.0217 23.5784 15.762 23.5762 16.1358 23.0833L21.9925 15.3602C24.2979 12.2783 23.989 7.97079 21.2675 5.24932L21.0817 5.06351C17.94 1.92186 12.8465 1.92187 9.7048 5.06351Z" stroke="#F15324" stroke-width="1.8"/>
<path d="M15.3438 13.9062C17.0696 13.9062 18.4688 12.5071 18.4688 10.7812C18.4688 9.05536 17.0696 7.65625 15.3438 7.65625C13.6179 7.65625 12.2188 9.05536 12.2188 10.7812C12.2188 12.5071 13.6179 13.9062 15.3438 13.9062Z" stroke="#F15324" stroke-width="1.8"/>
<path d="M8.15625 21.1693C5.76606 21.7633 4.25 22.6482 4.25 23.6364C4.25 25.425 9.21684 26.875 15.3438 26.875C21.4707 26.875 26.4375 25.425 26.4375 23.6364C26.4375 22.6482 24.9214 21.7633 22.5312 21.1693" stroke="#F15324" stroke-width="1.8" stroke-linecap="round"/>
</g>
</svg>
