<svg width="30" height="30" viewBox="0 0 30 30" fill="none" xmlns="http://www.w3.org/2000/svg">
<path fill-rule="evenodd" clip-rule="evenodd" d="M15 2.5C15.6904 2.5 16.25 3.05965 16.25 3.75V16.25C16.25 16.9404 15.6904 17.5 15 17.5C14.3096 17.5 13.75 16.9404 13.75 16.25V3.75C13.75 3.05965 14.3096 2.5 15 2.5ZM11.082 6.96191C11.4277 7.55949 11.2235 8.32415 10.6259 8.66983C8.00726 10.1846 6.25 13.0129 6.25 16.25C6.25 21.0825 10.1675 25 15 25C19.8325 25 23.75 21.0825 23.75 16.25C23.75 13.0129 21.9928 10.1846 19.3741 8.66983C18.7765 8.32415 18.5724 7.55949 18.918 6.96191C19.2636 6.36434 20.0284 6.16014 20.6259 6.50581C23.9853 8.4491 26.25 12.0843 26.25 16.25C26.25 22.4633 21.2132 27.5 15 27.5C8.7868 27.5 3.75 22.4633 3.75 16.25C3.75 12.0843 6.01472 8.4491 9.37409 6.50581C9.97166 6.16014 10.7363 6.36434 11.082 6.96191Z" fill="#D21015"/>
</svg>
