<svg width="37" height="32" viewBox="0 0 37 32" fill="none" xmlns="http://www.w3.org/2000/svg">
<path d="M32.9772 6.82126C32.5117 5.71876 31.4057 4.98376 30.2052 4.98376H3.68223C2.46073 4.98376 1.33723 5.74676 0.889232 6.87376C0.889232 6.87726 0.885732 6.88076 0.885732 6.88426C0.882232 6.89476 0.878732 6.90176 0.875232 6.91226C0.738732 7.25526 0.668732 7.61926 0.668732 8.00076V22.1268C0.668732 23.7893 2.01973 25.1438 3.68223 25.1438H13.6572L11.6412 27.1598C11.5852 27.2158 11.5397 27.2858 11.5152 27.3628L10.3952 30.6458C10.3322 30.8348 10.3812 31.0448 10.5212 31.1848C10.6227 31.2863 10.7557 31.3388 10.8922 31.3388C10.9482 31.3388 11.0077 31.3283 11.0602 31.3108L14.3432 30.1908C14.4202 30.1663 14.4902 30.1208 14.5462 30.0648L19.4672 25.1438H30.1982C31.8607 25.1438 33.2117 23.7893 33.2117 22.1268V8.00076C33.2117 7.61226 33.1382 7.23426 32.9947 6.87726C32.9947 6.85976 32.9842 6.83876 32.9772 6.82126ZM3.68223 6.03376H30.2052C30.8527 6.03376 31.4512 6.36276 31.8117 6.88426L19.1207 14.5528C17.7802 15.3648 16.1072 15.3648 14.7597 14.5528L2.07573 6.88076C2.43623 6.36276 3.03823 6.03376 3.68223 6.03376ZM13.8952 29.2388L11.7392 29.9738L12.4742 27.8143L15.2917 24.9968C15.2987 24.9898 15.3057 24.9828 15.3127 24.9758L18.5537 21.7348L19.9747 23.1558L18.8967 24.2338C18.8897 24.2408 18.8827 24.2478 18.8757 24.2548L13.8952 29.2388ZM20.7132 22.4173L19.2922 20.9963L21.0317 19.2568C21.0492 19.2393 21.0772 19.2393 21.0947 19.2568L22.4527 20.6148C22.4702 20.6323 22.4702 20.6603 22.4527 20.6778L20.7132 22.4173ZM32.1687 22.1268C32.1687 23.2118 31.2867 24.0938 30.2052 24.0938H20.5242L23.1982 21.4198C23.6252 20.9928 23.6252 20.2998 23.1982 19.8728L21.8402 18.5148C21.4132 18.0878 20.7202 18.0878 20.2932 18.5148L14.7072 24.0938H3.68223C2.60073 24.0938 1.71873 23.2118 1.71873 22.1268V8.00076C1.71873 7.96576 1.72573 7.93426 1.72923 7.89926L14.2207 15.4523C15.0607 15.9598 16.0057 16.2153 16.9472 16.2153C17.8887 16.2153 18.8302 15.9598 19.6702 15.4523L32.1652 7.89926C32.1687 7.93426 32.1757 7.96576 32.1757 8.00076V22.1268H32.1687Z" fill="#434343" stroke="#434343" stroke-width="0.6"/>
<path d="M9.1842 21.1713H3.1012C2.8107 21.1713 2.5762 21.4058 2.5762 21.6963C2.5762 21.9868 2.8107 22.2213 3.1012 22.2213H9.1842C9.4747 22.2213 9.7092 21.9868 9.7092 21.6963C9.7092 21.4058 9.4747 21.1713 9.1842 21.1713Z" fill="#434343" stroke="#434343" stroke-width="0.6"/>
<path d="M13.0938 21.1713H11.5503C11.2598 21.1713 11.0253 21.4058 11.0253 21.6963C11.0253 21.9868 11.2598 22.2213 11.5503 22.2213H13.0938C13.3843 22.2213 13.6188 21.9868 13.6188 21.6963C13.6188 21.4058 13.3843 21.1713 13.0938 21.1713Z" fill="#434343" stroke="#434343" stroke-width="0.6"/>
<path d="M3.1012 19.2427H7.2522C7.5427 19.2427 7.7772 19.0082 7.7772 18.7177C7.7772 18.4272 7.5427 18.1927 7.2522 18.1927H3.1012C2.8107 18.1927 2.5762 18.4272 2.5762 18.7177C2.5762 19.0082 2.8107 19.2427 3.1012 19.2427Z" fill="#434343" stroke="#434343" stroke-width="0.6"/>
</svg>
