<svg width="40" height="40" viewBox="0 0 40 40" fill="none" xmlns="http://www.w3.org/2000/svg">
<path d="M31.308 10.6042C30.3602 8.7354 28.9578 7.13487 27.2297 5.94974C25.5016 4.76461 23.5033 4.03293 21.4185 3.82195C20.4754 3.72732 19.5252 3.72732 18.5821 3.82195C16.4974 4.03306 14.4992 4.76473 12.771 5.94972C11.0429 7.1347 9.64025 8.735 8.69202 10.6036C7.49901 12.9878 7.0382 15.6717 7.36763 18.3172C7.69706 20.9628 8.802 23.4518 10.5433 25.4706L19.0344 35.7941C19.1517 35.9367 19.2991 36.0516 19.466 36.1305C19.633 36.2094 19.8154 36.2503 20 36.2503C20.1847 36.2503 20.367 36.2094 20.534 36.1305C20.701 36.0516 20.8484 35.9367 20.9656 35.7941L29.4568 25.4706C31.198 23.4519 32.303 20.963 32.6324 18.3176C32.9618 15.6721 32.501 12.9883 31.308 10.6042ZM20 21.2499C19.0111 21.2499 18.0444 20.9567 17.2222 20.4073C16.3999 19.8579 15.7591 19.077 15.3806 18.1634C15.0022 17.2497 14.9032 16.2444 15.0961 15.2745C15.289 14.3046 15.7652 13.4137 16.4645 12.7144C17.1638 12.0151 18.0547 11.5389 19.0246 11.346C19.9945 11.1531 20.9998 11.2521 21.9134 11.6305C22.8271 12.009 23.608 12.6498 24.1574 13.4721C24.7068 14.2943 25 15.261 25 16.2499C24.9985 17.5756 24.4712 18.8464 23.5338 19.7838C22.5965 20.7211 21.3256 21.2484 20 21.2499Z" fill="#F15324"/>
</svg>
