<svg width="36" height="36" viewBox="0 0 36 36" fill="none" xmlns="http://www.w3.org/2000/svg">
<path d="M2.14599 32.9563H8.13138V20.382H2.14599V32.9563ZM3.02682 21.2659H7.24977V32.0758H3.02682V21.2659Z" fill="#434343" stroke="#434343" stroke-width="0.5"/>
<path d="M10.462 32.9563H16.4474V15.7153H10.462V32.9563ZM11.3432 16.5992H15.5662V32.0758H11.3432V16.5992Z" fill="#434343" stroke="#434343" stroke-width="0.5"/>
<path d="M18.7784 32.9563H24.7638V20.382H18.7784V32.9563ZM19.6596 21.2659H23.8825V32.0758H19.6596V21.2659Z" fill="#434343" stroke="#434343" stroke-width="0.5"/>
<path d="M27.0955 32.9563H33.0809V11.0758H27.0955V32.9563ZM27.9764 11.9586H32.1997V32.0758H27.9764V11.9586Z" fill="#434343" stroke="#434343" stroke-width="0.5"/>
<path d="M27.5634 5.53807C27.5634 6.09729 27.7473 6.6114 28.0573 7.03062L23.1639 12.7446C22.7645 12.4793 22.2865 12.323 21.7724 12.323C20.974 12.323 20.2608 12.6983 19.7977 13.2816L15.8497 10.9728C15.9333 10.7235 15.9795 10.4579 15.9795 10.1806C15.9795 8.79307 14.8409 7.65673 13.4541 7.65673C12.0642 7.65673 10.9302 8.79307 10.9302 10.1806C10.9302 10.4579 10.9765 10.7216 11.0601 10.9705L7.1121 13.2816C6.64893 12.6983 5.93571 12.323 5.13732 12.323C3.74821 12.323 2.61421 13.4593 2.61421 14.8492C2.61421 16.2383 3.74821 17.3708 5.13732 17.3708C6.52488 17.3708 7.66354 16.2383 7.66354 14.8492C7.66354 14.5712 7.61649 14.3063 7.53132 14.0571L11.4793 11.7459C11.9425 12.3292 12.6557 12.7045 13.4541 12.7045C14.2502 12.7045 14.9649 12.3292 15.4289 11.7482L19.3761 14.0575C19.2933 14.3067 19.2462 14.5716 19.2462 14.8496C19.2462 16.2387 20.3825 17.3712 21.7724 17.3712C23.1615 17.3712 24.2955 16.2387 24.2955 14.8496C24.2955 14.29 24.1093 13.7755 23.8017 13.3563L28.697 7.64079C29.0956 7.90601 29.5743 8.06234 30.0884 8.06234C31.4775 8.06234 32.6123 6.92757 32.6123 5.53845C32.6127 4.15051 31.4779 3.01651 30.0888 3.01651C28.6997 3.01651 27.5634 4.15051 27.5634 5.53807ZM31.7319 5.53807C31.7319 6.45195 31.0004 7.18034 30.0888 7.18034C29.1773 7.18034 28.4458 6.45195 28.4458 5.53807C28.4458 4.62651 29.1773 3.89657 30.0888 3.89657C31.0004 3.89657 31.7319 4.62651 31.7319 5.53807ZM15.0948 10.1806C15.0948 11.0937 14.3657 11.8237 13.4541 11.8237C12.5402 11.8237 11.811 11.0937 11.811 10.1806C11.811 9.26907 12.5402 8.5399 13.4541 8.5399C14.3657 8.5399 15.0948 9.26907 15.0948 10.1806ZM6.77765 14.8492C6.77765 15.76 6.04849 16.49 5.13693 16.49C4.22382 16.49 3.49465 15.76 3.49465 14.8492C3.49465 13.9357 4.22382 13.2042 5.13693 13.2042C6.04849 13.2042 6.77765 13.9357 6.77765 14.8492ZM23.4147 14.8492C23.4147 15.76 22.684 16.49 21.7724 16.49C20.8609 16.49 20.1294 15.76 20.1294 14.8492C20.1298 13.9357 20.8613 13.2042 21.7724 13.2042C22.684 13.2042 23.4147 13.9357 23.4147 14.8492Z" fill="#434343" stroke="#434343" stroke-width="0.5"/>
</svg>
