<svg width="18" height="19" viewBox="0 0 18 19" fill="none" xmlns="http://www.w3.org/2000/svg">
<g clip-path="url(#clip0_1_379)">
<path d="M16.875 16.25H1.12501C0.503661 16.25 0 15.7463 0 15.125C0 14.5037 0.503661 14 1.12501 14H16.875C17.4963 14 18 14.5037 18 15.125C18 15.7463 17.4963 16.25 16.875 16.25Z" fill="#00040D"/>
<path d="M16.875 10.625H1.12501C0.503661 10.625 0 10.1213 0 9.50001C0 8.8787 0.503661 8.375 1.12501 8.375H16.875C17.4963 8.375 18 8.87866 18 9.50001C18 10.1214 17.4963 10.625 16.875 10.625Z" fill="#00040D"/>
<path d="M16.875 5.00001H1.12501C0.503661 5.00001 0 4.49635 0 3.87501C0 3.25366 0.503661 2.75 1.12501 2.75H16.875C17.4963 2.75 18 3.25366 18 3.87501C18 4.49635 17.4963 5.00001 16.875 5.00001Z" fill="#00040D"/>
</g>
<defs>
<clipPath id="clip0_1_379">
<rect width="18" height="18" fill="white" transform="translate(0 0.5)"/>
</clipPath>
</defs>
</svg>
