<svg width="20" height="21" viewBox="0 0 20 21" fill="none" xmlns="http://www.w3.org/2000/svg">
<g clip-path="url(#clip0_1_740)">
<path d="M19.0807 10.5007L19.9581 8.21211C20.0543 7.95963 19.9793 7.6734 19.7681 7.50216L17.8657 5.95976L17.4808 3.53868C17.4383 3.2712 17.2283 3.06246 16.9608 3.01996L14.5397 2.63499L12.9986 0.731369C12.8286 0.520133 12.5361 0.445139 12.2899 0.541382L10 1.42007L7.71143 0.542632C7.45769 0.445139 7.17396 0.522633 7.00273 0.732619L5.46033 2.63624L3.03925 3.02121C2.77301 3.06371 2.56303 3.2737 2.52053 3.53993L2.13556 5.96101L0.231938 7.50341C0.0219525 7.6734 -0.0542923 7.95963 0.0419512 8.21211L0.919391 10.5007L0.0419512 12.7893C-0.0555422 13.0418 0.0219525 13.328 0.231938 13.498L2.13556 15.0391L2.52053 17.4602C2.56303 17.7277 2.77176 17.9377 3.03925 17.9802L5.46033 18.3652L7.00273 20.2675C7.17396 20.48 7.4602 20.555 7.71268 20.4575L10 19.5813L12.2886 20.4588C12.3611 20.4863 12.4361 20.5 12.5124 20.5C12.6961 20.5 12.8773 20.4188 12.9986 20.2675L14.5397 18.3652L16.9608 17.9802C17.2283 17.9377 17.4383 17.7277 17.4808 17.4602L17.8657 15.0391L19.7681 13.498C19.9793 13.3268 20.0543 13.0418 19.9581 12.7893L19.0807 10.5007Z" fill="#449D00"/>
<path d="M8.12536 9.25048C7.09168 9.25048 6.25049 8.40928 6.25049 7.3756C6.25049 6.34192 7.09168 5.50073 8.12536 5.50073C9.15904 5.50073 10.0002 6.34192 10.0002 7.3756C10.0002 8.40928 9.15904 9.25048 8.12536 9.25048ZM8.12536 6.75065C7.78038 6.75065 7.5004 7.03063 7.5004 7.3756C7.5004 7.72058 7.78038 8.00056 8.12536 8.00056C8.47034 8.00056 8.75032 7.72058 8.75032 7.3756C8.75032 7.03063 8.47034 6.75065 8.12536 6.75065Z" fill="#FAFAFA"/>
<path d="M11.8751 15.5002C10.8414 15.5002 10.0002 14.659 10.0002 13.6254C10.0002 12.5917 10.8414 11.7505 11.8751 11.7505C12.9088 11.7505 13.75 12.5917 13.75 13.6254C13.75 14.659 12.9088 15.5002 11.8751 15.5002ZM11.8751 13.0004C11.5314 13.0004 11.2502 13.2816 11.2502 13.6254C11.2502 13.9691 11.5314 14.2503 11.8751 14.2503C12.2188 14.2503 12.5001 13.9691 12.5001 13.6254C12.5001 13.2816 12.2188 13.0004 11.8751 13.0004Z" fill="#FAFAFA"/>
<path d="M6.87525 15.5003C6.74901 15.5003 6.62277 15.4628 6.51278 15.384C6.23155 15.1828 6.16655 14.7928 6.36779 14.5116L12.6174 5.76217C12.8186 5.48094 13.2086 5.41594 13.4898 5.61718C13.771 5.81717 13.8348 6.20839 13.6348 6.48837L7.38522 15.2378C7.26148 15.409 7.07024 15.5003 6.87525 15.5003Z" fill="#FAFAFA"/>
</g>
<defs>
<clipPath id="clip0_1_740">
<rect width="20" height="20" fill="white" transform="translate(0 0.5)"/>
</clipPath>
</defs>
</svg>
