<svg width="36" height="36" viewBox="0 0 36 36" fill="none" xmlns="http://www.w3.org/2000/svg">
<path d="M20.0609 24.3766C20.5312 24.3766 20.9961 24.1961 21.357 23.8406C21.7016 23.4961 21.893 23.0367 21.893 22.55C21.893 22.0633 21.7016 21.6039 21.357 21.2594C20.6461 20.5484 19.4812 20.5484 18.7703 21.2594C18.4258 21.6039 18.2344 22.0633 18.2344 22.55C18.2344 23.0367 18.4258 23.4961 18.7703 23.8406C19.1258 24.1961 19.5961 24.3766 20.0609 24.3766ZM19.5414 22.0305C19.6836 21.8883 19.875 21.8172 20.0609 21.8172C20.2469 21.8172 20.4383 21.8883 20.5805 22.0305C20.7172 22.1672 20.7937 22.3531 20.7937 22.55C20.7937 22.7469 20.7172 22.9273 20.5805 23.0695C20.2961 23.3539 19.8258 23.3539 19.5414 23.0695C19.4047 22.9328 19.3281 22.7469 19.3281 22.55C19.3281 22.3531 19.4047 22.1726 19.5414 22.0305Z" fill="#434343" stroke="#434343" stroke-width="0.5"/>
<path d="M23.9547 26.4328C23.6102 26.7773 23.4187 27.2367 23.4187 27.7234C23.4187 28.2101 23.6102 28.6695 23.9547 29.0141C24.3102 29.3695 24.7805 29.55 25.2453 29.55C25.7102 29.55 26.1805 29.3695 26.5359 29.0141C26.8805 28.6695 27.0719 28.2101 27.0719 27.7234C27.0719 27.2367 26.8805 26.7773 26.5359 26.4328C25.8195 25.7219 24.6602 25.7219 23.9492 26.4328H23.9547ZM25.7703 28.243C25.4859 28.5273 25.0156 28.5273 24.7312 28.243C24.5945 28.1062 24.518 27.9203 24.518 27.7234C24.518 27.5266 24.5945 27.3461 24.7312 27.2039C24.8734 27.0617 25.0648 26.9906 25.2508 26.9906C25.4367 26.9906 25.6281 27.0617 25.7703 27.2039C25.907 27.3406 25.9836 27.5266 25.9836 27.7234C25.9836 27.9203 25.907 28.1008 25.7703 28.243Z" fill="#434343" stroke="#434343" stroke-width="0.5"/>
<path d="M26.4484 21.3523C26.2352 21.1391 25.8906 21.1391 25.6773 21.3523L18.8633 28.1555C18.65 28.3687 18.65 28.7133 18.8633 28.9266C18.9727 29.0359 19.1094 29.0852 19.2516 29.0852C19.3937 29.0852 19.5305 29.0305 19.6398 28.9266L26.4539 22.1234C26.6672 21.9102 26.6672 21.5656 26.4539 21.3523H26.4484Z" fill="#434343" stroke="#434343" stroke-width="0.5"/>
<path d="M30.7523 25.1367C30.7523 24.8687 30.9273 24.4969 31.0969 24.1359C31.3648 23.5672 31.6711 22.9164 31.4633 22.2766C31.2445 21.6094 30.6047 21.2539 30.0414 20.9477C29.7078 20.7617 29.3578 20.5758 29.2156 20.3734C29.068 20.1656 28.9914 19.7773 28.9203 19.3945C28.8 18.7656 28.6687 18.0492 28.1055 17.6445C27.5476 17.2398 26.8312 17.3273 26.1969 17.4039C25.8086 17.4531 25.4094 17.5023 25.1633 17.4203C24.9336 17.3438 24.6547 17.0813 24.3812 16.8242C23.982 16.4469 23.5391 16.0367 22.9867 15.9109L21.7726 7.68594C21.7344 7.41797 21.5047 7.22109 21.2312 7.22109H17.8242V5.85391C17.8242 3.50781 15.9156 1.59375 13.5531 1.59375C11.1906 1.59375 9.29296 3.50234 9.29296 5.85391V7.22109H5.88593C5.61249 7.22109 5.3828 7.41797 5.34452 7.68594L3.64374 19.2141C3.40312 20.8328 3.88437 22.4789 4.95624 23.7203C6.03358 24.9672 7.59765 25.6836 9.24374 25.6836H14.4172C14.357 25.8312 14.2859 25.9844 14.2148 26.1375C13.9469 26.7063 13.6406 27.357 13.8484 27.9969C14.0672 28.6641 14.707 29.0195 15.2703 29.3258C15.6039 29.5117 15.9539 29.6977 16.0961 29.9C16.2437 30.1078 16.3203 30.4961 16.3914 30.8789C16.5117 31.5078 16.643 32.2242 17.2062 32.6289C17.7641 33.0336 18.4805 32.9461 19.1148 32.8695C19.5031 32.8203 19.9023 32.7711 20.1484 32.8531C20.3781 32.9297 20.657 33.1922 20.9305 33.4492C21.4062 33.8977 21.9422 34.4008 22.6531 34.4008C23.3641 34.4008 23.9055 33.8922 24.3758 33.4492C24.6492 33.1922 24.9336 32.9242 25.1578 32.8531C25.4039 32.7711 25.8086 32.8203 26.1914 32.8695C26.8258 32.9461 27.5422 33.0336 28.1 32.6289C28.6578 32.2188 28.7945 31.5078 28.9148 30.8789C28.9859 30.5016 29.0625 30.1078 29.2101 29.9C29.3578 29.6977 29.7023 29.5117 30.0359 29.3258C30.6047 29.0141 31.2445 28.6641 31.4578 27.9969C31.6656 27.3516 31.3594 26.7063 31.0914 26.1375C30.9219 25.782 30.7469 25.4102 30.7469 25.1367H30.7523ZM10.3812 5.85391C10.3812 4.10938 11.8031 2.6875 13.5586 2.6875C15.3141 2.6875 16.725 4.10938 16.725 5.85391V7.22109H10.3812V5.85391ZM14.2094 24.1414C14.2805 24.2945 14.3516 24.4422 14.4117 24.5898H9.23827C7.90937 24.5898 6.64608 24.0156 5.77655 23.0094C4.91249 22.0086 4.52968 20.6852 4.72108 19.3781L6.35077 8.31484H9.81796H9.8289H17.2664H17.2773H20.7445L21.8875 16.0641C21.5211 16.25 21.2094 16.5453 20.9195 16.8188C20.6461 17.0758 20.3617 17.3438 20.1375 17.4203C19.8914 17.5023 19.4867 17.4531 19.1039 17.4039C18.4695 17.3273 17.7531 17.2398 17.1953 17.6445C16.6375 18.0547 16.5008 18.7656 16.3805 19.3945C16.3094 19.7719 16.2328 20.1656 16.0851 20.3734C15.9375 20.5758 15.593 20.7617 15.2594 20.9477C14.6906 21.2594 14.0508 21.6094 13.8375 22.2766C13.6297 22.9219 13.9359 23.5672 14.2039 24.1359L14.2094 24.1414ZM30.107 26.6023C30.2875 26.9906 30.4953 27.4281 30.4242 27.6578C30.3422 27.9094 29.9211 28.1445 29.5164 28.3633C29.0734 28.6039 28.6195 28.8555 28.3297 29.2547C28.0344 29.6594 27.9414 30.1734 27.843 30.6711C27.7609 31.1195 27.668 31.5898 27.4601 31.743C27.2523 31.8961 26.7656 31.8359 26.3336 31.7812C25.825 31.7211 25.3055 31.6555 24.8242 31.8086C24.3648 31.9562 23.9875 32.3117 23.6266 32.6508C23.2875 32.9734 22.932 33.307 22.6531 33.307C22.3742 33.307 22.0187 32.9734 21.6797 32.6508C21.3187 32.3117 20.9469 31.9562 20.482 31.8086C20.2578 31.7375 20.0281 31.7102 19.793 31.7102C19.5195 31.7102 19.2461 31.743 18.9726 31.7758C18.5406 31.8305 18.0484 31.8906 17.8461 31.7375C17.6383 31.5844 17.5508 31.1195 17.4633 30.6656C17.3703 30.168 17.2719 29.6539 16.9766 29.2492C16.6867 28.85 16.2328 28.5984 15.7898 28.3578C15.3851 28.1336 14.9641 27.9039 14.882 27.6523C14.8055 27.4227 15.0133 26.9797 15.1992 26.5969C15.418 26.132 15.6476 25.6453 15.6476 25.1313C15.6476 24.6172 15.418 24.1305 15.1992 23.6656C15.0187 23.2773 14.8109 22.8398 14.882 22.6102C14.9641 22.3586 15.3851 22.1234 15.7898 21.9047C16.2328 21.6641 16.6867 21.4125 16.9766 21.0133C17.2719 20.6086 17.3648 20.0945 17.4633 19.5969C17.5453 19.1484 17.6383 18.6781 17.8461 18.525C18.0539 18.3773 18.5406 18.4375 18.9726 18.4867C19.4758 18.5469 20.0008 18.6125 20.482 18.4594C20.9414 18.3117 21.3187 17.9562 21.6797 17.6172C22.0187 17.2945 22.3742 16.9609 22.6531 16.9609C22.932 16.9609 23.2875 17.2945 23.6266 17.6172C23.9875 17.9562 24.3594 18.3117 24.8242 18.4594C25.3055 18.6125 25.825 18.5523 26.3336 18.4867C26.7656 18.432 27.2578 18.3719 27.4601 18.525C27.668 18.6781 27.7555 19.143 27.843 19.5969C27.9359 20.0945 28.0344 20.6086 28.3242 21.0133C28.6141 21.4125 29.068 21.6641 29.5109 21.9047C29.9156 22.1289 30.3367 22.3586 30.4187 22.6156C30.4953 22.8453 30.2875 23.2883 30.1016 23.6711C29.8828 24.1359 29.6531 24.6227 29.6531 25.1367C29.6531 25.6508 29.8828 26.132 30.1016 26.6023H30.107Z" fill="#434343" stroke="#434343" stroke-width="0.5"/>
<path d="M18.8086 11.1914C18.8086 10.8906 18.5625 10.6445 18.2617 10.6445H8.84999C8.54921 10.6445 8.30312 10.8906 8.30312 11.1914C8.30312 11.4922 8.54921 11.7383 8.84999 11.7383H18.2617C18.5625 11.7383 18.8086 11.4922 18.8086 11.1914Z" fill="#434343" stroke="#434343" stroke-width="0.5"/>
</svg>
