<svg width="20" height="20" viewBox="0 0 20 20" fill="none" xmlns="http://www.w3.org/2000/svg">
<g clip-path="url(#clip0_323_1717)">
<path d="M16.7188 11.4534V5.62527C16.719 5.5702 16.7046 5.51605 16.6772 5.46831C16.6498 5.42057 16.6102 5.38092 16.5625 5.35339L8.98438 0.978391C8.93687 0.950963 8.88298 0.936523 8.82813 0.936523C8.77327 0.936523 8.71938 0.950963 8.67188 0.978391L1.09375 5.35339C1.04606 5.38092 1.0065 5.42057 0.979058 5.46831C0.95162 5.51605 0.937284 5.5702 0.937502 5.62527V14.3753C0.937284 14.4303 0.95162 14.4845 0.979058 14.5322C1.0065 14.58 1.04606 14.6196 1.09375 14.6471L8.67188 19.0221C8.71938 19.0496 8.77327 19.064 8.82813 19.064C8.88298 19.064 8.93687 19.0496 8.98438 19.0221L11.8313 17.3784C12.1861 17.8756 12.6506 18.2844 13.1888 18.5733C13.7269 18.8622 14.3244 19.0234 14.9348 19.0444C15.5453 19.0654 16.1524 18.9457 16.7091 18.6945C17.2659 18.4433 17.7574 18.0673 18.1456 17.5957C18.5338 17.1241 18.8082 16.5695 18.9478 15.9749C19.0873 15.3802 19.0881 14.7614 18.9502 14.1664C18.8122 13.5714 18.5392 13.0161 18.1523 12.5434C17.7653 12.0708 17.2748 11.6936 16.7188 11.4409V11.4534ZM8.82813 1.60964L15.7813 5.62527L12.2938 7.63776L5.8375 3.33777L8.82813 1.60964ZM8.82813 9.64089L1.875 5.62527L5.23438 3.68464L11.6875 7.98776L8.82813 9.64089ZM1.5625 6.16589L8.51563 10.1815V18.2096L1.5625 14.194V6.16589ZM9.14063 18.2096V10.1815L11.9531 8.54714V10.9815C11.9531 11.0644 11.986 11.1439 12.0447 11.2025C12.1033 11.2611 12.1827 11.294 12.2656 11.294C12.3485 11.294 12.428 11.2611 12.4866 11.2025C12.5452 11.1439 12.5781 11.0644 12.5781 10.9815V8.18777L16.0781 6.16589V11.2315C15.7471 11.1411 15.4056 11.0948 15.0625 11.094C14.3862 11.0957 13.7216 11.2698 13.1313 11.5999C12.541 11.9299 12.0446 12.4049 11.689 12.9801C11.3334 13.5553 11.1303 14.2117 11.0988 14.8872C11.0674 15.5628 11.2087 16.2351 11.5094 16.8409L9.14063 18.2096ZM15.0781 18.4378C14.4137 18.4378 13.7642 18.2407 13.2118 17.8716C12.6593 17.5025 12.2287 16.9778 11.9745 16.364C11.7202 15.7501 11.6537 15.0747 11.7833 14.423C11.9129 13.7714 12.2329 13.1728 12.7027 12.703C13.1725 12.2331 13.7711 11.9132 14.4227 11.7836C15.0744 11.6539 15.7499 11.7205 16.3637 11.9747C16.9775 12.229 17.5022 12.6596 17.8713 13.212C18.2405 13.7645 18.4375 14.414 18.4375 15.0784C18.4367 15.9691 18.0825 16.8231 17.4526 17.4529C16.8228 18.0827 15.9688 18.4369 15.0781 18.4378Z" fill="#F15324"/>
<path d="M16.5625 13.4563L14.625 16.0125L13.6094 14.8188C13.5559 14.7545 13.4792 14.7142 13.3959 14.7065C13.3127 14.6989 13.2299 14.7247 13.1657 14.7781C13.1014 14.8316 13.0611 14.9084 13.0534 14.9916C13.0458 15.0748 13.0716 15.1577 13.125 15.2219L14.375 16.7156C14.4044 16.7499 14.4408 16.7775 14.4818 16.7964C14.5228 16.8152 14.5674 16.825 14.6125 16.825C14.6594 16.8236 14.7054 16.8116 14.7471 16.79C14.7888 16.7683 14.825 16.7376 14.8532 16.7L17.025 13.8344C17.0657 13.8073 17.0995 13.771 17.1237 13.7285C17.1478 13.686 17.1616 13.6384 17.164 13.5896C17.1664 13.5407 17.1573 13.492 17.1375 13.4473C17.1176 13.4026 17.0876 13.3632 17.0497 13.3323C17.0119 13.3013 16.9673 13.2797 16.9195 13.2691C16.8718 13.2585 16.8222 13.2593 16.7748 13.2714C16.7275 13.2834 16.6836 13.3064 16.6467 13.3386C16.6098 13.3707 16.581 13.411 16.5625 13.4563Z" fill="#F15324"/>
</g>
<defs>
<clipPath id="clip0_323_1717">
<rect width="20" height="20" fill="white"/>
</clipPath>
</defs>
</svg>
