<svg width="20" height="20" viewBox="0 0 20 20" fill="none" xmlns="http://www.w3.org/2000/svg">
<path d="M18.4342 11.8499V5.59461C18.4339 5.4164 18.3816 5.24215 18.2838 5.09321C18.2824 5.09133 18.2811 5.0893 18.2797 5.08758C18.1952 4.95948 18.0799 4.85465 17.9444 4.78274L10.4278 0.821646C10.2959 0.752143 10.1491 0.71582 10 0.71582C9.85093 0.71582 9.7041 0.752143 9.5722 0.821646L2.05564 4.78274C1.90755 4.86049 1.78359 4.97733 1.69723 5.12057C1.61088 5.26381 1.56542 5.42798 1.5658 5.59524V14.4063C1.56542 14.5736 1.61088 14.7378 1.69723 14.881C1.78359 15.0242 1.90755 15.1411 2.05564 15.2188L9.5722 19.1799C9.7041 19.2494 9.85094 19.2857 10 19.2857C10.1491 19.2857 10.2959 19.2494 10.4278 19.1799L15.0597 16.7376C15.3799 16.9752 15.7447 17.1459 16.1323 17.2396C16.5199 17.3333 16.9223 17.348 17.3157 17.2829C17.7091 17.2178 18.0854 17.0742 18.4221 16.8606C18.7588 16.647 19.0491 16.3678 19.2757 16.0397C19.5023 15.7116 19.6605 15.3412 19.7409 14.9507C19.8214 14.5601 19.8224 14.1574 19.7439 13.7664C19.6654 13.3755 19.5091 13.0043 19.2841 12.6751C19.0592 12.3458 18.7703 12.0652 18.4347 11.8499H18.4342ZM18.426 12.4212L16.8281 14.019L15.23 12.422C15.6789 12.0488 16.2443 11.8446 16.828 11.8446C17.4117 11.8446 17.977 12.0488 18.426 12.422V12.4212ZM14.5767 3.53805L7.10142 7.32149C6.94976 7.39772 6.82234 7.51472 6.73347 7.65934C6.64459 7.80396 6.59779 7.97049 6.5983 8.14024V11.6749C6.59829 11.6963 6.59187 11.7173 6.57987 11.735C6.56786 11.7528 6.55083 11.7665 6.53095 11.7745C6.51107 11.7825 6.48926 11.7843 6.46832 11.7798C6.44738 11.7753 6.42828 11.7646 6.41346 11.7491L5.73705 11.0431C5.66881 10.9724 5.58373 10.9202 5.48979 10.8914C5.39585 10.8626 5.29614 10.8582 5.20002 10.8785L4.75892 10.9734C4.74328 10.9767 4.72708 10.9766 4.7115 10.9729C4.69593 10.9692 4.68138 10.962 4.66893 10.952C4.65648 10.9419 4.64643 10.9292 4.63954 10.9148C4.63264 10.9003 4.62907 10.8845 4.62908 10.8685V6.90633C4.6288 6.82332 4.65166 6.74187 4.69511 6.67113C4.73855 6.60039 4.80085 6.54316 4.87502 6.50586L12.6964 2.54696L14.5767 3.53805ZM9.7908 1.23649C9.85527 1.20242 9.92709 1.18461 10 1.18461C10.0729 1.18461 10.1448 1.20242 10.2092 1.23649L12.1875 2.27915L4.66361 6.08758C4.57934 6.13071 4.5022 6.18652 4.43486 6.25305L2.31111 5.17805L9.7908 1.23649ZM9.76564 18.7501L2.27408 14.8026C2.20181 14.7647 2.14128 14.7077 2.09906 14.6379C2.05684 14.568 2.03453 14.4879 2.03455 14.4063C2.03455 14.4063 2.03783 5.57618 2.03845 5.56633L4.1947 6.65758C4.1718 6.73894 4.16024 6.82307 4.16033 6.90758V10.8685C4.16044 10.9544 4.17974 11.0392 4.21683 11.1166C4.25392 11.1941 4.30785 11.2622 4.37468 11.3162C4.44151 11.3701 4.51955 11.4084 4.6031 11.4283C4.68664 11.4481 4.77356 11.4491 4.85752 11.431L5.29877 11.336C5.31669 11.3323 5.33527 11.3332 5.35275 11.3387C5.37022 11.3441 5.38601 11.354 5.39861 11.3673L6.07502 12.0735C6.15457 12.1565 6.25716 12.2139 6.36956 12.2381C6.48196 12.2623 6.59904 12.2523 6.70574 12.2095C6.81243 12.1666 6.90386 12.0928 6.96825 11.9975C7.03264 11.9023 7.06705 11.7899 7.06705 11.6749V8.14071C7.06705 8.13118 7.07017 8.12243 7.0708 8.11305L9.58642 9.38602C9.64379 9.41468 9.70401 9.4372 9.76611 9.45321L9.76564 18.7501ZM9.79689 8.96696L7.34267 7.72477L15.0853 3.80602L17.6892 5.17821L10.2031 8.96743C10.1401 8.99915 10.0706 9.01567 10 9.01567C9.92947 9.01567 9.8599 8.99915 9.79689 8.96743V8.96696ZM10.2344 18.7501V9.45321C10.2967 9.4372 10.3572 9.41462 10.4147 9.38586L17.9616 5.56602C17.9616 5.57586 17.9655 11.6026 17.9655 11.6026C17.335 11.3406 16.6335 11.3037 15.979 11.4982C15.3245 11.6926 14.7569 12.1065 14.3716 12.6702C13.9864 13.2339 13.807 13.913 13.8636 14.5935C13.9202 15.2739 14.2094 15.9141 14.6825 16.4063L10.2344 18.7501ZM14.8986 15.9479C14.5255 15.499 14.3213 14.9337 14.3213 14.35C14.3213 13.7663 14.5255 13.201 14.8986 12.7521L16.4966 14.3499L14.8986 15.9479ZM16.828 16.8565C16.2442 16.857 15.6788 16.6527 15.23 16.2793L16.8281 14.6818L18.4261 16.2798C17.9774 16.6532 17.4119 16.8574 16.8281 16.857L16.828 16.8565ZM18.7574 15.9479L17.1594 14.3504L18.7574 12.7526C19.1304 13.2015 19.3347 13.7668 19.3347 14.3505C19.3347 14.9342 19.1304 15.4995 18.7574 15.9484V15.9479Z" fill="#D21015"/>
</svg>
