<svg width="30" height="30" viewBox="0 0 30 30" fill="none" xmlns="http://www.w3.org/2000/svg">
<g clip-path="url(#clip0_1_1359)">
<path d="M24.3461 15.1337V7.71128C24.3461 7.51798 24.2274 7.34448 24.0472 7.2744L12.3575 2.72917C12.2482 2.68663 12.127 2.68663 12.0177 2.72917L0.328184 7.2744C0.148008 7.34448 0.0292969 7.51798 0.0292969 7.71128V21.2093C0.0292969 21.4026 0.147949 21.5761 0.328184 21.6462L12.0178 26.1914C12.0724 26.2127 12.13 26.2233 12.1876 26.2233C12.2452 26.2233 12.3029 26.2127 12.3575 26.1914L18.3852 23.8477C19.3703 25.8901 21.462 27.3027 23.8772 27.3027C27.2372 27.3027 29.9706 24.5692 29.9706 21.2093C29.9707 18.007 27.4878 15.3738 24.3461 15.1337ZM12.1876 11.7536L9.61131 10.7519C13.0768 9.40458 16.5421 8.0571 20.0075 6.70956L22.5838 7.71128L12.1876 11.7536ZM5.66115 9.21591L16.057 5.17347L18.7141 6.20659C15.2487 7.55413 11.7833 8.90167 8.31791 10.2489L5.66115 9.21591ZM4.8365 9.9011L7.84916 11.0725V13.3188L6.56104 12.2217C6.43857 12.1174 6.27147 12.0832 6.11789 12.1309L4.83656 12.5294L4.8365 9.9011ZM12.1876 3.66896L14.7636 4.67056L4.36775 8.713L1.7915 7.71128L12.1876 3.66896ZM0.966797 8.39647L3.899 9.53659V12.9553C3.899 13.1531 3.99398 13.3411 4.15301 13.4582C4.31215 13.5752 4.51975 13.6099 4.70836 13.5511L6.14977 13.1028L7.75793 14.4725C7.87289 14.5705 8.01756 14.6215 8.16357 14.6215C8.25211 14.6215 8.34111 14.6027 8.4242 14.5644C8.64439 14.4627 8.78672 14.2403 8.78672 13.9976V11.4371L11.7189 12.5772V25.0693L0.966797 20.8887V8.39647ZM12.6564 25.0694V12.5772L23.4086 8.39647V15.1337C20.2668 15.3738 17.7839 18.0071 17.7839 21.2093C17.7839 21.8228 17.8754 22.4153 18.0448 22.9742L12.6564 25.0694ZM23.8773 26.3652C21.0343 26.3652 18.7214 24.0523 18.7214 21.2093C18.7214 18.3663 21.0343 16.0533 23.8773 16.0533C26.7203 16.0533 29.0332 18.3663 29.0332 21.2093C29.0332 24.0523 26.7203 26.3652 23.8773 26.3652ZM27.4915 18.3128C27.2489 18.0703 26.9265 17.9368 26.5835 17.9368C26.2406 17.9368 25.9181 18.0703 25.6755 18.3128L22.7153 21.2732L21.905 20.2536C21.6603 19.9457 21.2941 19.7691 20.9005 19.7691C20.6122 19.7691 20.3289 19.8681 20.1029 20.0477C19.8348 20.2609 19.6656 20.5658 19.6268 20.9061C19.5879 21.2465 19.6839 21.5816 19.897 21.8497L21.5623 23.9452C21.8033 24.2815 22.193 24.4818 22.6079 24.4818C22.9501 24.4818 23.272 24.3483 23.5145 24.1058L27.4915 20.1287C27.9921 19.6281 27.9921 18.8134 27.4915 18.3128ZM26.8286 19.4658L22.8515 23.4429C22.7677 23.5268 22.6727 23.5444 22.6078 23.5444C22.492 23.5444 22.3877 23.4901 22.3217 23.3955C22.3161 23.3875 22.3103 23.3797 22.3042 23.3722L20.6309 21.2665C20.5736 21.1943 20.5477 21.1041 20.5582 21.0126C20.5686 20.921 20.6142 20.839 20.6863 20.7816C20.7643 20.7196 20.8458 20.7066 20.9005 20.7066C21.0067 20.7066 21.1053 20.7541 21.1711 20.8369L22.3082 22.2678C22.3913 22.3724 22.5151 22.4365 22.6485 22.4441C22.7824 22.452 22.9121 22.4021 23.0066 22.3076L26.3384 18.9758C26.4038 18.9103 26.4909 18.8743 26.5835 18.8743C26.6761 18.8743 26.7631 18.9103 26.8286 18.9758C26.9637 19.1109 26.9637 19.3307 26.8286 19.4658Z" fill="#F15324" stroke="#F15324" stroke-width="0.2"/>
</g>
<defs>
<clipPath id="clip0_1_1359">
<rect width="30" height="30" fill="white"/>
</clipPath>
</defs>
</svg>
