<svg width="20" height="21" viewBox="0 0 20 21" fill="none" xmlns="http://www.w3.org/2000/svg">
<path d="M18.7043 4.4542L15.1328 3.02563C15.0476 2.99146 14.9524 2.99146 14.8671 3.02563L11.2957 4.4542C11.2295 4.48074 11.1727 4.52648 11.1328 4.58555C11.0928 4.64462 11.0714 4.71431 11.0714 4.78563V8.47706C11.0733 9.15534 11.2498 9.82171 11.5839 10.412C11.9181 11.0022 12.3986 11.4965 12.9793 11.8471L14.8164 12.9492C14.8719 12.9824 14.9353 13 15 13C15.0646 13 15.1281 12.9824 15.1836 12.9492L16.7857 11.9878V15.9878C16.7855 16.1431 16.7237 16.2919 16.6139 16.4017C16.5041 16.5115 16.3553 16.5733 16.2 16.5735H2.37141C2.21613 16.5733 2.06726 16.5115 1.95746 16.4017C1.84766 16.2919 1.78589 16.1431 1.7857 15.9878V7.99992H9.99998C10.0947 7.99992 10.1855 7.96229 10.2525 7.89531C10.3195 7.82834 10.3571 7.73749 10.3571 7.64277C10.3571 7.54805 10.3195 7.45721 10.2525 7.39024C10.1855 7.32326 10.0947 7.28563 9.99998 7.28563H1.7857V6.44277C1.78589 6.28749 1.84766 6.13862 1.95746 6.02882C2.06726 5.91902 2.21613 5.85725 2.37141 5.85706H9.99998C10.0947 5.85706 10.1855 5.81943 10.2525 5.75246C10.3195 5.68548 10.3571 5.59464 10.3571 5.49992C10.3571 5.4052 10.3195 5.31436 10.2525 5.24738C10.1855 5.1804 10.0947 5.14277 9.99998 5.14277H2.37141C2.02669 5.14296 1.69614 5.27999 1.45238 5.52374C1.20863 5.7675 1.0716 6.09805 1.07141 6.44277V15.9856C1.0716 16.3304 1.20863 16.6609 1.45238 16.9047C1.69614 17.1484 2.02669 17.2854 2.37141 17.2856H16.2C16.5447 17.2854 16.8753 17.1484 17.119 16.9047C17.3628 16.6609 17.4998 16.3304 17.5 15.9856V11.4999C17.9449 11.1311 18.3034 10.669 18.5502 10.1465C18.7971 9.62392 18.9262 9.05355 18.9286 8.47563V4.78563C18.9285 4.71431 18.9072 4.64462 18.8672 4.58555C18.8272 4.52648 18.7705 4.48074 18.7043 4.4542ZM18.2143 8.47706C18.2128 9.03206 18.0684 9.57732 17.7949 10.0603C17.5214 10.5432 17.1281 10.9475 16.6528 11.2342L15 12.2263L13.3471 11.2342C12.8719 10.9475 12.4786 10.5432 12.2051 10.0603C11.9316 9.57732 11.7872 9.03206 11.7857 8.47706V5.02706L15 3.74135L18.2143 5.02706V8.47706Z" fill="white"/>
<path d="M13.8243 7.45125C13.7912 7.41805 13.7518 7.3917 13.7084 7.37371C13.6651 7.35572 13.6186 7.34645 13.5717 7.34641C13.5248 7.34638 13.4783 7.35559 13.4349 7.37352C13.3916 7.39144 13.3522 7.41774 13.319 7.4509C13.2857 7.48406 13.2594 7.52343 13.2414 7.56677C13.2234 7.61011 13.2141 7.65657 13.2141 7.7035C13.2141 7.75043 13.2233 7.7969 13.2412 7.84027C13.2591 7.88364 13.2854 7.92305 13.3186 7.95625L14.2715 8.9084C14.3384 8.97535 14.4293 9.01296 14.524 9.01296C14.6187 9.01296 14.7095 8.97535 14.7765 8.9084L16.6815 7.0034C16.7484 6.93633 16.786 6.84542 16.7859 6.75064C16.7859 6.65587 16.7482 6.56501 16.6811 6.49804C16.614 6.43107 16.5231 6.39349 16.4283 6.39355C16.3336 6.39362 16.2427 6.43133 16.1757 6.4984L14.5236 8.15125L13.8243 7.45125Z" fill="white"/>
<path d="M3.57138 14.4285C3.47666 14.4285 3.38582 14.4661 3.31884 14.5331C3.25186 14.6 3.21423 14.6909 3.21423 14.7856C3.21423 14.8803 3.25186 14.9712 3.31884 15.0381C3.38582 15.1051 3.47666 15.1428 3.57138 15.1428H6.42852C6.52324 15.1428 6.61408 15.1051 6.68106 15.0381C6.74803 14.9712 6.78566 14.8803 6.78566 14.7856C6.78566 14.6909 6.74803 14.6 6.68106 14.5331C6.61408 14.4661 6.52324 14.4285 6.42852 14.4285H3.57138Z" fill="white"/>
</svg>
