<svg width="36" height="36" viewBox="0 0 36 36" fill="none" xmlns="http://www.w3.org/2000/svg">
<g clip-path="url(#clip0_0_105)">
<path d="M30.3744 5.62562C27.0691 2.32034 22.6743 0.5 18 0.5C13.3257 0.5 8.9309 2.32034 5.62562 5.62562C2.32034 8.9309 0.5 13.3257 0.5 18C0.5 22.6743 2.32034 27.0691 5.62562 30.3744C8.9309 33.6797 13.3257 35.5 18 35.5C22.6743 35.5 27.0691 33.6797 30.3744 30.3744C33.6797 27.0691 35.5 22.6743 35.5 18C35.5 13.3257 33.6797 8.9309 30.3744 5.62562ZM8.0951 29.8465C8.67295 24.8744 12.9478 21.0356 18 21.0356C20.6633 21.0356 23.1678 22.0733 25.0517 23.9569C26.6432 25.5486 27.6469 27.6269 27.9052 29.8462C25.2215 32.0938 21.7662 33.4492 18 33.4492C14.2338 33.4492 10.7787 32.094 8.0951 29.8465ZM18 18.9234C15.0694 18.9234 12.6848 16.5388 12.6848 13.6082C12.6848 10.6773 15.0694 8.29297 18 8.29297C20.9306 8.29297 23.3152 10.6773 23.3152 13.6082C23.3152 16.5388 20.9306 18.9234 18 18.9234ZM29.6702 28.1126C29.1477 26.0058 28.0579 24.0632 26.5017 22.5069C25.2413 21.2465 23.7502 20.301 22.124 19.7085C24.0789 18.3827 25.366 16.1428 25.366 13.6082C25.366 9.54667 22.0615 6.24219 18 6.24219C13.9385 6.24219 10.634 9.54667 10.634 13.6082C10.634 16.1441 11.9222 18.3848 13.8787 19.7103C12.3825 20.2556 10.998 21.0986 9.80676 22.2084C8.08175 23.8148 6.88386 25.8632 6.32844 28.111C3.97618 25.3994 2.55078 21.8631 2.55078 18C2.55078 9.48125 9.48125 2.55078 18 2.55078C26.5188 2.55078 33.4492 9.48125 33.4492 18C33.4492 21.8639 32.0233 25.401 29.6702 28.1126Z" fill="#434343"/>
</g>
<defs>
<clipPath id="clip0_0_105">
<rect width="35" height="35" fill="white" transform="translate(0.5 0.5)"/>
</clipPath>
</defs>
</svg>
