<svg width="20" height="21" viewBox="0 0 20 21" fill="none" xmlns="http://www.w3.org/2000/svg">
<g clip-path="url(#clip0_1_807)">
<path d="M17.2413 11.2547V5.77457C17.2413 5.66203 17.1813 5.55813 17.084 5.50195L8.89923 0.776563C8.80188 0.720312 8.68181 0.720312 8.58446 0.776563L0.399814 5.50199C0.302393 5.55816 0.242432 5.66207 0.242432 5.77461V15.2254C0.242432 15.3379 0.302393 15.4417 0.399814 15.498L8.58446 20.2235C8.63302 20.2516 8.68747 20.2656 8.74181 20.2656C8.79614 20.2656 8.85048 20.2516 8.89919 20.2235L11.4735 18.7371C12.348 19.6718 13.591 20.2575 14.9689 20.2575C17.6093 20.2575 19.7576 18.1093 19.7576 15.4689C19.7577 13.6502 18.7384 12.0652 17.2413 11.2547ZM13.5502 4.18867L5.8377 8.64145C5.74024 8.69766 5.68036 8.8016 5.68036 8.91406V10.6186L3.60489 9.42035V7.53402L11.4747 2.99031L13.5502 4.18867ZM8.74184 19.5874L0.871963 15.0437V5.95625L8.74184 1.4125L10.8453 2.62688L3.1327 7.07977C3.03528 7.13594 2.97536 7.23977 2.97536 7.35227V9.60203C2.97536 9.71449 3.03528 9.8184 3.1327 9.87461L5.8377 11.4363C5.88638 11.4645 5.94067 11.4785 5.99505 11.4785C6.04942 11.4785 6.1038 11.4645 6.15239 11.4363C6.24989 11.3802 6.30985 11.2762 6.30985 11.1637V9.09578L14.1796 4.55207L16.6117 5.95625V10.9705C16.0991 10.7827 15.5457 10.6802 14.9689 10.6802C12.3284 10.6802 10.1803 12.8283 10.1803 15.4689C10.1803 16.5027 10.5104 17.46 11.0698 18.2434L8.74184 19.5874ZM14.969 19.6281C12.6755 19.6281 10.8097 17.7622 10.8097 15.4689C10.8097 13.1755 12.6755 11.3097 14.969 11.3097C17.2623 11.3097 19.1281 13.1755 19.1281 15.4689C19.1281 17.7622 17.2623 19.6281 14.969 19.6281ZM17.8411 14.729C17.8411 15.9047 16.8847 16.8612 15.7089 16.8614H13.4101L14.7061 17.7685C14.8486 17.8682 14.8833 18.0645 14.7835 18.2069C14.7223 18.2943 14.6246 18.3411 14.5254 18.3411C14.4631 18.3411 14.4001 18.3227 14.3452 18.2842L12.2309 16.8045C12.1469 16.7456 12.0967 16.6493 12.0967 16.5466C12.0967 16.4439 12.1468 16.3477 12.2309 16.2887L14.3452 14.8089C14.4876 14.7093 14.6838 14.7437 14.7835 14.8862C14.8832 15.0286 14.8486 15.2249 14.7062 15.3245L13.4099 16.2319H15.7089C16.5375 16.2318 17.2117 15.5576 17.2117 14.729C17.2117 13.9005 16.5375 13.2263 15.7089 13.2262H13.4379C13.264 13.2262 13.1232 13.0854 13.1232 12.9114C13.1232 12.7376 13.264 12.5967 13.4379 12.5967H15.7089C16.8847 12.5968 17.8411 13.5534 17.8411 14.729Z" fill="white"/>
</g>
<defs>
<clipPath id="clip0_1_807">
<rect width="20" height="20" fill="white" transform="translate(0 0.5)"/>
</clipPath>
</defs>
</svg>
