<svg width="24" height="25" viewBox="0 0 24 25" fill="none" xmlns="http://www.w3.org/2000/svg">
<path d="M4.99997 22.2501C4.7298 22.2491 4.46328 22.1876 4.21997 22.0701C3.92173 21.93 3.66941 21.708 3.49238 21.4301C3.31535 21.1521 3.22088 20.8296 3.21997 20.5001V3.50011C3.22127 3.26814 3.26842 3.03871 3.35871 2.82502C3.44899 2.61133 3.58063 2.4176 3.74606 2.25496C3.91148 2.09233 4.10742 1.964 4.32261 1.87736C4.53781 1.79072 4.76801 1.74747 4.99997 1.75011H19C19.4633 1.75274 19.9069 1.93796 20.2345 2.26558C20.5621 2.5932 20.7473 3.03679 20.75 3.50011V20.5001C20.7435 20.8168 20.6512 21.1258 20.4828 21.3941C20.3145 21.6624 20.0766 21.8801 19.7943 22.0238C19.512 22.1675 19.196 22.2319 18.88 22.2101C18.564 22.1883 18.2599 22.0812 18 21.9001L12.2 17.5501C12.1574 17.516 12.1045 17.4975 12.05 17.4975C11.9954 17.4975 11.9425 17.516 11.9 17.5501L6.04997 21.9001C5.74638 22.126 5.37839 22.2487 4.99997 22.2501ZM4.99997 3.25011C4.93367 3.25011 4.87008 3.27645 4.82319 3.32334C4.77631 3.37022 4.74997 3.43381 4.74997 3.50011V20.5001C4.74962 20.5464 4.76265 20.5918 4.78748 20.6308C4.81232 20.6698 4.84791 20.7008 4.88997 20.7201C4.92825 20.7463 4.97357 20.7604 5.01997 20.7604C5.06637 20.7604 5.11169 20.7463 5.14997 20.7201L11 16.3501C11.3042 16.126 11.6721 16.005 12.05 16.005C12.4278 16.005 12.7958 16.126 13.1 16.3501L18.9 20.7001C18.9382 20.7263 18.9836 20.7404 19.03 20.7404C19.0764 20.7404 19.1217 20.7263 19.16 20.7001C19.202 20.6808 19.2376 20.6498 19.2625 20.6108C19.2873 20.5718 19.3003 20.5264 19.3 20.4801V3.50011C19.3007 3.46262 19.293 3.42543 19.2775 3.39131C19.2619 3.35719 19.2389 3.32701 19.2101 3.303C19.1813 3.27899 19.1474 3.26177 19.111 3.25261C19.0747 3.24346 19.0367 3.24261 19 3.25011H4.99997Z" fill="#434343"/>
</svg>
