<svg width="30" height="30" viewBox="0 0 30 30" fill="none" xmlns="http://www.w3.org/2000/svg">
<path d="M28.6843 14.2163L26.7366 12.1997C26.5863 12.0445 26.5146 11.8245 26.545 11.6107L26.936 8.83552C27.0967 7.69758 26.3353 6.65135 25.2043 6.45341L22.4436 5.96927C22.2305 5.932 22.0429 5.79548 21.9422 5.60373L20.6305 3.12924C20.0918 2.1127 18.8601 1.71269 17.827 2.21887L15.3104 3.45059C15.1159 3.54577 14.8842 3.54577 14.6897 3.45059L12.1732 2.21887C11.1394 1.71263 9.90899 2.11264 9.36967 3.12924L8.05794 5.60373C7.95585 5.79822 7.77241 5.93066 7.55656 5.96927L4.79654 6.45341C3.66479 6.65063 2.9041 7.69758 3.06477 8.83479L3.45513 11.6107C3.48548 11.8272 3.41652 12.0424 3.26344 12.1996L1.31582 14.2162C0.518587 15.0411 0.518587 16.3348 1.31582 17.1597L3.26344 19.1762C3.41379 19.3314 3.48548 19.5514 3.45513 19.7652L3.0641 22.5404C2.90343 23.6783 3.66479 24.7246 4.79581 24.9225L7.55651 25.4067C7.76962 25.4439 7.95719 25.5804 8.05789 25.7722L9.36961 28.2467C9.90893 29.2632 11.14 29.6632 12.1731 29.1571L14.6897 27.9253C14.8841 27.8302 15.1159 27.8302 15.3104 27.9253L17.8269 29.1571C18.1297 29.3053 18.449 29.3757 18.7635 29.3757C19.5221 29.3757 20.2497 28.9654 20.6304 28.2467L21.9421 25.7722C22.0442 25.5778 22.2276 25.4454 22.4435 25.4067L25.2035 24.9226C26.3352 24.7254 27.0959 23.6784 26.9352 22.5412L26.5448 19.7653C26.5145 19.5487 26.5834 19.3336 26.7365 19.1763L28.6842 17.1598C29.4816 16.3349 29.4816 15.0411 28.6843 14.2163ZM27.6684 16.179L25.7208 18.1942C25.2635 18.6673 25.0546 19.3114 25.1463 19.9625L25.5367 22.7377C25.5904 23.117 25.3367 23.466 24.9601 23.5322L22.1987 24.0163C21.5504 24.1301 21.0021 24.5294 20.6939 25.1108L19.3822 27.5846C19.2029 27.9239 18.7932 28.0577 18.4477 27.8888L15.9311 26.6563C15.6401 26.5143 15.3201 26.4426 15.0001 26.4426C14.6802 26.4426 14.3601 26.5143 14.0691 26.657L11.5525 27.8881C11.2084 28.0577 10.7974 27.9239 10.6181 27.5846L9.30635 25.1101C8.99805 24.5281 8.44908 24.1295 7.80014 24.0163L5.04011 23.5315C4.66359 23.4653 4.40975 23.117 4.46286 22.7377L4.85389 19.9625C4.94561 19.3114 4.73662 18.6673 4.28009 18.1949L2.33181 16.179C2.0663 15.9031 2.0663 15.4728 2.33181 15.1969L4.27942 13.1818C4.73667 12.7087 4.94561 12.0645 4.85389 11.4134L4.46353 8.63824C4.40975 8.25893 4.66353 7.90997 5.04006 7.84374L7.80148 7.3596C8.44975 7.24579 8.99805 6.8465 9.30629 6.26512L10.618 3.7913C10.7973 3.45198 11.2084 3.3196 11.5525 3.48713L14.0691 4.71958C14.6511 5.00372 15.349 5.00439 15.9311 4.71891L18.4477 3.48791C18.7925 3.31826 19.2029 3.45204 19.3822 3.79135L20.6939 6.26585C21.0022 6.8479 21.5512 7.24657 22.2001 7.35966L24.9601 7.84447C25.3367 7.91069 25.5905 8.25893 25.5374 8.6383L25.1464 11.4135C25.0546 12.0646 25.2636 12.7087 25.7202 13.1811L27.6684 15.1969C27.9339 15.4728 27.9339 15.9032 27.6684 16.179Z" fill="#F15324" stroke="#F15324" stroke-width="0.2"/>
<path d="M19.7367 10.9515C19.4609 10.6757 19.014 10.6757 18.7381 10.9515L10.2636 19.4261C9.98767 19.702 9.98767 20.1489 10.2636 20.4247C10.4015 20.5626 10.5822 20.6317 10.7629 20.6317C10.9436 20.6317 11.1243 20.5627 11.2622 20.4247L19.7367 11.9502C20.0126 11.6743 20.0126 11.2274 19.7367 10.9515Z" fill="#F15324" stroke="#F15324" stroke-width="0.2"/>
<path d="M14.2966 12.1583C14.2966 10.5996 13.029 9.33203 11.4704 9.33203C9.9117 9.33203 8.6441 10.5996 8.6441 12.1583C8.6441 13.7169 9.9117 14.9845 11.4704 14.9845C13.029 14.9845 14.2966 13.7169 14.2966 12.1583ZM10.0566 12.1583C10.0566 11.379 10.6911 10.7445 11.4704 10.7445C12.2497 10.7445 12.8842 11.379 12.8842 12.1583C12.8842 12.9376 12.2497 13.5721 11.4704 13.5721C10.691 13.5721 10.0566 12.9376 10.0566 12.1583Z" fill="#F15324" stroke="#F15324" stroke-width="0.2"/>
<path d="M18.5297 16.3916C16.971 16.3916 15.7034 17.6592 15.7034 19.2178C15.7034 20.7765 16.971 22.0441 18.5297 22.0441C20.0883 22.0441 21.3559 20.7765 21.3559 19.2178C21.3559 17.6592 20.0883 16.3916 18.5297 16.3916ZM18.5297 20.6316C17.7504 20.6316 17.1159 19.9971 17.1159 19.2178C17.1159 18.4385 17.7504 17.804 18.5297 17.804C19.309 17.804 19.9435 18.4385 19.9435 19.2178C19.9435 19.9971 19.309 20.6316 18.5297 20.6316Z" fill="#F15324" stroke="#F15324" stroke-width="0.2"/>
</svg>
