<svg width="30" height="30" viewBox="0 0 30 30" fill="none" xmlns="http://www.w3.org/2000/svg">
<path d="M26.3157 1.57511L2.50316 8.95323C2.06206 9.07032 1.67055 9.3267 1.3869 9.68423C1.10325 10.0418 0.942629 10.4813 0.928933 10.9375C0.915238 11.3937 1.0492 11.8421 1.31089 12.216C1.57258 12.5899 1.948 12.8693 2.38129 13.0126L13.1813 16.6314C13.2207 16.6463 13.2567 16.6689 13.2872 16.6979C13.3178 16.7269 13.3423 16.7616 13.3594 16.8001L17.3344 27.1126C17.4953 27.5269 17.7792 27.882 18.1479 28.13C18.5167 28.3781 18.9525 28.5073 19.3969 28.5001H19.4532C19.905 28.4987 20.3449 28.3548 20.7101 28.0888C21.0754 27.8229 21.3475 27.4484 21.4875 27.0189L29.0625 4.27511C29.1813 3.91097 29.1987 3.52136 29.1128 3.14809C29.0269 2.77482 28.841 2.43198 28.575 2.15636C28.2906 1.8577 27.928 1.64489 27.5286 1.54213C27.1292 1.43937 26.7089 1.4508 26.3157 1.57511Z" fill="#F15324"/>
</svg>
