<svg width="30" height="30" viewBox="0 0 30 30" fill="none" xmlns="http://www.w3.org/2000/svg">
<g clip-path="url(#clip0_1_727)">
<path d="M8.125 23.75H5.625C5.28 23.75 5 23.47 5 23.125C5 22.78 5.28 22.5 5.625 22.5H8.125C8.47 22.5 8.75 22.78 8.75 23.125C8.75 23.47 8.47 23.75 8.125 23.75Z" fill="#00040D"/>
<path d="M28.4375 23.75H26.875C26.53 23.75 26.25 23.47 26.25 23.125C26.25 22.78 26.53 22.5 26.875 22.5H27.9187L28.7612 18.01C28.75 15.7125 26.7875 13.75 24.375 13.75H20.2712L18.2825 22.5H21.875C22.22 22.5 22.5 22.78 22.5 23.125C22.5 23.47 22.22 23.75 21.875 23.75H17.5C17.31 23.75 17.13 23.6638 17.0112 23.515C16.8925 23.3675 16.8475 23.1725 16.89 22.9875L19.1625 12.9875C19.2275 12.7013 19.48 12.5 19.7725 12.5H24.375C27.4762 12.5 30 15.0238 30 18.125L29.0512 23.24C28.9962 23.5362 28.7387 23.75 28.4375 23.75Z" fill="#00040D"/>
<path d="M24.375 26.25C22.6525 26.25 21.25 24.8488 21.25 23.125C21.25 21.4013 22.6525 20 24.375 20C26.0975 20 27.5 21.4013 27.5 23.125C27.5 24.8488 26.0975 26.25 24.375 26.25ZM24.375 21.25C23.3413 21.25 22.5 22.0913 22.5 23.125C22.5 24.1588 23.3413 25 24.375 25C25.4088 25 26.25 24.1588 26.25 23.125C26.25 22.0913 25.4088 21.25 24.375 21.25Z" fill="#00040D"/>
<path d="M10.625 26.25C8.9025 26.25 7.5 24.8488 7.5 23.125C7.5 21.4013 8.9025 20 10.625 20C12.3475 20 13.75 21.4013 13.75 23.125C13.75 24.8488 12.3475 26.25 10.625 26.25ZM10.625 21.25C9.59125 21.25 8.75 22.0913 8.75 23.125C8.75 24.1588 9.59125 25 10.625 25C11.6588 25 12.5 24.1588 12.5 23.125C12.5 22.0913 11.6588 21.25 10.625 21.25Z" fill="#00040D"/>
<path d="M8.125 12.5H3.125C2.78 12.5 2.5 12.22 2.5 11.875C2.5 11.53 2.78 11.25 3.125 11.25H8.125C8.47 11.25 8.75 11.53 8.75 11.875C8.75 12.22 8.47 12.5 8.125 12.5Z" fill="#00040D"/>
<path d="M8.125 16.25H1.875C1.53 16.25 1.25 15.97 1.25 15.625C1.25 15.28 1.53 15 1.875 15H8.125C8.47 15 8.75 15.28 8.75 15.625C8.75 15.97 8.47 16.25 8.125 16.25Z" fill="#00040D"/>
<path d="M8.125 20H0.625C0.28 20 0 19.72 0 19.375C0 19.03 0.28 18.75 0.625 18.75H8.125C8.47 18.75 8.75 19.03 8.75 19.375C8.75 19.72 8.47 20 8.125 20Z" fill="#00040D"/>
<path d="M17.5 23.75H13.125C12.78 23.75 12.5 23.47 12.5 23.125C12.5 22.78 12.78 22.5 13.125 22.5H17.0013L19.8413 10H5.625C5.28 10 5 9.72 5 9.375C5 9.03 5.28 8.75 5.625 8.75H20.625C20.815 8.75 20.995 8.83625 21.1138 8.985C21.2325 9.1325 21.2775 9.3275 21.235 9.5125L18.11 23.2625C18.045 23.5488 17.7913 23.75 17.5 23.75Z" fill="#00040D"/>
</g>
<defs>
<clipPath id="clip0_1_727">
<rect width="30" height="30" fill="white"/>
</clipPath>
</defs>
</svg>
