<svg width="30" height="30" viewBox="0 0 30 30" fill="none" xmlns="http://www.w3.org/2000/svg">
<path fill-rule="evenodd" clip-rule="evenodd" d="M15.5871 19.4129L19.3371 23.1629C19.7032 23.529 20.2967 23.529 20.6629 23.1629L24.4129 19.4129C24.779 19.0468 24.779 18.4532 24.4129 18.0871C24.0467 17.721 23.4532 17.721 23.0871 18.0871L20.9375 20.2366V7.5C20.9375 6.98224 20.5177 6.5625 20 6.5625C19.4822 6.5625 19.0625 6.98224 19.0625 7.5V20.2366L16.9129 18.0871C16.5467 17.721 15.9532 17.721 15.5871 18.0871C15.221 18.4532 15.221 19.0468 15.5871 19.4129ZM10.6629 6.83709C10.2968 6.47097 9.7032 6.47097 9.33708 6.83709L5.58708 10.5871C5.22097 10.9532 5.22097 11.5468 5.58708 11.9129C5.9532 12.279 6.5468 12.279 6.91291 11.9129L9.0625 9.76332V22.5C9.0625 23.0177 9.48223 23.4375 10 23.4375C10.5178 23.4375 10.9375 23.0177 10.9375 22.5V9.76332L13.0871 11.9129C13.4532 12.279 14.0467 12.279 14.4129 11.9129C14.779 11.5468 14.779 10.9532 14.4129 10.5871L10.6629 6.83709Z" fill="#F15324"/>
</svg>
