<svg width="26" height="26" viewBox="0 0 26 26" fill="none" xmlns="http://www.w3.org/2000/svg">
<path d="M24.6043 13.8957L19.7551 9.04649C19.6465 8.93723 19.5174 8.85062 19.3751 8.79168C19.2328 8.73274 19.0802 8.70264 18.9262 8.70313H12.2188V9.48438H14.1719V15.3438H14.9531V9.48438H18.9262C18.9775 9.48434 19.0284 9.49443 19.0758 9.51407C19.1233 9.53371 19.1664 9.56251 19.2027 9.59883L19.8695 10.2656H18.0781C17.8709 10.2656 17.6722 10.3479 17.5257 10.4945C17.3792 10.641 17.2969 10.8397 17.2969 11.0469V14.5625C17.2969 14.7697 17.3792 14.9684 17.5257 15.1149C17.6722 15.2614 17.8709 15.3438 18.0781 15.3438H23.9375V18.4688C23.9375 18.5724 23.8963 18.6717 23.8231 18.745C23.7498 18.8182 23.6505 18.8594 23.5469 18.8594H22.7344C22.641 18.209 22.3162 17.6142 21.8197 17.1839C21.3232 16.7536 20.6883 16.5167 20.0312 16.5167C19.3742 16.5167 18.7393 16.7536 18.2428 17.1839C17.7463 17.6142 17.4215 18.209 17.3281 18.8594H11.7969C11.7035 18.209 11.3787 17.6142 10.8822 17.1839C10.3857 16.7536 9.75076 16.5167 9.09375 16.5167C8.43674 16.5167 7.80175 16.7536 7.30525 17.1839C6.80875 17.6142 6.48402 18.209 6.39062 18.8594H5.57812C5.47452 18.8594 5.37517 18.8182 5.30191 18.745C5.22866 18.6717 5.1875 18.5724 5.1875 18.4688V14.9531H4.40625V18.4688C4.40625 18.7796 4.52971 19.0776 4.74948 19.2974C4.96925 19.5172 5.26732 19.6406 5.57812 19.6406H6.39062C6.47589 20.2346 6.75476 20.7838 7.18398 21.2031H1.28125V21.9844H20.0312C20.6881 21.9831 21.3226 21.7457 21.8188 21.3154C22.3151 20.8851 22.6401 20.2907 22.7344 19.6406H23.5469C23.8577 19.6406 24.1557 19.5172 24.3755 19.2974C24.5953 19.0776 24.7188 18.7796 24.7188 18.4688V14.1719C24.7187 14.0683 24.6776 13.9689 24.6043 13.8957ZM7.14062 19.25C7.14062 18.8637 7.25517 18.4861 7.46979 18.1649C7.6844 17.8437 7.98943 17.5934 8.34632 17.4456C8.70321 17.2977 9.09592 17.259 9.47479 17.3344C9.85365 17.4098 10.2017 17.5958 10.4748 17.8689C10.748 18.1421 10.934 18.4901 11.0093 18.869C11.0847 19.2478 11.046 19.6405 10.8982 19.9974C10.7504 20.3543 10.5 20.6594 10.1788 20.874C9.85766 21.0886 9.48004 21.2031 9.09375 21.2031C8.57594 21.2025 8.07951 20.9965 7.71337 20.6304C7.34722 20.2642 7.14125 19.7678 7.14062 19.25ZM11.0035 21.2031C11.4327 20.7838 11.7116 20.2346 11.7969 19.6406H17.3281C17.4134 20.2346 17.6923 20.7838 18.1215 21.2031H11.0035ZM20.0312 21.2031C19.645 21.2031 19.2673 21.0886 18.9462 20.874C18.625 20.6594 18.3746 20.3543 18.2268 19.9974C18.079 19.6405 18.0403 19.2478 18.1157 18.869C18.191 18.4901 18.377 18.1421 18.6502 17.8689C18.9233 17.5958 19.2713 17.4098 19.6502 17.3344C20.0291 17.259 20.4218 17.2977 20.7787 17.4456C21.1356 17.5934 21.4406 17.8437 21.6552 18.1649C21.8698 18.4861 21.9844 18.8637 21.9844 19.25C21.9838 19.7678 21.7778 20.2642 21.4116 20.6304C21.0455 20.9965 20.5491 21.2025 20.0312 21.2031ZM18.0781 14.5625V11.0469H20.6508L23.9375 14.3336V14.5625H18.0781Z" fill="#434343"/>
<path d="M9.48438 18.8594H8.70312V19.6406H9.48438V18.8594Z" fill="#434343"/>
<path d="M20.4219 18.8594H19.6406V19.6406H20.4219V18.8594Z" fill="#434343"/>
<path d="M3.23438 17.6875H1.28125V18.4688H3.23438V17.6875Z" fill="#434343"/>
<path d="M3.23438 16.125H2.0625V16.9062H3.23438V16.125Z" fill="#434343"/>
<path d="M3.23438 14.5625H2.45312V15.3438H3.23438V14.5625Z" fill="#434343"/>
<path d="M6.35938 14.1719C7.36373 14.1719 8.34554 13.8741 9.18063 13.3161C10.0157 12.7581 10.6666 11.965 11.051 11.0371C11.4353 10.1092 11.5359 9.08812 11.3399 8.10306C11.144 7.118 10.6603 6.21316 9.95015 5.50298C9.23996 4.79279 8.33513 4.30914 7.35007 4.1132C6.36501 3.91726 5.34397 4.01783 4.41606 4.40218C3.48815 4.78653 2.69506 5.4374 2.13707 6.2725C1.57908 7.10759 1.28125 8.08939 1.28125 9.09375C1.2828 10.4401 1.81831 11.7308 2.77031 12.6828C3.72231 13.6348 5.01305 14.1703 6.35938 14.1719ZM6.35938 4.79688C7.20922 4.79688 8.03997 5.04888 8.74659 5.52103C9.45321 5.99318 10.0039 6.66426 10.3292 7.44941C10.6544 8.23456 10.7395 9.09852 10.5737 9.93203C10.4079 10.7655 9.99865 11.5312 9.39773 12.1321C8.7968 12.733 8.03117 13.1423 7.19765 13.3081C6.36414 13.4739 5.50018 13.3888 4.71503 13.0635C3.92988 12.7383 3.2588 12.1876 2.78665 11.481C2.31451 10.7744 2.0625 9.94359 2.0625 9.09375C2.06384 7.95456 2.51698 6.86242 3.32251 6.05689C4.12804 5.25136 5.22019 4.79822 6.35938 4.79688Z" fill="#434343"/>
<path d="M6.35938 12.6094C6.46297 12.6094 6.56231 12.5682 6.63555 12.4949C6.88711 12.2434 9.09375 9.98828 9.09375 8.3125C9.09375 7.5873 8.80566 6.8918 8.29287 6.37901C7.78008 5.86621 7.08458 5.57812 6.35938 5.57812C5.63417 5.57812 4.93867 5.86621 4.42588 6.37901C3.91309 6.8918 3.625 7.5873 3.625 8.3125C3.625 9.98828 5.83164 12.2434 6.0832 12.4949C6.15644 12.5682 6.25578 12.6094 6.35938 12.6094ZM6.35938 6.35938C6.87719 6.36 7.37361 6.56597 7.73976 6.93212C8.10591 7.29826 8.31188 7.79469 8.3125 8.3125C8.3125 9.31484 7.0832 10.8637 6.35938 11.6527C5.63555 10.8637 4.40625 9.31484 4.40625 8.3125C4.40687 7.79469 4.61284 7.29826 4.97899 6.93212C5.34514 6.56597 5.84156 6.36 6.35938 6.35938Z" fill="#434343"/>
<path d="M7.53125 8.3125C7.53125 8.08073 7.46252 7.85416 7.33375 7.66144C7.20499 7.46873 7.02196 7.31853 6.80783 7.22983C6.5937 7.14113 6.35808 7.11793 6.13075 7.16314C5.90343 7.20836 5.69462 7.31997 5.53073 7.48386C5.36685 7.64775 5.25523 7.85656 5.21002 8.08388C5.1648 8.3112 5.18801 8.54683 5.2767 8.76096C5.3654 8.97509 5.5156 9.15811 5.70832 9.28688C5.90103 9.41565 6.1276 9.48438 6.35938 9.48438C6.67018 9.48438 6.96825 9.36091 7.18802 9.14114C7.40779 8.92137 7.53125 8.6233 7.53125 8.3125ZM5.96875 8.3125C5.96875 8.23524 5.99166 8.15972 6.03458 8.09548C6.07751 8.03124 6.13851 7.98118 6.20989 7.95161C6.28127 7.92204 6.35981 7.91431 6.43558 7.92938C6.51136 7.94445 6.58096 7.98166 6.63559 8.03629C6.69022 8.09092 6.72742 8.16052 6.74249 8.23629C6.75757 8.31207 6.74983 8.39061 6.72027 8.46199C6.6907 8.53336 6.64063 8.59437 6.5764 8.63729C6.51216 8.68022 6.43663 8.70313 6.35938 8.70313C6.25578 8.70313 6.15642 8.66197 6.08316 8.58871C6.00991 8.51546 5.96875 8.4161 5.96875 8.3125Z" fill="#434343"/>
<path d="M17.6875 16.125H16.125V16.9062H17.6875V16.125Z" fill="#434343"/>
</svg>
