<svg width="25" height="26" viewBox="0 0 25 26" fill="none" xmlns="http://www.w3.org/2000/svg">
<path d="M23.4375 19.25V22.375C23.4375 23.2367 22.7367 23.9375 21.875 23.9375H3.125C2.26328 23.9375 1.5625 23.2367 1.5625 22.375V19.25C1.5625 18.8188 1.91172 18.4688 2.34375 18.4688C2.77578 18.4688 3.125 18.8188 3.125 19.25V22.375H21.875V19.25C21.875 18.8188 22.2242 18.4688 22.6562 18.4688C23.0883 18.4688 23.4375 18.8188 23.4375 19.25Z" fill="#F15324"/>
<path d="M6.47886 8.86485C6.17339 8.55938 6.17339 8.06563 6.47886 7.76016L11.9468 2.29219C12.2523 1.98594 12.7515 1.98985 13.0531 2.29219L18.521 7.76016C18.8265 8.06563 18.8265 8.55938 18.521 8.86485C18.3687 9.01719 18.1687 9.09375 17.9687 9.09375C17.7687 9.09375 17.5687 9.01719 17.4164 8.86485L13.2812 4.72969V18.4688C13.2812 18.9 12.932 19.25 12.5 19.25C12.0679 19.25 11.7187 18.9 11.7187 18.4688V4.72969L7.58354 8.86485C7.27808 9.17031 6.78433 9.17031 6.47886 8.86485Z" fill="#F15324"/>
</svg>
